<?xml version="1.0" standalone="no"?>
<!DOCTYPE svg PUBLIC "-//W3C//DTD SVG 20010904//EN"
 "http://www.w3.org/TR/2001/REC-SVG-20010904/DTD/svg10.dtd">
<svg version="1.0" xmlns="http://www.w3.org/2000/svg"
 width="2031.000000pt" height="2031.000000pt" viewBox="0 0 2031.000000 2031.000000"
 preserveAspectRatio="xMidYMid meet">
<metadata>
Created by potrace 1.11, written by Peter Selinger 2001-2013
</metadata>
<g transform="translate(0.000000,2031.000000) scale(0.100000,-0.100000)"
fill="#000000" stroke="none">
<path d="M2139 20298 c0 -7 -1 -1772 -1 -3923 -1 -3379 2 -4170 16 -4465 2
-30 6 -122 10 -205 4 -82 9 -168 11 -190 2 -22 7 -85 10 -140 3 -55 8 -120 10
-145 5 -46 10 -110 20 -240 4 -41 8 -86 10 -100 2 -14 7 -58 10 -99 4 -41 8
-88 10 -105 6 -46 16 -126 21 -171 3 -22 7 -56 9 -75 5 -39 24 -185 31 -240 3
-19 6 -48 8 -65 3 -28 14 -35 142 -100 221 -112 496 -234 704 -312 67 -25 262
-93 267 -93 2 0 3 2131 3 4735 l0 4735 6854 0 6853 0 0 -4446 c0 -3029 3
-4448 10 -4453 18 -11 221 -197 413 -378 36 -34 94 -89 130 -123 36 -33 145
-140 243 -237 97 -97 179 -174 180 -172 6 8 76 386 93 499 3 19 7 42 9 50 2 8
7 35 10 60 3 25 8 56 10 70 2 14 11 75 20 135 9 61 18 121 20 135 2 14 7 52
10 85 3 33 8 71 10 85 3 14 7 48 11 75 3 28 7 61 9 75 2 14 7 57 10 95 4 39 8
81 10 95 2 14 7 57 10 95 4 39 8 86 10 105 7 67 24 270 29 360 3 36 8 106 11
157 3 50 8 134 11 185 2 51 7 140 11 198 4 58 8 1985 10 4283 l4 4177 -8146 0
c-6509 0 -8145 -3 -8146 -12z"/>
<path d="M10249 18397 c-184 -117 -431 -273 -447 -282 -16 -9 -44 -27 -207
-130 -27 -18 -106 -67 -175 -110 -69 -42 -141 -87 -160 -100 -19 -12 -72 -46
-117 -75 -46 -29 -83 -54 -83 -55 0 -2 574 -3 1275 -3 1203 0 1274 1 1253 17
-13 10 -39 26 -58 38 -19 11 -64 38 -100 60 -36 22 -234 144 -440 271 -206
127 -380 235 -385 240 -6 4 -39 25 -75 46 -36 20 -96 57 -135 81 -38 25 -72
44 -75 44 -3 0 -35 -19 -71 -42z"/>
<path d="M9303 17290 l0 -147 1042 0 1043 0 -1 147 0 148 -1042 0 -1042 0 0
-148z"/>
<path d="M9278 16312 c-14 -3 -16 -22 -16 -128 l1 -124 1043 0 1043 0 0 120
c-1 74 -5 123 -12 127 -10 6 -2027 11 -2059 5z"/>
<path d="M8639 15800 c-1 -21 -1 -371 0 -391 1 -14 157 -16 1709 -15 l1707 1
0 204 c0 161 -3 205 -13 209 -8 2 -776 5 -1708 6 -1499 1 -1694 -1 -1695 -14z"/>
<path d="M9069 15176 c-7 -54 -21 -163 -24 -186 -2 -14 -7 -50 -10 -80 -3 -30
-8 -66 -10 -80 -2 -14 -6 -45 -9 -70 -13 -113 -18 -147 -21 -170 -3 -14 -7
-50 -10 -80 -3 -30 -7 -64 -9 -75 -2 -11 -7 -49 -11 -85 -4 -36 -8 -72 -10
-80 -2 -8 -6 -44 -10 -80 -4 -36 -9 -73 -10 -82 -2 -9 -6 -44 -10 -77 -3 -33
-8 -70 -10 -82 -3 -12 -7 -47 -10 -78 -3 -31 -7 -65 -9 -76 -2 -11 -7 -47 -10
-80 -4 -33 -9 -71 -11 -85 -5 -32 -16 -116 -19 -155 -4 -37 -16 -131 -21 -165
-2 -14 -7 -51 -10 -83 -4 -32 -8 -67 -10 -77 -2 -10 -6 -46 -10 -79 -3 -33 -8
-69 -10 -80 -2 -11 -6 -47 -10 -80 -3 -33 -7 -68 -9 -78 -2 -10 -7 -47 -11
-83 -4 -36 -8 -72 -10 -80 -2 -8 -6 -44 -10 -80 -4 -36 -8 -72 -10 -80 -2 -8
-6 -44 -10 -80 -4 -36 -9 -73 -10 -82 -2 -9 -6 -44 -10 -77 -3 -33 -8 -68 -10
-79 -2 -10 -6 -45 -9 -78 -4 -32 -8 -66 -11 -74 -2 -8 -6 -44 -10 -80 -3 -36
-7 -75 -9 -85 -2 -11 -7 -49 -11 -85 -4 -36 -9 -74 -10 -85 -2 -11 -6 -45 -10
-75 -3 -30 -8 -66 -10 -80 -2 -14 -7 -51 -10 -83 -4 -32 -8 -68 -10 -79 -3
-12 -7 -46 -10 -77 -3 -31 -7 -65 -9 -76 -2 -11 -7 -49 -11 -85 -4 -36 -8 -72
-10 -80 -2 -8 -6 -44 -10 -80 -4 -36 -8 -72 -10 -81 -2 -8 -6 -42 -9 -75 -4
-32 -8 -66 -11 -74 -2 -8 -6 -46 -10 -83 -3 -37 -8 -76 -10 -85 -1 -9 -6 -44
-9 -77 -4 -33 -9 -71 -11 -85 -2 -14 -6 -47 -10 -75 -3 -27 -8 -66 -10 -85 -3
-19 -7 -55 -10 -80 -3 -25 -7 -58 -10 -75 -2 -16 -7 -51 -10 -77 -10 -92 -17
-143 -21 -150 -11 -18 -546 -292 -764 -390 -315 -143 -652 -273 -904 -349
-166 -50 -455 -125 -518 -134 -23 -4 -45 -8 -49 -10 -3 -2 -19 -6 -35 -9 -154
-27 -205 -35 -244 -41 -25 -3 -52 -8 -60 -10 -8 -2 -44 -7 -80 -10 -36 -4 -76
-8 -90 -10 -14 -2 -68 -7 -120 -10 -52 -4 -113 -9 -135 -11 -60 -5 -459 -5
-545 0 -109 7 -220 16 -260 21 -19 2 -60 7 -90 10 -30 4 -66 8 -80 10 -14 2
-45 7 -70 10 -71 10 -197 32 -285 50 -44 9 -87 18 -96 20 -9 2 -33 8 -53 13
-20 6 -36 8 -36 6 0 -3 -8 0 -18 5 -9 5 -30 11 -47 14 -128 23 -613 180 -845
275 -405 166 -888 408 -1180 592 -25 16 -51 29 -57 29 -7 1 -13 6 -13 11 0 6
-5 10 -10 10 -17 0 -451 282 -618 401 -34 24 -84 60 -112 79 -28 19 -57 40
-63 45 -7 6 -50 38 -97 72 -47 34 -89 66 -95 70 -39 32 -85 65 -85 60 0 -9
247 -488 347 -672 56 -104 161 -291 213 -380 13 -22 28 -49 34 -60 9 -16 149
-250 209 -349 96 -157 364 -560 470 -706 67 -92 211 -285 217 -290 3 -3 39
-48 80 -100 182 -230 378 -448 600 -666 168 -165 276 -260 463 -410 100 -80
350 -254 366 -254 5 0 11 -4 13 -8 5 -14 196 -122 348 -198 237 -118 517 -220
740 -269 65 -15 224 -45 265 -51 28 -3 58 -8 68 -10 10 -2 48 -6 85 -9 37 -3
85 -8 107 -11 44 -6 453 -6 500 0 17 2 66 7 109 10 43 4 86 9 95 11 9 1 43 6
76 10 33 4 69 9 80 10 69 11 107 18 165 31 36 8 81 17 100 20 19 3 44 8 55 11
11 4 25 8 30 9 6 1 37 8 70 17 146 38 219 59 237 68 10 5 18 7 18 5 0 -17 617
213 813 303 37 17 69 31 71 31 4 0 241 112 310 146 16 8 31 14 34 14 4 0 -5
-109 -13 -148 -1 -9 -6 -44 -9 -77 -4 -33 -9 -73 -12 -90 -8 -57 -27 -236 -26
-245 2 -19 -470 -210 -767 -311 -154 -52 -384 -124 -430 -134 -9 -2 -61 -15
-115 -30 -55 -14 -109 -27 -120 -30 -60 -14 -214 -46 -236 -50 -280 -47 -367
-57 -590 -70 -198 -12 -482 -7 -615 10 -16 2 -55 7 -85 10 -30 3 -66 7 -80 10
-13 2 -40 7 -60 10 -40 6 -64 10 -135 25 -27 6 -59 12 -70 14 -253 49 -653
203 -950 364 -185 101 -561 357 -602 410 -7 8 -15 13 -18 11 -5 -6 -7 -4 135
-159 237 -259 526 -549 719 -720 40 -36 83 -74 95 -85 12 -11 48 -42 81 -70
33 -27 62 -52 65 -55 5 -5 148 -123 180 -147 8 -6 40 -31 70 -55 174 -138 437
-318 655 -449 78 -46 154 -92 170 -102 85 -51 479 -241 605 -291 292 -117 647
-225 860 -262 14 -2 45 -9 70 -14 51 -11 217 -36 300 -45 30 -3 69 -8 85 -11
156 -22 781 -22 903 0 9 2 49 7 87 10 39 4 80 8 90 10 11 2 43 7 70 10 43 6
124 20 240 40 400 71 1057 277 1443 452 29 13 79 35 112 49 33 14 84 36 115
50 l55 26 0 5183 0 5183 -620 0 c-438 0 -620 -3 -621 -11z"/>
<path d="M11185 15120 c3 -36 8 -76 10 -90 2 -14 7 -56 10 -95 4 -38 9 -83 10
-100 2 -16 6 -57 10 -90 3 -33 8 -76 10 -95 3 -19 12 -102 20 -185 15 -142 19
-183 30 -265 3 -19 7 -60 10 -90 3 -30 8 -77 11 -105 3 -27 7 -66 8 -85 10
-96 17 -158 21 -185 2 -16 7 -61 10 -100 4 -38 9 -79 11 -90 2 -11 6 -53 10
-93 3 -40 7 -81 9 -90 1 -9 6 -51 9 -92 4 -41 9 -86 11 -100 2 -14 7 -50 10
-80 3 -30 8 -75 10 -100 3 -25 10 -88 16 -140 5 -52 12 -115 14 -140 3 -25 7
-63 10 -85 2 -22 7 -67 10 -100 4 -33 8 -70 10 -83 2 -12 7 -57 10 -100 4 -42
8 -84 10 -92 2 -8 6 -51 10 -95 4 -44 9 -88 11 -98 2 -10 6 -48 9 -85 3 -37 8
-74 10 -82 2 -8 7 -51 11 -95 3 -44 8 -87 9 -95 1 -8 6 -49 10 -90 3 -41 8
-86 10 -100 5 -36 14 -121 30 -275 3 -33 8 -71 10 -85 2 -14 7 -58 11 -99 3
-41 7 -82 9 -91 2 -9 6 -50 10 -91 3 -41 8 -85 10 -99 4 -25 11 -91 21 -185 3
-27 7 -66 9 -85 5 -37 12 -107 21 -200 2 -30 7 -71 9 -90 10 -79 15 -120 25
-215 6 -55 12 -113 14 -130 2 -16 7 -64 10 -105 4 -41 9 -86 11 -100 3 -14 9
-72 15 -130 6 -58 12 -121 14 -140 3 -19 8 -64 11 -100 4 -36 9 -73 11 -83 2
-10 6 -49 9 -85 8 -94 19 -196 31 -282 2 -20 6 -60 9 -90 4 -51 10 -103 20
-190 2 -19 6 -57 9 -85 10 -92 16 -150 21 -192 3 -24 7 -62 10 -85 2 -24 7
-63 9 -88 11 -95 15 -137 21 -195 3 -33 10 -94 15 -135 5 -41 12 -102 15 -135
4 -33 8 -73 10 -90 4 -34 13 -115 21 -190 2 -27 7 -66 9 -85 2 -19 7 -60 10
-90 3 -30 8 -71 10 -90 7 -61 15 -133 20 -187 2 -29 7 -65 9 -80 3 -16 7 -59
11 -98 3 -38 8 -83 10 -100 4 -31 12 -102 20 -190 3 -27 7 -61 10 -75 2 -14 7
-54 10 -90 6 -64 9 -95 19 -175 3 -22 8 -69 12 -105 3 -36 7 -74 9 -85 1 -11
3 -28 4 -38 1 -23 5 -21 398 207 103 60 244 141 311 180 68 39 136 78 150 87
49 29 637 365 652 373 8 4 24 12 35 19 34 20 236 133 305 169 36 20 110 59
165 88 55 30 190 98 300 153 110 54 207 102 216 107 32 16 349 160 354 160 2
0 28 11 57 24 155 70 549 209 738 261 102 28 363 90 420 100 19 3 42 8 50 10
8 2 35 6 60 9 25 3 54 7 65 10 11 2 47 7 80 10 33 4 74 9 90 11 195 24 554 24
750 0 80 -10 150 -19 155 -20 3 -1 28 -5 55 -9 63 -10 282 -60 355 -81 85 -25
213 -66 235 -75 11 -5 70 -28 130 -52 105 -41 410 -188 505 -244 254 -149 465
-295 701 -485 53 -43 104 -85 113 -94 9 -9 16 -13 16 -9 0 10 -228 349 -285
425 -24 31 -48 66 -54 77 -6 11 -17 26 -24 34 -7 7 -42 54 -79 103 -322 434
-738 882 -1103 1187 -127 105 -313 248 -325 248 -4 0 -10 4 -12 8 -7 18 -289
198 -443 282 -416 229 -905 391 -1355 449 -205 27 -321 34 -515 34 -157 0
-381 -9 -440 -18 -16 -2 -55 -7 -85 -10 -70 -7 -138 -15 -170 -21 -14 -2 -45
-7 -70 -10 -133 -17 -446 -88 -670 -150 -316 -88 -846 -282 -1146 -419 -260
-119 -253 -116 -252 -97 1 15 -5 50 -27 162 -3 13 -7 42 -11 65 -3 22 -10 63
-15 90 -20 102 -22 121 -23 163 l-1 43 70 30 c135 57 481 188 630 237 254 85
623 186 793 217 15 3 38 8 52 11 14 3 34 7 45 9 42 8 141 25 160 29 52 10 184
29 285 41 95 11 261 25 365 30 99 5 476 5 530 0 22 -1 85 -6 140 -10 55 -3
107 -8 115 -10 8 -2 44 -6 80 -10 78 -7 286 -39 390 -61 41 -9 84 -17 95 -20
98 -19 459 -117 550 -150 22 -8 -28 47 -241 260 -362 364 -739 689 -1079 932
-66 47 -128 92 -138 100 -9 7 -20 14 -23 14 -2 0 -10 5 -17 11 -7 5 -55 38
-107 71 -463 298 -937 511 -1385 622 -116 29 -296 63 -375 71 -30 4 -61 8 -68
11 -29 9 -247 19 -417 19 -162 -1 -243 -5 -400 -20 -73 -7 -277 -39 -315 -50
-8 -2 -31 -7 -50 -10 -19 -3 -50 -10 -67 -15 -18 -4 -33 -5 -34 -2 0 4 -2 14
-4 22 -2 8 -12 71 -24 140 -12 69 -23 135 -25 146 -2 12 -7 39 -10 60 -8 47
-45 263 -51 295 -3 13 -7 39 -10 59 -3 20 -8 47 -10 60 -5 22 -58 335 -71 415
-2 17 -9 57 -15 90 -6 33 -13 74 -15 90 -3 17 -7 40 -10 53 -7 33 -42 239 -49
287 -3 22 -10 60 -15 85 -5 25 -12 63 -15 85 -3 22 -10 65 -15 95 -5 30 -12
71 -15 90 -3 19 -10 58 -15 85 -5 28 -12 64 -14 80 -3 17 -17 98 -31 180 -15
83 -28 162 -31 178 -10 61 -14 88 -39 232 -15 83 -28 164 -31 180 -2 17 -6 41
-9 55 -6 32 -25 144 -32 190 -3 19 -10 60 -17 90 l-13 55 -182 0 -183 0 7 -65z"/>
<path d="M17237 7424 c-1 -1 -78 -4 -172 -7 -93 -4 -181 -8 -195 -11 -14 -2
-50 -7 -80 -11 -120 -14 -213 -29 -340 -56 -105 -22 -387 -94 -422 -108 -13
-5 -75 -26 -138 -46 -125 -40 -281 -98 -459 -169 -115 -47 -135 -55 -231 -99
-30 -14 -75 -33 -100 -43 -52 -21 -592 -290 -725 -362 -222 -119 -497 -273
-690 -385 -66 -38 -138 -80 -160 -92 -49 -28 -294 -172 -315 -185 -33 -20
-610 -363 -693 -411 -33 -19 -73 -42 -90 -53 -47 -27 -312 -182 -387 -226 -79
-46 -410 -233 -500 -282 -36 -20 -96 -53 -135 -74 -404 -221 -1034 -526 -1330
-644 -11 -4 -36 -15 -56 -24 -238 -104 -774 -285 -1074 -362 -16 -4 -32 -8
-35 -9 -25 -7 -78 -19 -90 -20 -8 -1 -46 -10 -85 -19 -80 -19 -240 -52 -300
-60 -23 -4 -52 -9 -65 -11 -14 -3 -45 -8 -70 -11 -25 -3 -58 -8 -75 -11 -16
-2 -46 -6 -65 -8 -19 -2 -62 -6 -95 -10 -117 -14 -368 -27 -515 -28 -106 0
-374 11 -405 17 -11 2 -56 7 -99 11 -43 4 -88 9 -100 11 -12 2 -39 7 -61 9
-91 12 -125 17 -220 36 -853 172 -1649 569 -2399 1198 -59 50 -110 91 -112 91
-18 0 353 -539 525 -764 42 -54 85 -110 96 -125 28 -37 215 -271 241 -301 12
-14 54 -63 94 -110 39 -47 102 -118 138 -159 37 -41 90 -99 117 -130 357 -396
935 -939 1348 -1266 21 -16 44 -34 50 -40 113 -95 534 -408 742 -552 252 -173
660 -436 782 -503 16 -8 66 -38 113 -66 87 -52 271 -157 370 -211 30 -17 75
-41 100 -55 210 -116 662 -342 935 -468 117 -54 287 -130 290 -130 2 0 37 -16
79 -36 42 -19 84 -36 94 -36 9 -1 91 31 182 71 163 72 217 97 415 189 164 76
620 306 765 385 74 40 171 93 215 117 44 24 97 54 117 67 21 13 40 23 44 23 3
0 26 14 51 30 24 17 46 30 49 30 4 0 280 163 339 201 548 349 937 622 1275
892 8 7 35 28 60 47 25 19 47 37 50 40 3 3 41 35 85 70 115 94 105 86 226 190
694 599 1306 1258 1829 1971 181 248 380 544 542 810 36 58 68 112 71 120 4 8
16 28 27 44 10 17 25 41 33 55 7 14 58 104 112 200 84 150 331 633 378 740 8
19 32 71 52 115 67 145 292 687 300 725 1 3 7 19 14 35 34 82 79 225 73 229
-9 6 -329 25 -335 20z"/>
</g>
</svg>
