<svg xmlns="http://www.w3.org/2000/svg" viewBox="0 0 118.79 142.65"><defs><style>.cls-1{fill:#fff;}.cls-2{fill:#35b4cf;}</style></defs><title>uni-building</title><g id="Layer_2" data-name="Layer 2"><g id="Icon_Set" data-name="Icon Set"><path class="cls-1" d="M34.94,37.91a1.5,1.5,0,0,0,1.5-1.5V33.56a17,17,0,0,1,17-17H65.37a17,17,0,0,1,17,17v2.86a1.5,1.5,0,0,0,3,0V33.56A20,20,0,0,0,67.1,13.62V11.31A5.34,5.34,0,0,0,61.76,6h-.84V1.5a1.5,1.5,0,0,0-3,0V6h-.84a5.34,5.34,0,0,0-5.33,5.34v2.31a20,20,0,0,0-18.3,19.94v2.86A1.5,1.5,0,0,0,34.94,37.91ZM57.08,9h4.68a2.34,2.34,0,0,1,2.34,2.34v2.22H54.74V11.31A2.34,2.34,0,0,1,57.08,9Z"/><path class="cls-1" d="M30.89,45.1h57a1.5,1.5,0,0,0,0-3h-57a1.5,1.5,0,0,0,0,3Z"/><path class="cls-1" d="M30.89,57.49h57a1.5,1.5,0,0,0,0-3h-57a1.5,1.5,0,1,0,0,3Z"/><path class="cls-1" d="M30.89,52.41a1.5,1.5,0,0,0,1.5-1.5V48.67a1.5,1.5,0,1,0-3,0v2.25A1.5,1.5,0,0,0,30.89,52.41Z"/><path class="cls-1" d="M40.79,48.67v2.25a1.5,1.5,0,0,0,3,0V48.67a1.5,1.5,0,0,0-3,0Z"/><path class="cls-1" d="M52.19,48.67v2.25a1.5,1.5,0,0,0,3,0V48.67a1.5,1.5,0,0,0-3,0Z"/><path class="cls-1" d="M63.59,48.67v2.25a1.5,1.5,0,0,0,3,0V48.67a1.5,1.5,0,0,0-3,0Z"/><path class="cls-1" d="M75,48.67v2.25a1.5,1.5,0,0,0,3,0V48.67a1.5,1.5,0,0,0-3,0Z"/><path class="cls-1" d="M87.89,47.17a1.5,1.5,0,0,0-1.5,1.5v2.25a1.5,1.5,0,0,0,3,0V48.67A1.5,1.5,0,0,0,87.89,47.17Z"/><path class="cls-1" d="M81.55,100.55,59.39,91.77l-22.16,8.78a1.5,1.5,0,0,0,1.11,2.79L59.39,95l21.05,8.34a1.5,1.5,0,0,0,1.11-2.79Z"/><path class="cls-1" d="M81,108.08a1.5,1.5,0,0,0-1.5,1.5v10.73a1.5,1.5,0,0,0,3,0V109.58A1.5,1.5,0,0,0,81,108.08Z"/><path class="cls-1" d="M94.56,120.31V109.58a1.5,1.5,0,1,0-3,0v10.73a1.5,1.5,0,0,0,3,0Z"/><path class="cls-1" d="M106.62,120.31V109.58a1.5,1.5,0,0,0-3,0v10.73a1.5,1.5,0,0,0,3,0Z"/><path class="cls-1" d="M36.29,120.31a1.5,1.5,0,0,0,3,0V109.58a1.5,1.5,0,1,0-3,0Z"/><path class="cls-1" d="M27.22,120.31V109.58a1.5,1.5,0,0,0-3,0v10.73a1.5,1.5,0,0,0,3,0Z"/><path class="cls-1" d="M15.16,120.31V109.58a1.5,1.5,0,0,0-3,0v10.73a1.5,1.5,0,0,0,3,0Z"/><path class="cls-1" d="M114.23,95.48H100.34V91.24a10.42,10.42,0,0,0-10.4-10.4h-.54V64a1.5,1.5,0,0,0-3,0V80.84H75.14V64a1.5,1.5,0,0,0-3,0V80.84H60.89V64a1.5,1.5,0,0,0-3,0V80.84H46.64V64a1.5,1.5,0,0,0-3,0V80.84H32.39V64a1.5,1.5,0,1,0-3,0V80.84h-.54a10.42,10.42,0,0,0-10.4,10.4v4.23H4.56A4.56,4.56,0,0,0,0,100v21.22a1.5,1.5,0,0,0,3,0V100a1.56,1.56,0,0,1,1.56-1.56H21.45V91.24a7.41,7.41,0,0,1,7.4-7.4H89.94a7.41,7.41,0,0,1,7.4,7.4v7.23h16.89a1.56,1.56,0,0,1,1.56,1.56v21.22a1.5,1.5,0,0,0,3,0V100A4.56,4.56,0,0,0,114.23,95.48Z"/><path class="cls-1" d="M79.46,127.68a1.5,1.5,0,0,0,1.5,1.5h34.83v10.47H3V129.18H37.83a1.5,1.5,0,0,0,0-3H0v16.47H118.79V126.18H81A1.5,1.5,0,0,0,79.46,127.68Z"/><path class="cls-1" d="M71.7,113.55A11.46,11.46,0,0,0,60.25,102.1H58.54a11.46,11.46,0,0,0-11.45,11.45v15.63H71.7Zm-3,12.63H50.09V113.55a8.46,8.46,0,0,1,8.45-8.45h1.71a8.46,8.46,0,0,1,8.45,8.45Z"/><path class="cls-1" d="M48.59,132.92a1.5,1.5,0,0,0,0,3H70.2a1.5,1.5,0,0,0,0-3Z"/><path class="cls-2" d="M64.53,21.55H54.31a12.9,12.9,0,0,0-1.8.13,12.2,12.2,0,0,0-10.23,12.2v3.38H76.49l0-3.24A12.22,12.22,0,0,0,65.44,21.58Q65,21.55,64.53,21.55Z"/></g></g></svg>