<svg data-name="Layer 1" xmlns="http://www.w3.org/2000/svg" viewBox="0 0 452.85 482.67"><defs>
  <style>.cls-1{fill:none;}.cls-2,.cls-3,.cls-4,.cls-5{opacity:4.000000e-02;fill:#FFFFFF;enable-background:new    ;}.cls-3{font-size:37.46px;}.cls-3,.cls-4{font-family:TrajanPro Bold;font-weight:700;}.cls-4,.cls-5{font-size:39px;}.cls-5{font-family:Zapf Dingbats;}</style>
</defs><title>seal2</title><path class="cls-1" d="M395,179c-69,0-125.35,56.31-125.35,125.35S326,429.71,395,429.71,520.35,373.4,520.35,304.36,464,179,395,179Zm4.09,228.66h-7.2L336,301.55l59.44-105.95,59.75,105.95Z" transform="translate(-151.68 -61.11)"/><path class="cls-1" d="M395,179c-69,0-125.35,56.31-125.35,125.35S326,429.71,395,429.71,520.35,373.4,520.35,304.36,464,179,395,179Z" transform="translate(-151.68 -61.11)"/><path class="cls-2" d="M528.3,298c0-.12,0-0.23,0-0.35-0.09-1.68-.23-3.35-0.38-5-0.09-1-.19-2-0.3-3q-0.2-1.79-.45-3.56c-0.14-1-.28-2-0.44-2.92-0.19-1.17-.4-2.33-0.62-3.49-0.19-1-.37-1.93-0.57-2.88-0.25-1.16-.52-2.3-0.8-3.45-0.23-.94-0.46-1.88-0.7-2.81-0.3-1.15-.64-2.28-1-3.41-0.27-.91-0.53-1.83-0.82-2.73-0.36-1.14-.75-2.26-1.15-3.38-0.31-.88-0.61-1.77-0.93-2.64-0.42-1.13-.88-2.25-1.33-3.36-0.34-.84-0.67-1.69-1-2.52-0.49-1.13-1-2.25-1.53-3.37-0.37-.79-0.72-1.59-1.1-2.38-0.57-1.17-1.18-2.31-1.78-3.46-0.37-.71-0.72-1.43-1.1-2.13-0.72-1.31-1.48-2.6-2.24-3.89-0.3-.51-0.59-1-0.9-1.55q-1.63-2.67-3.38-5.26c-0.24-.36-0.5-0.7-0.75-1.06-0.94-1.36-1.89-2.71-2.87-4-0.45-.61-0.93-1.19-1.4-1.79-0.81-1-1.61-2.1-2.45-3.12-0.55-.67-1.12-1.31-1.68-2-0.79-.93-1.58-1.86-2.4-2.76-0.6-.67-1.23-1.32-1.85-2-0.8-.86-1.61-1.72-2.44-2.56-0.65-.66-1.33-1.3-2-1.94-0.83-.8-1.65-1.6-2.5-2.38s-1.41-1.26-2.12-1.89-1.7-1.5-2.57-2.22-1.49-1.21-2.23-1.81-1.75-1.4-2.65-2.08-1.55-1.15-2.33-1.72-1.81-1.31-2.74-2-1.6-1.08-2.41-1.62-1.88-1.22-2.83-1.82-1.65-1-2.49-1.51-1.93-1.13-2.91-1.68-1.71-.94-2.57-1.4-2-1-3-1.54-1.75-.87-2.64-1.28-2.05-.94-3.09-1.4-1.79-.78-2.7-1.16-2.11-.85-3.17-1.26c-0.91-.35-1.82-0.7-2.75-1-1.08-.39-2.17-0.75-3.26-1.11-0.93-.3-1.85-0.61-2.78-0.9-1.11-.34-2.24-0.65-3.36-1-0.93-.26-1.86-0.53-2.81-0.76-1.15-.29-2.32-0.55-3.49-0.81-0.93-.21-1.85-0.43-2.79-0.62-1.21-.24-2.43-0.45-3.65-0.66-0.91-.16-1.82-0.33-2.74-0.47-1.29-.19-2.6-0.34-3.9-0.5-0.86-.11-1.72-0.23-2.59-0.32-1.45-.14-2.92-0.24-4.39-0.34-0.73,0-1.46-.12-2.2-0.16q-3.31-.17-6.66-0.17T389,172c-0.73,0-1.46.11-2.19,0.16-1.47.1-2.94,0.19-4.4,0.34-0.86.09-1.71,0.21-2.57,0.31-1.31.16-2.62,0.3-3.92,0.5-0.91.14-1.81,0.31-2.72,0.46-1.23.21-2.46,0.42-3.68,0.66-0.93.19-1.84,0.4-2.76,0.61-1.18.26-2.36,0.52-3.53,0.82-0.93.23-1.85,0.5-2.77,0.75-1.14.31-2.28,0.63-3.41,1-0.92.28-1.83,0.58-2.74,0.88-1.11.37-2.21,0.73-3.31,1.13-0.91.32-1.8,0.67-2.7,1-1.08.41-2.15,0.83-3.22,1.27-0.89.37-1.77,0.76-2.65,1.14-1.05.46-2.09,0.93-3.13,1.42-0.87.41-1.73,0.83-2.59,1.26q-1.54.77-3,1.57-1.27.67-2.52,1.37-1.49.83-3,1.71-1.23.73-2.45,1.48-1.45.91-2.88,1.85c-0.79.52-1.58,1-2.36,1.58-0.94.65-1.87,1.32-2.79,2-0.76.55-1.52,1.11-2.27,1.68-0.92.7-1.81,1.41-2.71,2.13-0.73.58-1.46,1.17-2.18,1.77-0.88.74-1.75,1.51-2.62,2.27-0.7.61-1.39,1.22-2.07,1.85-0.86.79-1.7,1.61-2.54,2.42-0.65.63-1.31,1.26-2,1.91-0.84.85-1.65,1.72-2.47,2.59-0.61.65-1.23,1.29-1.82,1.95-0.83.91-1.62,1.86-2.42,2.79-0.55.64-1.12,1.28-1.65,1.93-0.84,1-1.64,2.07-2.45,3.12-0.46.6-.95,1.19-1.4,1.8-1,1.29-1.88,2.6-2.79,3.92-0.27.4-.57,0.78-0.84,1.18q-1.75,2.58-3.37,5.25c-0.34.56-.66,1.14-1,1.71-0.73,1.23-1.46,2.46-2.14,3.72-0.41.75-.79,1.51-1.18,2.27-0.57,1.1-1.16,2.2-1.7,3.31-0.41.83-.78,1.68-1.17,2.53-0.49,1.07-1,2.13-1.46,3.21-0.38.89-.73,1.79-1.09,2.68-0.43,1.06-.86,2.12-1.26,3.19s-0.67,1.87-1,2.81-0.74,2.12-1.08,3.19-0.59,1.95-.88,2.93-0.63,2.13-.91,3.2-0.51,2-.75,3-0.52,2.16-.75,3.25-0.41,2-.61,3.07-0.41,2.19-.59,3.29-0.32,2.08-.47,3.13-0.3,2.21-.43,3.33-0.22,2.12-.32,3.18c-0.15,1.66-.3,3.32-0.38,5,0,0.05,0,.1,0,0.16q-0.17,3.34-.17,6.73t0.17,6.72c0,0.05,0,.11,0,0.17,0.09,1.67.23,3.32,0.38,5q0.14,1.6.32,3.2c0.13,1.11.27,2.21,0.42,3.31s0.3,2.11.47,3.16,0.38,2.17.58,3.25,0.4,2.08.62,3.11,0.49,2.14.74,3.2,0.49,2,.76,3.06,0.59,2.09.89,3.13,0.58,2,.9,3,0.69,2.06,1,3.08,0.67,2,1,2.93,0.79,2,1.2,3,0.75,1.91,1.16,2.85,0.9,2,1.35,3,0.83,1.84,1.27,2.75,1,2,1.53,3,0.88,1.74,1.35,2.59c0.57,1,1.18,2.06,1.78,3.09,0.45,0.78.89,1.57,1.36,2.34q1.61,2.63,3.33,5.18c0.48,0.7,1,1.38,1.48,2.08,0.71,1,1.41,2,2.14,3,0.57,0.76,1.17,1.5,1.75,2.25s1.38,1.8,2.1,2.67,1.27,1.49,1.91,2.23,1.42,1.68,2.16,2.49,1.36,1.46,2,2.18,1.48,1.58,2.24,2.35,1.43,1.4,2.15,2.09,1.55,1.5,2.34,2.23,1.49,1.34,2.24,2,1.62,1.42,2.44,2.11,1.55,1.27,2.34,1.9,1.68,1.35,2.54,2,1.61,1.2,2.43,1.79,1.75,1.26,2.64,1.88,1.66,1.13,2.51,1.68,1.81,1.18,2.73,1.75,1.71,1.05,2.58,1.56,1.88,1.1,2.83,1.63,1.75,1,2.64,1.44,1.94,1,2.93,1.5,1.79,0.89,2.7,1.32,2,0.92,3,1.37,1.83,0.8,2.75,1.18,2.08,0.84,3.13,1.24,1.85,0.71,2.78,1,2.16,0.75,3.24,1.1c0.93,0.3,1.86.62,2.8,0.9,1.11,0.34,2.23.65,3.35,1,0.94,0.26,1.87.53,2.82,0.76,1.15,0.29,2.31.54,3.46,0.8,0.94,0.21,1.88.43,2.82,0.63,1.2,0.24,2.41.44,3.62,0.65,0.92,0.16,1.84.33,2.77,0.47,1.28,0.19,2.57.34,3.86,0.49,0.88,0.11,1.75.23,2.63,0.32,1.44,0.14,2.9.24,4.36,0.33,0.74,0.05,1.48.13,2.22,0.16q3.32,0.17,6.66.17t6.66-.17c0.75,0,1.48-.11,2.23-0.16,1.45-.1,2.91-0.19,4.35-0.33,0.88-.09,1.76-0.21,2.64-0.32,1.29-.16,2.57-0.3,3.85-0.49,0.94-.14,1.86-0.32,2.79-0.48,1.2-.21,2.41-0.41,3.6-0.64,1-.19,1.9-0.42,2.85-0.63,1.15-.26,2.3-0.51,3.44-0.79,1-.24,1.9-0.51,2.84-0.77,1.11-.3,2.23-0.61,3.32-0.95s1.89-.6,2.83-0.91,2.15-.71,3.21-1.09,1.88-.7,2.81-1.05,2.07-.8,3.09-1.22,1.86-.79,2.78-1.2,2-.89,3-1.35,1.83-.88,2.74-1.33,1.93-1,2.88-1.48,1.79-1,2.68-1.46,1.87-1.06,2.79-1.61,1.75-1,2.62-1.59,1.8-1.14,2.69-1.73,1.7-1.13,2.54-1.71,1.73-1.22,2.6-1.85,1.65-1.2,2.46-1.82,1.67-1.3,2.5-2,1.6-1.27,2.38-1.93,1.61-1.37,2.4-2.08,1.54-1.35,2.29-2,1.54-1.46,2.3-2.19,1.47-1.41,2.19-2.13,1.48-1.54,2.21-2.31,1.4-1.46,2.08-2.21,1.42-1.63,2.12-2.45,1.31-1.5,1.95-2.27,1.38-1.75,2.07-2.64,1.2-1.5,1.77-2.27c0.74-1,1.45-2,2.17-3,0.48-.68,1-1.35,1.45-2q1.72-2.55,3.33-5.19c0.45-.73.86-1.49,1.29-2.23,0.62-1.06,1.25-2.12,1.84-3.2,0.45-.83.87-1.67,1.3-2.51,0.53-1,1.07-2,1.58-3.07,0.42-.87.81-1.76,1.22-2.64s1-2.06,1.41-3.11c0.38-.9.74-1.81,1.1-2.71s0.86-2.1,1.25-3.17,0.66-1.86,1-2.79,0.75-2.14,1.1-3.23,0.57-1.89.85-2.84,0.65-2.19.94-3.3,0.49-1.93.72-2.9,0.54-2.23.78-3.37c0.21-1,.4-2,0.59-2.94,0.22-1.14.43-2.29,0.62-3.44,0.16-1,.3-2,0.45-3,0.16-1.17.32-2.34,0.45-3.53,0.12-1,.21-2,0.3-3,0.15-1.66.29-3.32,0.38-5l0-.36q0.17-3.3.17-6.63T528.3,298ZM395,429.71c-69,0-125.35-56.31-125.35-125.35S326,179,395,179s125.35,56.31,125.35,125.35S464,429.71,395,429.71Z" transform="translate(-151.68 -61.11)"/><path class="cls-1" d="M528.43,308.06h0c0-1.13,0-2.27,0-3.41q0,3.33-.17,6.63C528.36,310.2,528.41,309.13,528.43,308.06Z" transform="translate(-151.68 -61.11)"/><path class="cls-1" d="M263.18,314.82c0,0.56.12,1.12,0.17,1.69-0.15-1.66-.29-3.31-0.38-5C263,312.63,263.1,313.72,263.18,314.82Z" transform="translate(-151.68 -61.11)"/><path class="cls-1" d="M528.09,294.45c0-.61-0.13-1.21-0.18-1.81,0.15,1.66.29,3.33,0.38,5C528.24,296.58,528.17,295.51,528.09,294.45Z" transform="translate(-151.68 -61.11)"/><path class="cls-1" d="M528.09,314.82c0.08-1.06.15-2.12,0.2-3.19-0.09,1.67-.23,3.33-0.38,5C528,316,528,315.42,528.09,314.82Z" transform="translate(-151.68 -61.11)"/><path class="cls-1" d="M528.43,301.22h0q0-1.61-.13-3.21,0.17,3.3.17,6.63C528.47,303.49,528.46,302.35,528.43,301.22Z" transform="translate(-151.68 -61.11)"/><path class="cls-1" d="M263.18,294.45c-0.08,1.09-.16,2.2-0.21,3.3,0.09-1.68.23-3.34,0.38-5C263.31,293.32,263.23,293.88,263.18,294.45Z" transform="translate(-151.68 -61.11)"/><path class="cls-1" d="M262.84,301.21h0q0,1.71,0,3.42,0-3.38.17-6.73Q262.88,299.55,262.84,301.21Z" transform="translate(-151.68 -61.11)"/><path class="cls-1" d="M262.84,308h0q0,1.65.13,3.3-0.17-3.34-.17-6.72C262.79,305.78,262.81,306.92,262.84,308Z" transform="translate(-151.68 -61.11)"/><path class="cls-1" d="M505.79,378.73q1.72-2.55,3.33-5.19c0.45-.73.86-1.49,1.29-2.23,0.62-1.06,1.25-2.12,1.84-3.2,0.45-.83.87-1.67,1.3-2.51,0.53-1,1.07-2,1.58-3.07,0.42-.87.81-1.76,1.22-2.64s1-2.06,1.41-3.11c0.38-.9.74-1.81,1.1-2.71s0.86-2.1,1.25-3.17,0.66-1.86,1-2.79,0.75-2.14,1.1-3.23,0.57-1.89.85-2.84,0.65-2.19.94-3.3,0.49-1.93.72-2.9,0.54-2.23.78-3.37c0.21-1,.4-2,0.59-2.94,0.22-1.14.43-2.29,0.62-3.44,0.16-1,.3-2,0.45-3,0.16-1.17.32-2.34,0.45-3.53,0.12-1,.21-2,0.3-3,0.06-.6.13-1.2,0.18-1.8,0.08-1.06.15-2.12,0.2-3.19v-0.17s0,0,0,0,0-.12,0-0.18c0.06-1.07.1-2.14,0.13-3.21h0c0-1.13,0-2.27,0-3.41s0-2.28,0-3.42h0q0-1.61-.13-3.21c0-.06,0-0.12,0-0.18h0v-0.16c-0.05-1.07-.12-2.14-0.2-3.2,0-.61-0.13-1.21-0.18-1.81-0.09-1-.19-2-0.3-3q-0.2-1.79-.45-3.56c-0.14-1-.28-2-0.44-2.92-0.19-1.17-.4-2.33-0.62-3.49-0.19-1-.37-1.93-0.57-2.88-0.25-1.16-.52-2.3-0.8-3.45-0.23-.94-0.46-1.88-0.7-2.81-0.3-1.15-.64-2.28-1-3.41-0.27-.91-0.53-1.83-0.82-2.73-0.36-1.14-.75-2.26-1.15-3.38-0.31-.88-0.61-1.77-0.93-2.64-0.42-1.13-.88-2.25-1.33-3.36-0.34-.84-0.67-1.69-1-2.52-0.49-1.13-1-2.25-1.53-3.37-0.37-.79-0.72-1.59-1.1-2.38-0.57-1.17-1.18-2.31-1.78-3.46-0.37-.71-0.72-1.43-1.1-2.13-0.72-1.31-1.48-2.6-2.24-3.89-0.3-.51-0.59-1-0.9-1.55q-1.63-2.67-3.38-5.26c-0.24-.36-0.5-0.7-0.75-1.06-0.94-1.36-1.89-2.71-2.87-4-0.45-.61-0.93-1.19-1.4-1.79-0.81-1-1.61-2.1-2.45-3.12-0.55-.67-1.12-1.31-1.68-2-0.79-.93-1.58-1.86-2.4-2.76-0.6-.67-1.23-1.32-1.85-2-0.8-.86-1.61-1.72-2.44-2.56-0.65-.66-1.33-1.3-2-1.94-0.83-.8-1.65-1.6-2.5-2.38s-1.41-1.26-2.12-1.89-1.7-1.5-2.57-2.22-1.49-1.21-2.23-1.81-1.75-1.4-2.65-2.08-1.55-1.15-2.33-1.72-1.81-1.31-2.74-2-1.6-1.08-2.41-1.62-1.88-1.22-2.83-1.82-1.65-1-2.49-1.51-1.93-1.13-2.91-1.68-1.71-.94-2.57-1.4-2-1-3-1.54-1.75-.87-2.64-1.28-2.05-.94-3.09-1.4-1.79-.78-2.7-1.16-2.11-.85-3.17-1.26c-0.91-.35-1.82-0.7-2.75-1-1.08-.39-2.17-0.75-3.26-1.11-0.93-.3-1.85-0.61-2.78-0.9-1.11-.34-2.24-0.65-3.36-1-0.93-.26-1.86-0.53-2.81-0.76-1.15-.29-2.32-0.55-3.49-0.81-0.93-.21-1.85-0.43-2.79-0.62-1.21-.24-2.43-0.45-3.65-0.66-0.91-.16-1.82-0.33-2.74-0.47-1.29-.19-2.6-0.34-3.9-0.5-0.86-.11-1.72-0.23-2.59-0.32-1.45-.14-2.92-0.24-4.39-0.34-0.73,0-1.46-.12-2.2-0.16q-3.31-.17-6.66-0.17T389,172c-0.73,0-1.46.11-2.19,0.16-1.47.1-2.94,0.19-4.4,0.34-0.86.09-1.71,0.21-2.57,0.31-1.31.16-2.62,0.3-3.92,0.5-0.91.14-1.81,0.31-2.72,0.46-1.23.21-2.46,0.42-3.68,0.66-0.93.19-1.84,0.4-2.76,0.61-1.18.26-2.36,0.52-3.53,0.82-0.93.23-1.85,0.5-2.77,0.75-1.14.31-2.28,0.63-3.41,1-0.92.28-1.83,0.58-2.74,0.88-1.11.37-2.21,0.73-3.31,1.13-0.91.32-1.8,0.67-2.7,1-1.08.41-2.15,0.83-3.22,1.27-0.89.37-1.77,0.76-2.65,1.14-1.05.46-2.09,0.93-3.13,1.42-0.87.41-1.73,0.83-2.59,1.26q-1.54.77-3,1.57-1.27.67-2.52,1.37-1.49.83-3,1.71-1.23.73-2.45,1.48-1.45.91-2.88,1.85c-0.79.52-1.58,1-2.36,1.58-0.94.65-1.87,1.32-2.79,2-0.76.55-1.52,1.11-2.27,1.68-0.92.7-1.81,1.41-2.71,2.13-0.73.58-1.46,1.17-2.18,1.77-0.88.74-1.75,1.51-2.62,2.27-0.7.61-1.39,1.22-2.07,1.85-0.86.79-1.7,1.61-2.54,2.42-0.65.63-1.31,1.26-2,1.91-0.84.85-1.65,1.72-2.47,2.59-0.61.65-1.23,1.29-1.82,1.95-0.83.91-1.62,1.86-2.42,2.79-0.55.64-1.12,1.28-1.65,1.93-0.84,1-1.64,2.07-2.45,3.12-0.46.6-.95,1.19-1.4,1.8-1,1.29-1.88,2.6-2.79,3.92-0.27.4-.57,0.78-0.84,1.18q-1.75,2.58-3.37,5.25c-0.34.56-.66,1.14-1,1.71-0.73,1.23-1.46,2.46-2.14,3.72-0.41.75-.79,1.51-1.18,2.27-0.57,1.1-1.16,2.2-1.7,3.31-0.41.83-.78,1.68-1.17,2.53-0.49,1.07-1,2.13-1.46,3.21-0.38.89-.73,1.79-1.09,2.68-0.43,1.06-.86,2.12-1.26,3.19s-0.67,1.87-1,2.81-0.74,2.12-1.08,3.19-0.59,1.95-.88,2.93-0.63,2.13-.91,3.2-0.51,2-.75,3-0.52,2.16-.75,3.25-0.41,2-.61,3.07-0.41,2.19-.59,3.29-0.32,2.08-.47,3.13-0.3,2.21-.43,3.33-0.22,2.12-.32,3.18c-0.05.57-.13,1.13-0.17,1.7-0.08,1.09-.16,2.2-0.21,3.3,0,0,0,0,0,.06h0s0,0.05,0,.08q-0.08,1.65-.13,3.31h0q0,1.71,0,3.42c0,1.14,0,2.28,0,3.41h0q0,1.65.13,3.3s0,0.06,0,.09h0s0,0.05,0,.07c0.06,1.1.13,2.2,0.21,3.29,0,0.56.12,1.12,0.17,1.69q0.14,1.6.32,3.2c0.13,1.11.27,2.21,0.42,3.31s0.3,2.11.47,3.16,0.38,2.17.58,3.25,0.4,2.08.62,3.11,0.49,2.14.74,3.2,0.49,2,.76,3.06,0.59,2.09.89,3.13,0.58,2,.9,3,0.69,2.06,1,3.08,0.67,2,1,2.93,0.79,2,1.2,3,0.75,1.91,1.16,2.85,0.9,2,1.35,3,0.83,1.84,1.27,2.75,1,2,1.53,3,0.88,1.74,1.35,2.59c0.57,1,1.18,2.06,1.78,3.09,0.45,0.78.89,1.57,1.36,2.34q1.61,2.63,3.33,5.18c0.48,0.7,1,1.38,1.48,2.08,0.71,1,1.41,2,2.14,3,0.57,0.76,1.17,1.5,1.75,2.25s1.38,1.8,2.1,2.67,1.27,1.49,1.91,2.23,1.42,1.68,2.16,2.49,1.36,1.46,2,2.18,1.48,1.58,2.24,2.35,1.43,1.4,2.15,2.09,1.55,1.5,2.34,2.23,1.49,1.34,2.24,2,1.62,1.42,2.44,2.11,1.55,1.27,2.34,1.9,1.68,1.35,2.54,2,1.61,1.2,2.43,1.79,1.75,1.26,2.64,1.88,1.66,1.13,2.51,1.68,1.81,1.18,2.73,1.75,1.71,1.05,2.58,1.56,1.88,1.1,2.83,1.63,1.75,1,2.64,1.44,1.94,1,2.93,1.5,1.79,0.89,2.7,1.32,2,0.92,3,1.37,1.83,0.8,2.75,1.18,2.08,0.84,3.13,1.24,1.85,0.71,2.78,1,2.16,0.75,3.24,1.1c0.93,0.3,1.86.62,2.8,0.9,1.11,0.34,2.23.65,3.35,1,0.94,0.26,1.87.53,2.82,0.76,1.15,0.29,2.31.54,3.46,0.8,0.94,0.21,1.88.43,2.82,0.63,1.2,0.24,2.41.44,3.62,0.65,0.92,0.16,1.84.33,2.77,0.47,1.28,0.19,2.57.34,3.86,0.49,0.88,0.11,1.75.23,2.63,0.32,1.44,0.14,2.9.24,4.36,0.33,0.74,0.05,1.48.13,2.22,0.16q3.32,0.17,6.66.17t6.66-.17c0.75,0,1.48-.11,2.23-0.16,1.45-.1,2.91-0.19,4.35-0.33,0.88-.09,1.76-0.21,2.64-0.32,1.29-.16,2.57-0.3,3.85-0.49,0.94-.14,1.86-0.32,2.79-0.48,1.2-.21,2.41-0.41,3.6-0.64,1-.19,1.9-0.42,2.85-0.63,1.15-.26,2.3-0.51,3.44-0.79,1-.24,1.9-0.51,2.84-0.77,1.11-.3,2.23-0.61,3.32-0.95s1.89-.6,2.83-0.91,2.15-.71,3.21-1.09,1.88-.7,2.81-1.05,2.07-.8,3.09-1.22,1.86-.79,2.78-1.2,2-.89,3-1.35,1.83-.88,2.74-1.33,1.93-1,2.88-1.48,1.79-1,2.68-1.46,1.87-1.06,2.79-1.61,1.75-1,2.62-1.59,1.8-1.14,2.69-1.73,1.7-1.13,2.54-1.71,1.73-1.22,2.6-1.85,1.65-1.2,2.46-1.82,1.67-1.3,2.5-2,1.6-1.27,2.38-1.93,1.61-1.37,2.4-2.08,1.54-1.35,2.29-2,1.54-1.46,2.3-2.19,1.47-1.41,2.19-2.13,1.48-1.54,2.21-2.31,1.4-1.46,2.08-2.21,1.42-1.63,2.12-2.45,1.31-1.5,1.95-2.27,1.38-1.75,2.07-2.64,1.2-1.5,1.77-2.27c0.74-1,1.45-2,2.17-3C504.82,380.1,505.32,379.43,505.79,378.73Z" transform="translate(-151.68 -61.11)"/><path class="cls-2" d="M591.82,333.81l12.71-21.73L593.4,289.42l7.56-24-15.9-19.61,2-25.1-19.87-15.57-3.61-24.92-22.83-10.77-9.06-23.49L507,140.53,493,119.65l-25.24.21-18.36-17.23-24.56,5.82L403.08,95.73l-22.65,11.14-24-7.56-19.6,15.9-25.1-2-15.57,19.87-24.92,3.61L260.44,159.5l-23.49,9.07-5.41,24.66-20.89,14.07,0.21,25.24-17.23,18.36,5.82,24.56-12.72,21.74,11.14,22.65-7.56,24,15.9,19.61-2,25.1,19.87,15.57,3.61,24.92,22.83,10.76,9.07,23.49,24.66,5.41,14.07,20.88,25.24-.21,18.36,17.23,24.56-5.82,21.74,12.72,22.65-11.14,24,7.56,19.61-15.9,25.1,2,15.57-19.87,24.92-3.61,10.76-22.83,23.5-9.07L559.73,416,580.62,402l-0.21-25.24,17.23-18.36ZM395.63,486.08c-99.93,0-181.44-81.51-181.44-181.44S295.7,123.2,395.63,123.2,577.08,204.7,577.08,304.63,495.57,486.08,395.63,486.08Z" transform="translate(-151.68 -61.11)"/><path class="cls-1" d="M528.3,297.82h0v-0.16c0,0.12,0,.23,0,0.35C528.3,297.94,528.3,297.88,528.3,297.82Z" transform="translate(-151.68 -61.11)"/><path class="cls-1" d="M263,297.81h0s0,0.05,0,.08,0-.1,0-0.16S263,297.79,263,297.81Z" transform="translate(-151.68 -61.11)"/><path class="cls-1" d="M528.3,311.46s0,0,0,0,0-.12,0-0.18l0,0.36v-0.17Z" transform="translate(-151.68 -61.11)"/><path class="cls-1" d="M263,311.45h0s0,0.05,0,.07,0-.11,0-0.17S263,311.42,263,311.45Z" transform="translate(-151.68 -61.11)"/><polygon class="cls-2" points="254.14 291.7 247.7 279.34 266.43 243.4 256.92 243.4 247.69 261.1 247.69 200.42 273.21 200.42 273.21 190.92 247.69 190.92 247.69 160.05 238.19 160.05 238.19 190.92 212.67 190.92 212.67 200.42 238.19 200.42 238.19 261.1 228.97 243.4 219.45 243.4 238.18 279.34 231.74 291.7 206.57 243.4 197.06 243.4 228.66 304.06 231.74 304.06 234.81 304.06 238.19 297.58 238.19 329.76 247.69 329.76 247.69 297.58 251.06 304.06 257.22 304.06 288.82 243.4 279.31 243.4 254.14 291.7"/><path class="cls-2" d="M394.45,188L329.06,304.59,390.5,421.33h7.92l61.75-116.73Zm0.06,214.24-50.43-97.8H333.84l60.64-109.36,60.9,109.36H445.15Z" transform="translate(-151.68 -61.11)"/><text class="cls-3" transform="matrix(-0.58, -0.82, 0.82, -0.58, 134.26, 333.79)">V</text><text class="cls-3" transform="matrix(-0.5, -0.87, 0.87, -0.5, 123.23, 317.85)">I</text><text class="cls-3" transform="translate(119.22 311.52) rotate(-114.52)">R</text><text class="cls-3" transform="translate(111.31 294.83) rotate(-106.18)">G</text><text class="cls-3" transform="translate(105.32 273.03) rotate(-100.09)">I</text><text class="cls-3" transform="matrix(-0.07, -1, 1, -0.07, 103.53, 265.84)">N</text><text class="cls-3" transform="translate(102.28 242.84) rotate(-87.82)">I</text><text class="cls-3" transform="matrix(0.14, -0.99, 0.99, 0.14, 102.13, 235.4)">A</text><text class="cls-3" transform="translate(105.39 214.25) rotate(-76.41)"> </text><text class="cls-3" transform="translate(105.71 209.18) rotate(-69.59)">W</text><text class="cls-3" transform="translate(115.66 183.05) rotate(-60.9)">E</text><text class="cls-3" transform="translate(123.72 168.36) rotate(-54.06)">S</text><text class="cls-3" transform="translate(133.55 154.69) rotate(-47.39)">L</text><text class="cls-3" transform="translate(144.31 142.79) rotate(-40.69)">E</text><text class="cls-3" transform="translate(157 131.65) rotate(-33.68)">Y</text><text class="cls-3" transform="matrix(0.89, -0.45, 0.45, 0.89, 169.79, 122.69)">A</text><text class="cls-3" transform="translate(188.51 113) rotate(-17.85)">N</text><text class="cls-3" transform="translate(210.55 106.27) rotate(-11.88)"> </text><text class="cls-3" transform="translate(216.73 104.47) rotate(-5.99)">U</text><text class="cls-3" transform="translate(238.07 102) rotate(2.74)">N</text><text class="cls-3" transform="translate(260.19 103.33) rotate(8.5)">I</text><text class="cls-3" transform="translate(266.74 103.93) rotate(13.56)">V</text><text class="cls-3" transform="translate(285.4 108.4) rotate(20.83)">E</text><text class="cls-3" transform="matrix(0.88, 0.47, -0.47, 0.88, 301.12, 114.21)">R</text><text class="cls-3" transform="translate(317.45 122.83) rotate(35.19)">S</text><text class="cls-3" transform="translate(331.26 132.75) rotate(40.17)">I</text><text class="cls-3" transform="translate(337.17 137.38) rotate(45.15)">T</text><text class="cls-3" transform="translate(349.9 150.05) rotate(52.64)">Y</text><text class="cls-4" transform="matrix(0.61, 0.79, -0.79, 0.61, 113.54, 348.91)"> </text><text class="cls-4" transform="translate(118.49 355.38) rotate(49.65)"> </text><text class="cls-5" transform="translate(134.02 351.89) rotate(46.31)"> </text><text class="cls-5" transform="matrix(0.74, 0.67, -0.67, 0.74, 140.96, 359.19)"> </text><text class="cls-5" transform="translate(148.39 366.01) rotate(38.44)"> </text><text class="cls-5" transform="translate(156.27 372.3) rotate(34.46)"> </text><text class="cls-5" transform="matrix(0.86, 0.51, -0.51, 0.86, 164.58, 378.03)"> </text><text class="cls-5" transform="translate(173.25 383.17) rotate(26.48)"> </text><text class="cls-5" transform="translate(182.28 387.69) rotate(22.5)"> </text><text class="cls-4" transform="translate(187.53 405.4) rotate(16.7)">1</text><text class="cls-4" transform="translate(208.03 411.45) rotate(9.08)">9</text><text class="cls-4" transform="translate(231.28 414.91) rotate(0.73)">6</text><text class="cls-4" transform="translate(252.65 415.09) rotate(-6.87)">1</text><text class="cls-4" transform="matrix(0.98, -0.21, 0.21, 0.98, 273.09, 412.33)"> </text><text class="cls-4" transform="translate(281.08 410.61) rotate(-15.08)"> </text><circle class="cls-2" cx="331.52" cy="373.95" r="6.86"/><circle class="cls-2" cx="155.78" cy="373.44" r="6.86"/><text x="-151.68" y="-61.11"/></svg>
