<svg xmlns="http://www.w3.org/2000/svg" viewBox="0 0 132.5 114.61"><defs><style>.cls-1{fill:#fff;}.cls-2{fill:#35b4cf;}</style></defs><title>browser-with-arrow</title><g id="Layer_2" data-name="Layer 2"><g id="Icon_Set" data-name="Icon Set"><path class="cls-1" d="M97.54,87.32H0V0H105.21V79.66a1.5,1.5,0,0,1-3,0V3H3V84.32H97.54a1.5,1.5,0,0,1,0,3Z"/><path class="cls-1" d="M103.71,15.78H1.5a1.5,1.5,0,0,1,0-3H103.71a1.5,1.5,0,0,1,0,3Z"/><rect class="cls-2" x="11.08" y="24.61" width="82.1" height="16.11"/><path class="cls-1" d="M68.35,56H35.91a1.5,1.5,0,1,1,0-3H68.35a1.5,1.5,0,0,1,0,3Z"/><path class="cls-1" d="M68.35,66.61H35.91a1.5,1.5,0,0,1,0-3H68.35a1.5,1.5,0,0,1,0,3Z"/><path class="cls-1" d="M102.46,105.65H18.33V85.82a1.5,1.5,0,0,1,3,0v16.83h81.13a1.5,1.5,0,0,1,0,3Z"/><path class="cls-1" d="M122,86.07a1.5,1.5,0,0,1-1.5-1.5V21.33H103.71a1.5,1.5,0,0,1,0-3h19.83V84.57A1.5,1.5,0,0,1,122,86.07Z"/><path class="cls-1" d="M104.86,114.61a1.5,1.5,0,0,1-1.45-1.11L93.84,77.79A1.5,1.5,0,0,1,95.68,76l35.71,9.57a1.5,1.5,0,0,1,.67,2.51l-8.36,8.36a1.5,1.5,0,1,1-2.12-2.12l6.52-6.52L97.41,79.52l8.22,30.69,6.52-6.52a1.5,1.5,0,1,1,2.12,2.12l-8.36,8.36A1.5,1.5,0,0,1,104.86,114.61Z"/><path class="cls-1" d="M130.58,114.19a1.5,1.5,0,0,1-1.06-.44l-10.44-10.44a1.5,1.5,0,0,1,2.12-2.12l10.44,10.44a1.5,1.5,0,0,1-1.06,2.56Z"/></g></g></svg>