<svg xmlns="http://www.w3.org/2000/svg" viewBox="0 0 129.38 117.89"><defs><style>.cls-1{fill:#00a1c9;}.cls-2{fill:#344154;}</style></defs><title>certificate</title><g id="Layer_2" data-name="Layer 2"><g id="Icon_Set" data-name="Icon Set"><path class="cls-1" d="M67.18,66.13A11.22,11.22,0,1,1,51.31,82,13.61,13.61,0,1,0,67.18,66.13Z"/><path class="cls-2" d="M120.64,0H8.74A8.75,8.75,0,0,0,0,8.74V72.43a8.75,8.75,0,0,0,8.74,8.74h27.5a1.5,1.5,0,0,0,0-3H8.74A5.74,5.74,0,0,1,3,72.43V8.74A5.74,5.74,0,0,1,8.74,3H120.64a5.74,5.74,0,0,1,5.74,5.74v63.7a5.74,5.74,0,0,1-5.74,5.74H93.14a1.5,1.5,0,0,0,0,3h27.5a8.75,8.75,0,0,0,8.74-8.74V8.74A8.75,8.75,0,0,0,120.64,0Z"/><path class="cls-2" d="M86.81,79.51a22.12,22.12,0,1,0-43.68,5L26.31,101.3H42.9v16.59l16.83-16.83a22,22,0,0,0,9.93,0l16.83,16.83V101.3h16.59L86.24,84.48A22.1,22.1,0,0,0,86.81,79.51ZM45.9,110.65V98.3H33.55l10.6-10.59A22.24,22.24,0,0,0,56.5,100.06Zm-.33-31.14A19.12,19.12,0,1,1,64.69,98.64,19.14,19.14,0,0,1,45.57,79.51ZM95.83,98.3H83.48v12.35l-10.6-10.6A22.24,22.24,0,0,0,85.23,87.71Z"/><path class="cls-2" d="M42.95,56.37a1.5,1.5,0,1,0,2.12,2.12,27.75,27.75,0,0,1,39.24,0,1.5,1.5,0,1,0,2.12-2.12,30.75,30.75,0,0,0-43.49,0Z"/><path class="cls-2" d="M38.05,35.6H91.89a1.5,1.5,0,0,0,0-3H38.05a1.5,1.5,0,0,0,0,3Z"/><path class="cls-2" d="M102.83,21.53a1.5,1.5,0,0,0-1.5-1.5H28.52a1.5,1.5,0,0,0,0,3h72.81A1.5,1.5,0,0,0,102.83,21.53Z"/></g></g></svg>