<svg xmlns="http://www.w3.org/2000/svg" viewBox="0 0 129.45 128.73"><defs><style>.cls-1{fill:#344154;}.cls-2{fill:#00a1c9;}</style></defs><title>clock-and-bell</title><g id="Layer_2" data-name="Layer 2"><g id="Icon_Set" data-name="Icon Set"><path class="cls-1" d="M59.12,38V21.35a1.5,1.5,0,1,0-3,0v18h0V55.07a3,3,0,0,0-1.48,2.56,2.88,2.88,0,0,0,0,.35l-12.5,9.46h0L28.07,78.1a1.5,1.5,0,0,0,1.81,2.39l12.95-9.8A19.74,19.74,0,1,0,59.12,38Zm-1.5,36.42a16.59,16.59,0,0,1-12.38-5.5l11.24-8.5a3,3,0,0,0,2.65-5.3V41a16.74,16.74,0,0,1-1.5,33.42Z"/><path class="cls-1" d="M26.75,65.82l.32,0a1.53,1.53,0,1,0-.32,0Z"/><path class="cls-1" d="M27.79,47.11A1.5,1.5,0,0,0,26.93,50a1.3,1.3,0,0,0,.43.07A1.5,1.5,0,0,0,28.8,49h0A1.5,1.5,0,0,0,27.79,47.11Z"/><path class="cls-1" d="M24.57,56.33h0A1.5,1.5,0,0,0,26,57.89h.06a1.5,1.5,0,0,0,.06-3A1.48,1.48,0,0,0,24.57,56.33Z"/><path class="cls-1" d="M30.59,42.78a1.48,1.48,0,0,0,1.28-.73,1.5,1.5,0,1,0-2.06.51A1.46,1.46,0,0,0,30.59,42.78Z"/><path class="cls-1" d="M49.22,28.67a1.75,1.75,0,0,0,.39,0h0a1.47,1.47,0,1,0-.39.06Z"/><path class="cls-1" d="M36.58,36.12a1.51,1.51,0,1,0-1,.42A1.51,1.51,0,0,0,36.58,36.12Z"/><path class="cls-1" d="M41.88,31.74a1.53,1.53,0,0,0,.74-.2,1.5,1.5,0,1,0-2-.55A1.49,1.49,0,0,0,41.88,31.74Z"/><path class="cls-1" d="M113.52,43.58a57.63,57.63,0,1,0-55.9,71.67,1.5,1.5,0,0,0,1.5-1.5v-7.59a1.5,1.5,0,0,0-3,0v6.06A54.67,54.67,0,0,1,3,59.12H9.09a1.5,1.5,0,1,0,0-3H3A54.67,54.67,0,0,1,56.12,3V9.09a1.5,1.5,0,1,0,3,0V3a54.51,54.51,0,0,1,51.49,41.28,1.5,1.5,0,1,0,2.91-.73Z"/><g id="_Group_" data-name="&lt;Group&gt;"><path class="cls-1" d="M100.35,128.73a10.09,10.09,0,0,1-10.08-10.08,1.5,1.5,0,0,1,3,0,7.08,7.08,0,1,0,14.17,0,1.5,1.5,0,0,1,3,0A10.09,10.09,0,0,1,100.35,128.73Z"/></g><g id="_Group_2" data-name="&lt;Group&gt;"><path class="cls-1" d="M126.24,114.76H74.46A3.2,3.2,0,0,1,71.65,110a88.91,88.91,0,0,0,5.42-11.72,41.58,41.58,0,0,0,2.68-15.56V75.57A20.57,20.57,0,0,1,94.13,55.93V54.56a6.38,6.38,0,0,1,5.61-6.39,6.22,6.22,0,0,1,6.82,6.19v1.58a20.57,20.57,0,0,1,14.38,19.64v7.16a41.58,41.58,0,0,0,2.68,15.56A89,89,0,0,0,129,110a3.2,3.2,0,0,1-2.81,4.75ZM100.35,51.14l-.32,0a3.35,3.35,0,0,0-2.9,3.4v3.67L96,58.52A17.58,17.58,0,0,0,82.75,75.57v7.16a44.4,44.4,0,0,1-2.87,16.6,92.05,92.05,0,0,1-5.61,12.13.18.18,0,0,0,0,.2.19.19,0,0,0,.18.1h51.78a.2.2,0,0,0,.18-.1.18.18,0,0,0,0-.19,92.09,92.09,0,0,1-5.61-12.13,44.4,44.4,0,0,1-2.87-16.6V75.57a17.58,17.58,0,0,0-13.25-17.05l-1.13-.29V54.36A3.22,3.22,0,0,0,102.51,52,3.18,3.18,0,0,0,100.35,51.14Z"/></g><path class="cls-2" d="M114.41,93.25a53,53,0,0,1-1-10.53V75.57q0-.45,0-.89a13,13,0,0,0-13.06-11.8h0a13,13,0,0,0-13.06,11.8q0,.44,0,.89v2C92.93,78.37,104.47,81.53,114.41,93.25Z"/></g></g></svg>