<svg xmlns="http://www.w3.org/2000/svg" viewBox="0 0 128.55 118.69"><defs><style>.cls-1{fill:#344154;}.cls-2{fill:#00a1c9;}</style></defs><title>group-at-desk</title><g id="Layer_2" data-name="Layer 2"><g id="Icon_Set" data-name="Icon Set"><path class="cls-1" d="M64.27,23.93c5.53,0,10-5.37,10-12s-4.5-12-10-12-10,5.37-10,12S58.75,23.93,64.27,23.93ZM64.27,3c3.87,0,7,4,7,9s-3.15,9-7,9-7-4-7-9S60.4,3,64.27,3Z"/><path class="cls-1" d="M102.42,27.89c4.4,0,8-4.25,8-9.46S106.83,9,102.42,9s-8,4.25-8,9.46S98,27.89,102.42,27.89Zm0-15.93c2.75,0,5,2.9,5,6.46s-2.24,6.46-5,6.46-5-2.9-5-6.46S99.67,12,102.42,12Z"/><path class="cls-1" d="M121.62,59.44c-.1-1.65-.32-4.81-.67-9.87-.25-3.66-.52-7.54-.72-10.54a8.8,8.8,0,0,0-5.65-7.62l-5.52-2.09h0a1.5,1.5,0,0,0-1.4.18,9.11,9.11,0,0,1-10.49,0,1.5,1.5,0,0,0-1.4-.18h0l-8.86,3.36L73.24,23.72l-9,7.75-9-7.75L41.63,32.67l-8.85-3.36a1.5,1.5,0,0,0-1.4.18,9.11,9.11,0,0,1-10.49,0l-.19-.12h0a1.49,1.49,0,0,0-1.2-.06h0L14,31.4A8.81,8.81,0,0,0,8.31,39c-.2,3-.47,7-.73,10.67-.35,5.07-.56,8.14-.66,9.75A8.35,8.35,0,0,0,0,67.65v51H16.74a8,8,0,0,0,8-8v-9.47A7.22,7.22,0,0,1,31.92,94H96.63a7.22,7.22,0,0,1,7.21,7.21v9.47a8,8,0,0,0,8,8h16.74v-51A8.35,8.35,0,0,0,121.62,59.44ZM11.31,39.22a5.8,5.8,0,0,1,3.72-5l4.81-1.82a12.1,12.1,0,0,0,12.58,0l7.89,3c-.43,4.57-1.73,18.7-1.73,19.84a1.5,1.5,0,0,0,1.5,1.5h0a1.5,1.5,0,0,0,1.5-1.5c0-.89,1-12.23,1.76-20.08l11.72-7.66,6.93,6-6,5.19,1.17,1.14a9.56,9.56,0,0,1,1.6,11.66l-1.75,3A1.5,1.5,0,1,0,59.59,56l1.75-3a12.55,12.55,0,0,0-1-14.11l3.94-3.41,3.94,3.41A12.56,12.56,0,0,0,67.2,53L69,56a1.5,1.5,0,0,0,2.6-1.51l-1.75-3a9.56,9.56,0,0,1,1.6-11.66l1.17-1.14-6-5.19,6.93-6,11.72,7.66C85.94,43,87,54.33,87,55.22a1.5,1.5,0,0,0,3,0c0-1.14-1.3-15.27-1.73-19.84l7.89-3a12.1,12.1,0,0,0,12.58,0l4.81,1.82a5.79,5.79,0,0,1,3.72,5c.2,3,.47,6.89.72,10.55s.52,7.49.65,9.54H9.94c.13-2,.39-5.76.64-9.41S11.11,42.25,11.31,39.22Zm114.24,76.47H111.81a5,5,0,0,1-5-5v-9.47A10.22,10.22,0,0,0,96.63,91H31.92a10.22,10.22,0,0,0-10.21,10.21v9.47a5,5,0,0,1-5,5H3v-48A5.35,5.35,0,0,1,8.35,62.3H120.2a5.35,5.35,0,0,1,5.35,5.35Z"/><path class="cls-1" d="M102.42,49.29a1.5,1.5,0,0,0,1.5-1.5V38.33a1.5,1.5,0,0,0-3,0v9.47A1.5,1.5,0,0,0,102.42,49.29Z"/><path class="cls-1" d="M26.13,27.89c4.4,0,8-4.25,8-9.46S30.53,9,26.13,9s-8,4.25-8,9.46S21.72,27.89,26.13,27.89Zm0-15.93c2.75,0,5,2.9,5,6.46s-2.24,6.46-5,6.46-5-2.9-5-6.46S23.38,12,26.13,12Z"/><path class="cls-1" d="M26.13,49.29a1.5,1.5,0,0,0,1.5-1.5V38.33a1.5,1.5,0,0,0-3,0v9.47A1.5,1.5,0,0,0,26.13,49.29Z"/><path class="cls-2" d="M121.22,67.65a1,1,0,0,0-1-1H57.46c3.68,2.21,6.25,7.56,6.63,9.2a320.11,320.11,0,0,1,57.13,5.08Z"/></g></g></svg>