<svg xmlns="http://www.w3.org/2000/svg" viewBox="0 0 106.52 134.38"><defs><style>.cls-1{fill:#344154;}.cls-2{fill:#00a1c9;}</style></defs><title>man-with-tie</title><g id="Layer_2" data-name="Layer 2"><g id="Icon_Set" data-name="Icon Set"><path class="cls-1" d="M59.55,85.48,62,83.06a1.5,1.5,0,1,0-2.1-2.14l-2.47,2.41a6,6,0,0,1-8.4,0l-2.47-2.42a1.5,1.5,0,0,0-2.1,2.14L47,85.48a8.88,8.88,0,0,0,.82.7L39.1,118.93l14.16,15.45,14.16-15.45L58.73,86.18A8.82,8.82,0,0,0,59.55,85.48Zm4.54,32.63L53.26,129.94,42.42,118.11,50.51,87.6a9,9,0,0,0,5.5,0Z"/><path class="cls-1" d="M102.21,91.14A21.33,21.33,0,0,0,94.9,78.92a17.5,17.5,0,0,0-7.19-3.77l-17.17-5a2.24,2.24,0,0,1-1.6-1.89l-.7-6a30.94,30.94,0,0,0,9.68-15.18c3.33-.92,5.72-4.7,5.72-9.28,0-4.09-1.89-7.56-4.72-8.91,0-3.52-.67-14.52-7.74-22-4.4-4.62-10.43-7-17.93-7S39.72,2.34,35.31,7c-7.15,7.47-7.83,18.55-7.86,22-2.74,1.4-4.57,4.84-4.57,8.84,0,4.58,2.39,8.35,5.71,9.28a31.06,31.06,0,0,0,9.69,15.18l-.69,6A2.24,2.24,0,0,1,36,70.15L19,75.1a17.66,17.66,0,0,0-7.34,3.82A21.26,21.26,0,0,0,4.31,91.14L0,112.71l28.64,5.93a1.5,1.5,0,1,0,.61-2.94L3.53,110.37,7.25,91.72a18.26,18.26,0,0,1,6.28-10.49A14.83,14.83,0,0,1,19.7,78l17.11-5a5.23,5.23,0,0,0,3.47-3.26l12,10.72a1.5,1.5,0,0,0,2,0l12-10.72A5.23,5.23,0,0,0,69.7,73L87,78a14.66,14.66,0,0,1,6,3.18,18.32,18.32,0,0,1,6.28,10.5L103,110.37,77.26,115.7a1.5,1.5,0,1,0,.61,2.94l28.65-5.93ZM72.7,29.52a2.78,2.78,0,0,0-2.66-2H59.09a2.78,2.78,0,0,0-2.78,2.78v.4H50.2v-.4a2.78,2.78,0,0,0-2.78-2.78h-11a2.78,2.78,0,0,0-2.66,2l-3.32-1.48a38.05,38.05,0,0,1,1.71-9.74,7.68,7.68,0,0,1,4.18-3.52c2.54-.92,5.75-.51,9.57,1.23,1,.46,2,.94,3,1.41,3.67,1.78,7.46,3.63,12,4.13a34.25,34.25,0,0,0,3.75.21,25.08,25.08,0,0,0,10-2,38.56,38.56,0,0,1,1.22,8.26Zm-13.39,1H69.82v5.66H59.31ZM36.69,31.83h0V30.51H47.2v5.66H36.69ZM37.49,9c3.83-4,9.13-6,15.77-6S65.19,5,69,9a22.91,22.91,0,0,1,4.76,7.89,23.66,23.66,0,0,1-12.53,1.67c-4-.44-7.43-2.1-11-3.84-1-.48-2-1-3-1.44-4.55-2.08-8.54-2.52-11.84-1.32l-.26.11A20.4,20.4,0,0,1,37.49,9ZM53.26,77.37,40.83,66.25,41.44,61l-.67-.52a28,28,0,0,1-9.55-15l-.27-1-1-.1c-2.27-.21-4-3.06-4-6.49,0-3.12,1.47-5.81,3.5-6.39l.12,0,.14-.05.14-.08.1-.07.09-.08,3.73,1.66v3.62a2.79,2.79,0,0,0,2.78,2.78h11a2.79,2.79,0,0,0,2.78-2.78V33.69h6.11v2.69a2.78,2.78,0,0,0,2.78,2.78H70a2.78,2.78,0,0,0,2.78-2.78V32.76l3.63-1.66a1.49,1.49,0,0,0,.51.28l.07,0h0c2.08.52,3.6,3.22,3.6,6.42,0,3.44-1.78,6.29-4.05,6.49l-1.05.09-.27,1a27.9,27.9,0,0,1-9.54,15l-.67.52.61,5.27Z"/><path class="cls-1" d="M93,97.29a1.5,1.5,0,0,0-1.75-1.2l-15.85,3a1.5,1.5,0,0,0,.28,3l.28,0,15.85-3A1.5,1.5,0,0,0,93,97.29Z"/><path class="cls-2" d="M47.68,116.82l5.58,6.09,5.58-6.09-2.66-10a33.58,33.58,0,0,1-6.64,3.05Z"/></g></g></svg>