<svg xmlns="http://www.w3.org/2000/svg" viewBox="0 0 144 144"><defs><style>.cls-1{fill:#fff;}.cls-2{fill:#f7d924;}</style></defs><title>princeton-review-2016</title><g id="Layer_2" data-name="Layer 2"><g id="Layer_1-2" data-name="Layer 1"><path class="cls-1" d="M144,72A72,72,0,1,1,72,0a72,72,0,0,1,72,72"/><path class="cls-2" d="M47,48.81h6.15c1.39,8.36,5.34,15.44,9,21.06C51,67.16,47.87,54.06,47,48.81m44.23,0h6.15c-.83,5.25-4,18.35-15.12,21.06,3.62-5.62,7.58-12.7,9-21.06M54.62,40.87a2,2,0,0,0-2,2c0,.74,0,1.28.07,2h-7.9a2,2,0,0,0-2,2.12c.71,9.24,6.29,26.37,22.19,27.28,2.2,3.26,4.23,6.55,4.23,9.21,0,8.15-11.1,13.46-11.21,13.49-1,.23-1.61.6-1.5,1.6s.95,1,1.94,1H86c1.08,0,2-.11,2-1.2s-.73-1.27-1.68-1.4C85,96.58,75.17,91.17,75.17,83.45c0-2.66,2-6,4.23-9.21,15.91-.91,21.49-18,22.2-27.28a2,2,0,0,0-.51-1.49,2,2,0,0,0-1.44-.63H91.74c0-.73.08-1.26.08-2a2,2,0,0,0-2-2Z"/><path class="cls-2" d="M0,72.45H23.66C23.89,45.62,45.44,23.94,72,23.94s48.11,21.68,48.34,48.51H144C143.77,32.4,111.63,0,72,0S.24,32.4,0,72.45"/><path class="cls-2" d="M120.34,71.55c-.23,26.83-21.78,48.51-48.34,48.51S23.89,98.38,23.66,71.55H0C.24,111.6,32.38,144,72,144s71.77-32.4,72-72.45Z"/><path class="cls-1" d="M122.08,73.35a50.87,50.87,0,0,1-14.78,33.79,49.93,49.93,0,0,1-15.88,10.77,49.75,49.75,0,0,1-38.83,0A50,50,0,0,1,36.7,107.15,50.91,50.91,0,0,1,21.92,73.35H1.81a71.27,71.27,0,0,0,20.67,48.16,70,70,0,0,0,22.28,15.14,69.7,69.7,0,0,0,54.49,0,70,70,0,0,0,22.27-15.14,71.29,71.29,0,0,0,20.67-48.16Z"/><path class="cls-1" d="M8.15,65.42l2,.4.59-3,7.8,1.56.42-2.18-7.8-1.55.59-3-2-.4Zm115.92-8.85.46,1.88,6.88.63-5.8,3.8.46,1.88,10.58.9-.55-2.25L129,63l6.05-3.85-.45-1.85-7.12-.55,6.06-3.68L133,50.78ZM12.35,49.44l3.71,1.38-1.4,3.85L11,53.29l-.76,2.09,9.37,3.49.76-2.09-3.76-1.4L18,51.53l3.76,1.4.76-2.09-9.37-3.49Zm107.39-2.84,3.3,6.93,1.76-.86-2.35-4.94,1.89-.92,2,4.29,1.76-.86-2-4.29,1.82-.89,2.32,4.87,1.76-.86-3.27-6.86Zm-1.81-2.79,1.16,1.89,8.48-5.32-1.16-1.89ZM14.29,45,23,50l3.72-6.71-1.7-1L22.35,47.1l-1.83-1,2.3-4.15-1.7-1-2.3,4.15-1.77-1,2.62-4.72-1.7-1Zm100-6.21,1.21,1.54,10.38-3.12-1.47-1.88-7.13,2.35,3.89-6.49-1.51-1.92Zm-90.2-5.37,1.11-1.3c.72-.84,1.56-1,2.31-.36l0,0a1.58,1.58,0,0,1,0,2.33l-1.14,1.33Zm-.27-2.75-2.67,3.12,7.55,6.61,1.44-1.68-2.27-2,1.09-1.28c1.46-1.71,1.73-3.88,0-5.41l0,0a3.34,3.34,0,0,0-2.21-.89,3.87,3.87,0,0,0-2.9,1.53m82.52,0,5.61,5.18,1.32-1.46-4-3.7,1.41-1.57,3.47,3.21,1.32-1.46L112,27.7l1.36-1.51,3.95,3.65,1.32-1.46L113,23.23Zm-75.76-4,1.67-1.42c.82-.7,1.63-.75,2.24,0l0,0a1.48,1.48,0,0,1-.37,2.19l-1.7,1.45Zm.53-3.08-3.49,3L34,34.32l1.68-1.43-2.06-2.47L35,29.28l3.69,1.08,2-1.68-4.16-1.17a3.17,3.17,0,0,0-.36-3.79l0,0A3.13,3.13,0,0,0,34,22.5h-.25a4.11,4.11,0,0,0-2.63,1.13m4.39-3.39L41,28.63l1.83-1.23L37.31,19Zm70,3.54-1.86-1.24,1.58-2.42L107,21.32c.89.6,1.17,1.37.66,2.17l0,0a1.28,1.28,0,0,1-1.1.63,2,2,0,0,1-1.08-.37M99,25.64l1.83,1.22,1.76-2.7,1.44,1L104,29l2.14,1.43-.07-4.37a3.08,3.08,0,0,0,3.49-1.42l0,0a3.19,3.19,0,0,0,.54-2.4,4,4,0,0,0-1.87-2.48l-3.81-2.54Zm-53.83-11,2.77,5.55L41,16.73l-1.81.92,4.5,9,1.94-1L42.73,20l7.17,3.53,1.67-.85-4.5-9Zm42.12,6,2,.78,2.24-6,2.28,7.74,1.75.67,3.52-9.45-2-.78L94.88,19.4l-2.2-7.49-1.89-.73ZM54.15,11a5.15,5.15,0,0,0-3.48,6.53v0a5,5,0,0,0,6.39,3.47,5.12,5.12,0,0,0,3.4-2.93l-1.75-1a3.62,3.62,0,0,1-2.17,1.9,3,3,0,0,1-3.68-2.19v0A3,3,0,0,1,54.72,13a3.65,3.65,0,0,1,2.77.34l.87-2A5,5,0,0,0,56,10.74a6.18,6.18,0,0,0-1.82.3m27.73,6.63A3.07,3.07,0,0,1,79.44,14v0a3,3,0,0,1,3.48-2.58,3.07,3.07,0,0,1,2.44,3.65v0a3,3,0,0,1-2.94,2.63,3.23,3.23,0,0,1-.55,0m-4.7-4.05v0a5.31,5.31,0,0,0,10.45,1.81v0a5.17,5.17,0,0,0-4.33-6,5.83,5.83,0,0,0-1-.09,5.13,5.13,0,0,0-5.12,4.31M59.91,9.67l1.36,10,7.53-1.05-.27-2-5.37.75-.29-2.1,4.66-.65-.27-2-4.66.65-.28-2,5.3-.74-.27-2Zm8.79.94,3,0-.08,8.05,2.2,0,.07-8.05,3,0,0-2-8.27-.08Z"/><path class="cls-2" d="M59.12,112.67l2.54-2.08c.95-.79,1.32-1.2,1.32-1.83a.94.94,0,0,0-1-1c-.59,0-1,.33-1.56,1l-1.18-.95a3.18,3.18,0,0,1,2.84-1.58,2.35,2.35,0,0,1,2.63,2.35v0c0,1.28-.65,1.91-2,3l-1.24,1h3.32V114H59.12Z"/><path class="cls-2" d="M66,110.2v0c0-2.21,1.37-3.95,3.4-3.95s3.38,1.71,3.38,3.92v0c0,2.21-1.36,3.94-3.4,3.94S66,112.42,66,110.2m5.06,0v0c0-1.39-.68-2.43-1.68-2.43s-1.66,1-1.66,2.41v0c0,1.4.66,2.43,1.68,2.43s1.66-1,1.66-2.41"/><polygon class="cls-2" points="75.23 108.01 73.9 108.34 73.55 106.97 75.74 106.31 76.88 106.31 76.88 114 75.23 114 75.23 108.01"/><path class="cls-2" d="M79.38,113.31a3.77,3.77,0,0,1-.9-2.89v0c0-2.35,1.07-4.16,3.35-4.16a3.53,3.53,0,0,1,2.39.84l-.88,1.3a2.35,2.35,0,0,0-1.56-.61c-1.14,0-1.48,1.1-1.54,1.77a2.67,2.67,0,0,1,1.58-.49,2.4,2.4,0,0,1,2.68,2.43v0a2.69,2.69,0,0,1-2.91,2.64,2.9,2.9,0,0,1-2.2-.82m3.44-1.74v0c0-.64-.5-1.11-1.33-1.11s-1.31.46-1.31,1.1v0a1.18,1.18,0,0,0,1.33,1.13c.83,0,1.31-.47,1.31-1.12"/><path class="cls-2" d="M24,102.56l-6.55,4-1.2-2,6.55-4-1.06-1.73,1.7-1,3.22,5.28-1.54,1.3Z"/><path class="cls-2" d="M22.08,112.94l3.15-2.5L24,108.89l-3.15,2.5-1.43-1.81,7.57-6,1.43,1.81-2.8,2.22,1.23,1.56,2.8-2.22,1.44,1.81-7.57,6Z"/><path class="cls-2" d="M24.83,116.15l6.81-6.85,3.62,3.59-1.33,1.34-2-2-1.26,1.27,1.44,1.43L31,116.54l-1.68-1.67-1.52,1.53,2.09,2.07-1.33,1.34Z"/><path class="cls-2" d="M33.7,124.23a5.49,5.49,0,0,1-1.79-2.2l1.32-1.27a4.2,4.2,0,0,0,1.26,1.74,1.12,1.12,0,0,0,1.72-.23c.5-.68.27-1.34-.61-2l-.32-.23.83-1.63.52.38c.84.61,1.45.6,1.89,0a.88.88,0,0,0-.25-1.34,3.55,3.55,0,0,0-2-.59l.83-1.6a4.87,4.87,0,0,1,2.71,1c1.38,1,1.69,2.37.78,3.6a2.32,2.32,0,0,1-2.58,1,2.3,2.3,0,0,1-.06,2.89C36.78,125.26,35.2,125.33,33.7,124.23Z"/><path class="cls-2" d="M40.11,128.4c-1.89-1.07-2.23-2.56-1.43-4A2.89,2.89,0,0,1,41.12,123a2.42,2.42,0,0,1,.06-2.46c.77-1.35,2.26-1.74,3.93-.79s2.08,2.28,1.33,3.59a2.66,2.66,0,0,1-2.21,1.37,2.63,2.63,0,0,1,.07,2.87C43.5,129,41.91,129.42,40.11,128.4ZM42,124.28a2.38,2.38,0,0,0-1.43,1.09,1.15,1.15,0,0,0,.37,1.71,1.06,1.06,0,0,0,1.53-.48C42.83,125.94,42.66,125.25,42,124.28Zm1.35-.92a2,2,0,0,0,1.26-.91,1,1,0,0,0-.28-1.45.91.91,0,0,0-1.3.44C42.7,122,42.73,122.47,43.33,123.36Z"/><path class="cls-2" d="M47.56,132c-2.14-.88-2.55-3.08-1.36-6s3-4.17,5.17-3.3,2.55,3.08,1.36,6S49.69,132.91,47.56,132Zm3.15-7.66c-.8-.33-1.56.52-2.39,2.54s-.89,3.16-.09,3.49,1.56-.52,2.39-2.54S51.51,124.71,50.7,124.38Z"/><path class="cls-2" d="M57.79,135.09l-2.54-.57,2.12-9.42,2.57.58c2.06.46,2.93,1.56,2.59,3.08a2.19,2.19,0,0,1-1.74,1.73,2.33,2.33,0,0,1,1,2.65C61.4,135,59.79,135.54,57.79,135.09Zm.87-4.14-.4-.09-.56,2.49.44.1c.91.21,1.48-.14,1.66-.92S59.63,131.17,58.66,131Zm.88-3.65-.45-.1-.48,2.14.45.1a1,1,0,0,0,1.4-.82C60.6,128,60.4,127.5,59.54,127.31Z"/><path class="cls-2" d="M62.65,136.05l1.05-9.6,5.07.55-.21,1.88-2.81-.31-.2,1.78,2,.22.12,2-2.35-.26-.24,2.14,2.92.32-.21,1.88Z"/><path class="cls-2" d="M71.84,136.83a6.53,6.53,0,0,1-2.82-.66l.34-2a5,5,0,0,0,2.28.74c.6,0,.94-.28,1-.74s-.34-.9-1.37-1.6a3.48,3.48,0,0,1-2-2.93A2.66,2.66,0,0,1,72.19,127a5.23,5.23,0,0,1,2.31.51l-.34,2a3.49,3.49,0,0,0-1.82-.6.7.7,0,0,0-.78.66c0,.46.32.78,1.31,1.42a3.67,3.67,0,0,1,2,3.13A2.73,2.73,0,0,1,71.84,136.83Z"/><path class="cls-2" d="M79.24,128.64l.77,7.63-2.3.23-.77-7.63-2,.2-.2-2,6.16-.62.51,1.95Z"/><path class="cls-2" d="M89.65,134.52c-2.4.63-4.06-.84-4.85-3.86s0-5.16,2.26-5.76a4,4,0,0,1,2.22,0l.21,2a2.47,2.47,0,0,0-1.65-.17c-1,.26-1.26,1.42-.75,3.35s1.33,2.8,2.48,2.5a2.8,2.8,0,0,0,1.33-1l.78,1.76A4.63,4.63,0,0,1,89.65,134.52Z"/><path class="cls-2" d="M96.24,132.33c-2.28.91-4.14-.45-5.27-3.29s-.69-5.14,1.59-6,4.13.45,5.26,3.29S98.5,131.43,96.24,132.33Zm-3-7.61c-.91.36-.8,1.6-.07,3.43s1.51,2.81,2.41,2.45.78-1.61.05-3.43S94.1,124.38,93.23,124.73Z"/><path class="cls-2" d="M101.09,130l-4.59-8.5,2-1.1,3.62,6.7,2-1.08,1.27,1.64Z"/><path class="cls-2" d="M106.47,127l-5.37-8L103,117.7l4.23,6.33,1.88-1.26,1.42,1.51Z"/><path class="cls-2" d="M111.57,123.51l-6.14-7.45,3.93-3.24,1.2,1.46-2.18,1.8,1.14,1.38,1.57-1.29,1.49,1.28-1.83,1.5,1.37,1.66,2.27-1.87,1.2,1.46Z"/><path class="cls-2" d="M119.26,116.81c-1.75,1.81-4,1.4-6.2-.77s-2.73-4.41-.83-6.38a5.08,5.08,0,0,1,2.13-1.36l1.24,1.64a3.75,3.75,0,0,0-2,1c-.81.84-.4,2,1,3.42s2.59,1.87,3.36,1.08a1.67,1.67,0,0,0,.42-.68l-1.41-1.36-.68.71-1.43-1,2.31-2.4,3.51,3.39A5.91,5.91,0,0,1,119.26,116.81Z"/><path class="cls-2" d="M122.38,113.1l-7.69-5.85,3.09-4.05,1.5,1.15-1.71,2.25,1.43,1.09,1.23-1.62,1.74.9-1.43,1.88,1.71,1.31,1.78-2.34,1.5,1.14Z"/><path class="cls-2" d="M127.81,105.57a6.53,6.53,0,0,1-2,2.1l-1.52-1.28a5,5,0,0,0,1.79-1.6c.31-.51.24-1-.16-1.19s-.95-.17-2.08.38a3.49,3.49,0,0,1-3.52.22,2.66,2.66,0,0,1-.87-3.9,5.24,5.24,0,0,1,1.61-1.74l1.53,1.29a3.49,3.49,0,0,0-1.44,1.27.7.7,0,0,0,.17,1c.4.24.83.11,1.89-.41a3.67,3.67,0,0,1,3.73-.19A2.73,2.73,0,0,1,127.81,105.57Z"/></g></g></svg>