<svg xmlns="http://www.w3.org/2000/svg" viewBox="0 0 112.84 127.45"><defs><style>.cls-1{fill:#00a1c9;}.cls-2{fill:#344154;}</style></defs><title>tablet-with-hand</title><g id="Layer_2" data-name="Layer 2"><g id="Icon_Set" data-name="Icon Set"><g id="_Group_" data-name="&lt;Group&gt;"><rect class="cls-1" x="11.72" y="26.63" width="12.76" height="12.76" rx="3.23" ry="3.23"/></g><g id="_Group_2" data-name="&lt;Group&gt;"><rect class="cls-1" x="31.51" y="26.63" width="12.76" height="12.76" rx="3.23" ry="3.23"/></g><g id="_Group_3" data-name="&lt;Group&gt;"><rect class="cls-1" x="51.29" y="26.63" width="12.76" height="12.76" rx="3.23" ry="3.23"/></g><g id="_Group_4" data-name="&lt;Group&gt;"><rect class="cls-1" x="11.72" y="47.27" width="12.76" height="12.76" rx="3.23" ry="3.23"/></g><g id="_Group_5" data-name="&lt;Group&gt;"><rect class="cls-1" x="31.51" y="47.27" width="12.76" height="12.76" rx="3.23" ry="3.23"/></g><g id="_Group_6" data-name="&lt;Group&gt;"><rect class="cls-1" x="11.72" y="67.91" width="12.76" height="12.76" rx="3.23" ry="3.23"/></g><g id="_Group_7" data-name="&lt;Group&gt;"><rect class="cls-1" x="31.51" y="67.91" width="12.76" height="12.76" rx="3.23" ry="3.23"/></g><path class="cls-2" d="M42.37,10.42H54.13a1.5,1.5,0,1,0,0-3H42.37a1.5,1.5,0,1,0,0,3Z"/><path class="cls-2" d="M55,124.45H8.89A5.9,5.9,0,0,1,3,118.56v-5.95H54.13a1.5,1.5,0,1,0,0-3H3V17.84H93.5V44a1.5,1.5,0,1,0,3,0V8.89A8.9,8.9,0,0,0,87.61,0H8.89A8.9,8.9,0,0,0,0,8.89V118.56a8.9,8.9,0,0,0,8.89,8.89H55a1.5,1.5,0,1,0,0-3ZM8.89,3H87.61A5.9,5.9,0,0,1,93.5,8.89v5.95H3V8.89A5.9,5.9,0,0,1,8.89,3Z"/><path class="cls-2" d="M54.13,117H42.37a1.5,1.5,0,0,0,0,3H54.13a1.5,1.5,0,0,0,0-3Z"/><path class="cls-2" d="M112.84,65.22a6.33,6.33,0,0,0-6.32-6.32h-3.33a6.32,6.32,0,0,0-6.31-6.16H92.93a6.32,6.32,0,0,0-5.7-3.6H83.91V37.83a6.32,6.32,0,0,0-12.64,0V65.45l-.43-1.11a7.22,7.22,0,0,0-14,2.59,33.53,33.53,0,0,0,4.7,17.22A38.31,38.31,0,0,0,65.87,90C71.43,96.25,73,104.81,73,104.89a1.5,1.5,0,0,0,1.48,1.24l.26,0A1.5,1.5,0,0,0,76,104.38C75.89,104,74.25,94.9,68.11,88a35.41,35.41,0,0,1-3.94-5.42,30.53,30.53,0,0,1-4.28-15.68A4.22,4.22,0,0,1,68,65.42l3.33,8.65a1.5,1.5,0,0,0,2.9-.54V37.83a3.32,3.32,0,0,1,6.64,0V63a1.5,1.5,0,0,0,3,0V52.14h3.32a3.33,3.33,0,0,1,3.32,3.32V66.56a1.5,1.5,0,0,0,3,0V55.74h3.32a3.33,3.33,0,0,1,3.32,3.32V70.74a1.5,1.5,0,0,0,3,0V61.9h3.32a3.33,3.33,0,0,1,3.32,3.32v7.2a1.53,1.53,0,0,0,0,.26,94.42,94.42,0,0,1-4.48,26.47c-.52,1.62-.89,3-1.12,4H84.71a1.5,1.5,0,0,0,0,3h20.71a1.5,1.5,0,0,0,1.47-1.21,48.11,48.11,0,0,1,1.29-4.85,97.32,97.32,0,0,0,4.61-27,1.49,1.49,0,0,0,0-.36Z"/><path class="cls-2" d="M108.08,109.61H70.7a1.5,1.5,0,0,0-1.5,1.5V126a1.5,1.5,0,0,0,1.5,1.5h37.39a1.5,1.5,0,0,0,1.5-1.5V111.11A1.5,1.5,0,0,0,108.08,109.61Zm-1.5,14.84H72.2V112.61h34.39Z"/><path class="cls-2" d="M99.77,121a2.42,2.42,0,1,0-2.42-2.42A2.43,2.43,0,0,0,99.77,121Zm0-3a.58.58,0,1,1-.58.58A.58.58,0,0,1,99.77,118Z"/></g></g></svg>