<svg data-name="Layer 1" xmlns="http://www.w3.org/2000/svg" viewBox="0 0 876.72 284.56"><defs><style>.cls-1{fill:#fff;}</style></defs><title>vwu-logo-horizontal</title><path class="cls-1" d="M76.87,241.89q28,44.1,83.65,68.53l2,0.86,0.06,0h0l2-.86c50.3-22,83.76-56.33,100-102.46C210.93,201.54,146.36,302.16,76.87,241.89Z" transform="translate(-28.01 -26.72)"/><path class="cls-1" d="M67.17,44.59H258.28V168.78q6.49,5.82,13.44,12.95a239.68,239.68,0,0,0,4.4-46.94s0-107.17,0-107.17H162.43v0H48.95s0,107.15,0,107.17a249.8,249.8,0,0,0,2.42,35.37,92,92,0,0,0,15.83,6.65V44.59Z" transform="translate(-28.01 -26.72)"/><rect class="cls-1" x="111.47" y="63.49" width="47.87" height="5.73"/><rect class="cls-1" x="120.64" y="56.71" width="29.01" height="3.71"/><rect class="cls-1" x="120.64" y="41.33" width="29.01" height="3.71"/><polygon class="cls-1" points="117.47 37.91 153.19 37.91 135.14 26.77 117.47 37.91"/><path class="cls-1" d="M28,161.65c35.23,71.28,68.42,69.54,103.47,52.21l5.08-40.76C108.34,188.69,76.08,198.42,28,161.65Z" transform="translate(-28.01 -26.72)"/><path class="cls-1" d="M254.62,174.83c-26.25-27.76-47-32.68-66.2-28.11l5.65,32.89C213.1,171.47,233.12,167.55,254.62,174.83Z" transform="translate(-28.01 -26.72)"/><path class="cls-1" d="M136.55,173.1l-5.08,40.76-1,8.08c-23.43,10.45-46.62,14-68.24-3.59,37.2,42.35,70.26,39.65,100.83,25.51V99.08h-17.3Z" transform="translate(-28.01 -26.72)"/><path class="cls-1" d="M195.35,187.06l-1.28-7.46-5.65-32.89-8.18-47.63h-5.07l5.45,50,3.81,35,4.93,45.29c37.5-21.2,67.71-44.13,104.29-12.9C262.35,167.9,228.94,171.4,195.35,187.06Z" transform="translate(-28.01 -26.72)"/><path class="cls-1" d="M368.81,79.63c4.74-10.94,15.67-39.43,17.47-45.31a11.66,11.66,0,0,0,.73-3.1A2,2,0,0,0,386,29.33a10.32,10.32,0,0,0-3.1-.33c-0.49,0-.9-0.08-0.9-0.49s0.49-.65,1.8-0.65c3.26,0,7,.24,8,0.24,0.49,0,4-.24,6.37-0.24,0.9,0,1.39.16,1.39,0.57s-0.33.57-1,.57a7.41,7.41,0,0,0-3.92,1c-1.06.74-2.29,2.12-4.49,7.67-0.9,2.29-5,12.08-9.14,22.13-5,11.92-8.65,20.74-10.53,24.74-2.29,4.9-2.61,6.2-3.43,6.2-1,0-1.39-1.14-2.94-5.06l-20-50c-1.79-4.57-3-5.47-5.88-6.29a12.7,12.7,0,0,0-3.1-.33,0.54,0.54,0,0,1-.65-0.57c0-.49.82-0.57,2.12-0.57,3.92,0,8.57.24,9.55,0.24,0.82,0,4.49-.24,7.59-0.24,1.47,0,2.21.16,2.21,0.57s-0.25.57-.82,0.57a9.53,9.53,0,0,0-3.1.41,1.64,1.64,0,0,0-1.06,1.63c0,1.06,1,3.59,2.2,6.78Z" transform="translate(-28.01 -26.72)"/><path class="cls-1" d="M436.5,65.91c0,7.84,0,14.29.41,17.72,0.24,2.37.74,4.16,3.18,4.49a36,36,0,0,0,3.67.33,0.53,0.53,0,0,1,.65.49c0,0.41-.41.65-1.31,0.65-4.49,0-9.63-.25-10-0.25s-5.55.25-8,.25c-0.9,0-1.31-.16-1.31-0.65a0.53,0.53,0,0,1,.65-0.49,12.73,12.73,0,0,0,2.45-.33c1.63-.33,2-2.12,2.37-4.49,0.41-3.43.41-9.88,0.41-17.72V51.54c0-12.74,0-15-.16-17.63-0.16-2.78-1-4.16-2.78-4.57a10.74,10.74,0,0,0-2.53-.33,0.57,0.57,0,0,1-.65-0.49c0-.49.41-0.65,1.3-0.65,2.7,0,7.84.24,8.25,0.24s5.55-.24,8-0.24c0.9,0,1.31.16,1.31,0.65a0.57,0.57,0,0,1-.65.49,12.26,12.26,0,0,0-2,.24c-2.2.41-2.86,1.8-3,4.65-0.16,2.61-.16,4.9-0.16,17.63V65.91Z" transform="translate(-28.01 -26.72)"/><path class="cls-1" d="M483.53,51.54c0-12.74,0-15-.16-17.63-0.16-2.78-.82-4.08-3.51-4.65a15.37,15.37,0,0,0-2.78-.24,0.57,0.57,0,0,1-.65-0.49c0-.49.41-0.65,1.31-0.65,3.67,0,8.82.24,9.22,0.24,0.9,0,7.1-.24,9.63-0.24,5.14,0,10.61.49,14.94,3.59a14.28,14.28,0,0,1,5.63,11.1c0,6-2.53,12.08-9.88,18.86,6.69,8.57,12.25,15.84,17,20.9,4.41,4.65,7.92,5.55,10,5.88a19.63,19.63,0,0,0,3.18.24,0.67,0.67,0,0,1,.74.49c0,0.49-.49.65-2,0.65h-5.8c-4.57,0-6.61-.41-8.73-1.55-3.51-1.88-6.37-5.88-11-12-3.43-4.49-7.26-10-8.9-12.08a1.32,1.32,0,0,0-1.06-.49l-10-.16a0.54,0.54,0,0,0-.57.65v2c0,7.84,0,14.29.41,17.72,0.25,2.37.74,4.16,3.18,4.49a35.93,35.93,0,0,0,3.67.33,0.53,0.53,0,0,1,.65.49c0,0.41-.41.65-1.31,0.65-4.49,0-9.63-.25-10-0.25-0.08,0-5.22.25-7.67,0.25-0.9,0-1.31-.16-1.31-0.65a0.53,0.53,0,0,1,.65-0.49,12.69,12.69,0,0,0,2.45-.33c1.63-.33,2-2.12,2.37-4.49,0.41-3.43.41-9.88,0.41-17.72V51.54Zm6.53,7.1a1.07,1.07,0,0,0,.57,1c1.22,0.74,5,1.31,8.57,1.31a10.57,10.57,0,0,0,6.12-1.55c2.86-2,5-6.37,5-12.57,0-10.21-5.39-16.33-14.12-16.33a24.64,24.64,0,0,0-5.47.49,1,1,0,0,0-.65,1v26.7Z" transform="translate(-28.01 -26.72)"/><path class="cls-1" d="M603.06,68.77c0-6.61-.41-7.51-3.67-8.41a15.19,15.19,0,0,0-2.78-.25,0.57,0.57,0,0,1-.65-0.49c0-.49.41-0.65,1.31-0.65,3.67,0,8.82.25,9.22,0.25s5.55-.25,8-0.25c0.9,0,1.3.16,1.3,0.65a0.57,0.57,0,0,1-.65.49,12,12,0,0,0-2,.25c-2.21.41-2.86,1.8-3,4.65-0.16,2.61-.16,5.06-0.16,8.49v9.14c0,3.67-.08,3.84-1.06,4.41-5.23,2.78-12.57,3.67-17.31,3.67-6.21,0-17.8-.82-26.86-8.73-5-4.33-9.71-13.06-9.71-23.27,0-13.06,6.37-22.29,13.63-26.86s15.43-5.14,21.72-5.14a69.88,69.88,0,0,1,12.49,1.39,40.66,40.66,0,0,0,6.62.82c0.82,0.08,1,.41,1,0.74a103.53,103.53,0,0,0-.57,11.59c0,1.31-.16,1.71-0.74,1.71-0.41,0-.49-0.49-0.57-1.22a12.55,12.55,0,0,0-1.71-5.39c-2-3.1-8.65-6.61-19.19-6.61-5.14,0-11.27.49-17.47,5.39-4.74,3.76-8.08,11.19-8.08,20.74,0,11.51,5.79,19.84,8.65,22.61a29.71,29.71,0,0,0,21.39,8.74c2.94,0,7.18-.49,9.31-1.71a3,3,0,0,0,1.63-2.86V68.77Z" transform="translate(-28.01 -26.72)"/><path class="cls-1" d="M659.48,65.91c0,7.84,0,14.29.41,17.72,0.25,2.37.73,4.16,3.19,4.49a35.88,35.88,0,0,0,3.67.33,0.53,0.53,0,0,1,.65.49c0,0.41-.41.65-1.3,0.65-4.49,0-9.63-.25-10-0.25s-5.55.25-8,.25c-0.9,0-1.31-.16-1.31-0.65a0.53,0.53,0,0,1,.66-0.49,12.66,12.66,0,0,0,2.45-.33c1.63-.33,2-2.12,2.37-4.49,0.41-3.43.41-9.88,0.41-17.72V51.54c0-12.74,0-15-.16-17.63-0.16-2.78-1-4.16-2.77-4.57a10.78,10.78,0,0,0-2.53-.33,0.57,0.57,0,0,1-.66-0.49c0-.49.41-0.65,1.31-0.65,2.7,0,7.84.24,8.25,0.24s5.55-.24,8-0.24c0.9,0,1.31.16,1.31,0.65a0.57,0.57,0,0,1-.65.49,12.23,12.23,0,0,0-2,.24c-2.2.41-2.86,1.8-3,4.65-0.16,2.61-.16,4.9-0.16,17.63V65.91Z" transform="translate(-28.01 -26.72)"/><path class="cls-1" d="M708.71,78.48c0.16,6.69,1,8.82,3.18,9.47a17.91,17.91,0,0,0,4.08.49,0.53,0.53,0,0,1,.65.49c0,0.49-.49.65-1.47,0.65-4.66,0-7.92-.25-8.65-0.25s-4.17.25-7.84,0.25c-0.81,0-1.3-.08-1.3-0.65a0.53,0.53,0,0,1,.65-0.49,11.73,11.73,0,0,0,3.35-.49c2-.57,2.45-2.94,2.45-10.37L703.9,30.8c0-3.18.25-4.08,0.9-4.08s2,1.8,2.86,2.61c1.22,1.39,13.39,14.53,26,28C741.7,66,750.59,76,753.2,78.65l-0.9-41.47c-0.08-5.31-.65-7.1-3.18-7.75a21.79,21.79,0,0,0-4-.41c-0.57,0-.65-0.25-0.65-0.57,0-.49.65-0.57,1.63-0.57,3.67,0,7.59.24,8.49,0.24s3.59-.24,6.94-0.24c0.9,0,1.47.08,1.47,0.57a0.74,0.74,0,0,1-.9.57,7.23,7.23,0,0,0-2,.24c-2.69.57-3,2.37-3,7.27L757,84.36c0,5.39-.16,5.8-0.74,5.8s-1.63-.9-6-5.22c-0.9-.82-12.65-12.82-21.3-22.13-9.47-10.21-18.7-20.49-21.31-23.43Z" transform="translate(-28.01 -26.72)"/><path class="cls-1" d="M808.65,65.91c0,7.84,0,14.29.41,17.72,0.25,2.37.73,4.16,3.19,4.49a35.88,35.88,0,0,0,3.67.33,0.53,0.53,0,0,1,.65.49c0,0.41-.41.65-1.3,0.65-4.49,0-9.63-.25-10-0.25s-5.55.25-8,.25c-0.9,0-1.31-.16-1.31-0.65a0.53,0.53,0,0,1,.66-0.49,12.66,12.66,0,0,0,2.45-.33c1.63-.33,2-2.12,2.37-4.49,0.41-3.43.41-9.88,0.41-17.72V51.54c0-12.74,0-15-.16-17.63-0.16-2.78-1-4.16-2.77-4.57a10.78,10.78,0,0,0-2.53-.33,0.57,0.57,0,0,1-.66-0.49c0-.49.41-0.65,1.31-0.65,2.7,0,7.84.24,8.25,0.24s5.55-.24,8-0.24c0.9,0,1.31.16,1.31,0.65a0.57,0.57,0,0,1-.65.49,12.23,12.23,0,0,0-2,.24c-2.21.41-2.86,1.8-3,4.65-0.16,2.61-.16,4.9-0.16,17.63V65.91Z" transform="translate(-28.01 -26.72)"/><path class="cls-1" d="M867.43,29.91c1-2.69,1.31-3.18,1.8-3.18S870,27.13,871,29.66c1.22,3.1,14,36.82,19,49.23,2.94,7.27,5.31,8.57,7,9.06a10.53,10.53,0,0,0,3.26.49c0.49,0,.82.08,0.82,0.49s-0.73.65-1.63,0.65c-1.22,0-7.18,0-12.82-.16-1.55-.08-2.45-0.08-2.45-0.57a0.61,0.61,0,0,1,.57-0.57c0.49-.16,1-0.9.49-2.2L877.72,66A0.71,0.71,0,0,0,877,65.5H859.43a0.85,0.85,0,0,0-.81.65l-4.9,14.45a17.3,17.3,0,0,0-1.14,5.47c0,1.63,1.71,2.37,3.1,2.37h0.82c0.57,0,.81.16,0.81,0.49,0,0.49-.49.65-1.22,0.65-2,0-5.47-.25-6.37-0.25s-5.39.25-9.23,0.25c-1.06,0-1.55-.16-1.55-0.65a0.61,0.61,0,0,1,.74-0.49c0.57,0,1.72-.08,2.37-0.16,3.76-.49,5.39-3.59,6.86-7.67Zm8.49,32.66c0.41,0,.41-0.24.33-0.57l-7.75-22q-0.62-1.84-1.23,0l-7.18,22c-0.16.41,0,.57,0.25,0.57h15.59Z" transform="translate(-28.01 -26.72)"/><path class="cls-1" d="M400.17,183.3h0.33c2.2-7.51,9.71-31.19,12.57-41.64a18.19,18.19,0,0,0,.9-5.23c0-1.47-.9-2.45-4.65-2.45a0.66,0.66,0,0,1-.73-0.57c0-.41.41-0.57,1.39-0.57,4.16,0,7.59.25,8.33,0.25,0.57,0,4.08-.25,6.61-0.25,0.74,0,1.14.16,1.14,0.49a0.63,0.63,0,0,1-.73.66,10.74,10.74,0,0,0-2.78.41c-2.45.9-3.76,4.33-5.31,8.82-3.59,10.37-11.84,36.33-15,45.48-2.12,6-2.53,7-3.43,7s-1.31-1.06-2.45-4.24l-16-45.48h-0.16c-2.94,7.84-14.12,37.8-17.06,45.39-1.31,3.43-1.71,4.33-2.69,4.33-0.82,0-1.23-.9-2.86-6.45L343,140.84c-1.31-4.33-2.37-5.55-4.49-6.37a13.52,13.52,0,0,0-3.67-.49c-0.41,0-.73-0.08-0.73-0.57s0.49-.57,1.3-0.57c4.25,0,8.74.25,9.63,0.25,0.74,0,4.33-.25,8.41-0.25,1.14,0,1.47.25,1.47,0.57,0,0.49-.41.57-0.82,0.57a8,8,0,0,0-3.18.49,2.13,2.13,0,0,0-1.06,2,63.88,63.88,0,0,0,1.55,7.51c1.22,5.23,9.71,35.19,10.94,39.51h0.16l17.31-46.62c1.22-3.34,1.55-3.75,2-3.75s1.06,1.06,2,3.84Z" transform="translate(-28.01 -26.72)"/><path class="cls-1" d="M452.83,156.52c0-12.74,0-15-.16-17.64-0.16-2.78-.82-4.08-3.51-4.65a15.31,15.31,0,0,0-2.78-.25,0.57,0.57,0,0,1-.65-0.49c0-.49.41-0.65,1.31-0.65,1.88,0,4.08,0,5.88.08l3.35,0.17c0.57,0,16.82,0,18.7-.08a22.09,22.09,0,0,0,3.51-.41,6.66,6.66,0,0,1,1.14-.41c0.25,0,.33.33,0.33,0.73,0,0.58-.41,1.55-0.65,3.84-0.08.81-.24,4.41-0.41,5.39a1,1,0,0,1-.57.9c-0.49,0-.65-0.41-0.65-1.06a8.77,8.77,0,0,0-.49-2.94c-0.57-1.31-1.39-2.29-5.8-2.78-1.39-.16-10.29-0.25-11.18-0.25-0.33,0-.49.25-0.49,0.82v22.54c0,0.57.08,0.82,0.49,0.82,1.06,0,11.1,0,13-.17s3.1-.33,3.84-1.14a2.5,2.5,0,0,1,1.22-1.06c0.25,0,.41.16,0.41,0.65s-0.41,1.88-.65,4.58c-0.16,1.63-.33,4.65-0.33,5.22s0,1.55-.57,1.55a0.61,0.61,0,0,1-.57-0.73,8.33,8.33,0,0,0-.33-2.69c-0.33-1.15-1.06-2.53-4.25-2.86-2.2-.24-10.29-0.41-11.67-0.41a0.52,0.52,0,0,0-.57.57v7.18c0,2.78-.08,12.25,0,14,0.25,5.63,1.47,6.7,9.47,6.7,2.12,0,5.72,0,7.84-.9s3.1-2.53,3.67-5.87c0.16-.9.33-1.23,0.74-1.23s0.49,0.66.49,1.23-0.65,6.21-1.06,7.92c-0.57,2.12-1.23,2.12-4.41,2.12-6.12,0-10.62-.16-13.8-0.25s-5.14-.25-6.37-0.25c-0.16,0-1.55,0-3.27.08s-3.51.16-4.74,0.16c-0.9,0-1.3-.16-1.3-0.65a0.53,0.53,0,0,1,.65-0.49,12.69,12.69,0,0,0,2.45-.32c1.63-.33,2-2.12,2.37-4.49,0.41-3.43.41-9.88,0.41-17.72V156.52Z" transform="translate(-28.01 -26.72)"/><path class="cls-1" d="M510.88,193.5c-1.14-.57-1.22-0.9-1.22-3.1,0-4.08.33-7.35,0.41-8.65,0.08-.9.24-1.31,0.65-1.31s0.57,0.25.57,0.9a14.32,14.32,0,0,0,.25,3c1.22,6,6.61,8.33,12.08,8.33,7.84,0,11.67-5.63,11.67-10.86,0-5.63-2.37-8.9-9.39-14.7l-3.67-3c-8.65-7.1-10.62-12.16-10.62-17.71,0-8.74,6.53-14.7,16.9-14.7a31.56,31.56,0,0,1,7.59.82,13.35,13.35,0,0,0,2.86.4c0.65,0,.82.17,0.82,0.58s-0.33,3.1-.33,8.65c0,1.3-.16,1.88-0.57,1.88s-0.57-.41-0.65-1.06a14.33,14.33,0,0,0-1.06-4.08c-0.49-.9-2.69-4.33-10.21-4.33-5.63,0-10,3.51-10,9.47,0,4.65,2.12,7.59,10,13.72l2.29,1.8c9.63,7.59,11.92,12.66,11.92,19.19a16.91,16.91,0,0,1-6.94,13.55,21.47,21.47,0,0,1-12.33,3.43A24.74,24.74,0,0,1,510.88,193.5Z" transform="translate(-28.01 -26.72)"/><path class="cls-1" d="M582.82,171c0,12,.33,17.23,1.8,18.7,1.31,1.31,3.43,1.88,9.8,1.88,4.33,0,7.92-.08,9.88-2.45a11.41,11.41,0,0,0,2.12-4.9c0.08-.65.24-1.06,0.73-1.06s0.49,0.33.49,1.22a52,52,0,0,1-1.22,8.17c-0.57,1.88-.82,2.21-5.14,2.21-5.88,0-10.12-.16-13.55-0.25s-6-.25-8.33-0.25c-0.33,0-1.72.08-3.35,0.08s-3.43.16-4.65,0.16c-0.9,0-1.31-.16-1.31-0.65a0.53,0.53,0,0,1,.65-0.49,12.71,12.71,0,0,0,2.45-.32c1.63-.33,2-2.12,2.37-4.49,0.41-3.43.41-9.88,0.41-17.72V156.52c0-12.74,0-15-.16-17.64-0.16-2.78-.81-4.08-3.51-4.65a15.28,15.28,0,0,0-2.78-.25,0.57,0.57,0,0,1-.65-0.49c0-.49.41-0.65,1.3-0.65,3.67,0,8.82.25,9.23,0.25s6.37-.25,8.82-0.25c0.9,0,1.31.16,1.31,0.65a0.57,0.57,0,0,1-.65.49,19.2,19.2,0,0,0-2.69.25c-2.37.41-3,1.79-3.19,4.65-0.16,2.61-.16,4.9-0.16,17.64V171Z" transform="translate(-28.01 -26.72)"/><path class="cls-1" d="M641.91,157.38c0-12.74,0-15-.16-17.63-0.16-2.78-.82-4.08-3.51-4.65a15.37,15.37,0,0,0-2.78-.25,0.57,0.57,0,0,1-.65-0.49c0-.49.41-0.66,1.3-0.66,1.88,0,4.08,0,5.88.08l3.35,0.17c0.57,0,16.82,0,18.7-.08a22.09,22.09,0,0,0,3.51-.41,6.43,6.43,0,0,1,1.14-.41c0.24,0,.33.33,0.33,0.73,0,0.58-.41,1.55-0.65,3.84-0.08.81-.24,4.41-0.41,5.39a0.94,0.94,0,0,1-.57.9c-0.49,0-.65-0.41-0.65-1.06a8.84,8.84,0,0,0-.49-2.94c-0.57-1.3-1.39-2.29-5.79-2.78-1.39-.16-10.29-0.25-11.19-0.25-0.33,0-.49.25-0.49,0.82v22.54c0,0.57.08,0.82,0.49,0.82,1.06,0,11.1,0,13-.17s3.1-.33,3.84-1.14a2.5,2.5,0,0,1,1.23-1.06c0.25,0,.41.16,0.41,0.65s-0.41,1.88-.65,4.57c-0.16,1.63-.32,4.65-0.32,5.23s0,1.55-.57,1.55a0.61,0.61,0,0,1-.57-0.73,8.29,8.29,0,0,0-.33-2.69c-0.33-1.15-1.06-2.53-4.25-2.86-2.2-.24-10.29-0.41-11.67-0.41a0.52,0.52,0,0,0-.57.57v7.19c0,2.78-.08,12.25,0,14,0.24,5.63,1.47,6.7,9.47,6.7,2.12,0,5.71,0,7.83-.9s3.1-2.53,3.67-5.87c0.16-.9.33-1.23,0.73-1.23s0.49,0.65.49,1.23-0.66,6.21-1.06,7.92c-0.57,2.12-1.22,2.12-4.41,2.12-6.12,0-10.61-.16-13.79-0.25s-5.14-.25-6.37-0.25c-0.16,0-1.55,0-3.27.08s-3.51.16-4.73,0.16c-0.9,0-1.31-.16-1.31-0.65a0.53,0.53,0,0,1,.65-0.49,12.7,12.7,0,0,0,2.45-.32c1.63-.33,2-2.12,2.37-4.49,0.41-3.43.41-9.88,0.41-17.72V157.38Z" transform="translate(-28.01 -26.72)"/><path class="cls-1" d="M714.41,173.42a17.31,17.31,0,0,0-1.87-8.57c-0.57-1.31-11.51-19.27-14.37-23.51a22.85,22.85,0,0,0-5.55-6,7.8,7.8,0,0,0-3.51-1.3,0.69,0.69,0,0,1-.82-0.57c0-.33.33-0.57,1.06-0.57,1.55,0,7.67.25,8.08,0.25,0.57,0,3.67-.25,6.86-0.25,0.9,0,1.06.25,1.06,0.57s-0.49.41-1.22,0.73a1.66,1.66,0,0,0-1.06,1.47,7,7,0,0,0,1.06,3.18c1.31,2.37,13.55,23.43,15,25.8,1.55-3.43,11.92-21.31,13.55-24a8,8,0,0,0,1.39-4.17c0-1.14-.33-2-1.31-2.29-0.74-.25-1.22-0.41-1.22-0.82s0.49-.49,1.31-0.49c2.12,0,4.73.25,5.39,0.25,0.49,0,6.37-.25,7.92-0.25,0.57,0,1.06.16,1.06,0.49s-0.41.66-1.06,0.66a7.77,7.77,0,0,0-3.76,1.14c-1.63,1-2.53,2-4.33,4.17-2.69,3.26-14.12,22.45-15.59,26a19.57,19.57,0,0,0-1.22,8.16v7c0,1.31,0,4.73.24,8.16,0.16,2.37.9,4.16,3.35,4.49a36,36,0,0,0,3.67.32,0.53,0.53,0,0,1,.66.49c0,0.41-.41.65-1.31,0.65-4.49,0-9.64-.25-10-0.25s-5.55.25-8,.25c-0.9,0-1.3-.16-1.3-0.65a0.53,0.53,0,0,1,.65-0.49,12.75,12.75,0,0,0,2.45-.32c1.63-.33,2.37-2.12,2.53-4.49,0.24-3.43.24-6.86,0.24-8.16v-7Z" transform="translate(-28.01 -26.72)"/><path class="cls-1" d="M782.84,135.74c1-2.69,1.31-3.18,1.8-3.18s0.82,0.41,1.79,2.94c1.22,3.1,14,36.82,19,49.23,2.94,7.27,5.3,8.57,7,9.06a10.56,10.56,0,0,0,3.27.49c0.49,0,.82.08,0.82,0.49s-0.74.65-1.63,0.65c-1.22,0-7.19,0-12.82-.16-1.55-.08-2.45-0.08-2.45-0.57a0.61,0.61,0,0,1,.57-0.57c0.49-.16,1-0.9.49-2.21l-7.59-20.08a0.72,0.72,0,0,0-.74-0.49H774.84a0.86,0.86,0,0,0-.82.66l-4.89,14.45a17.17,17.17,0,0,0-1.14,5.47c0,1.63,1.71,2.37,3.1,2.37h0.81c0.57,0,.81.16,0.81,0.49,0,0.49-.49.65-1.22,0.65-2,0-5.47-.25-6.37-0.25s-5.39.25-9.23,0.25c-1.06,0-1.55-.16-1.55-0.65a0.61,0.61,0,0,1,.74-0.49c0.57,0,1.71-.08,2.37-0.16,3.76-.49,5.39-3.6,6.86-7.68Zm8.49,32.66c0.41,0,.41-0.25.33-0.57l-7.76-22q-0.61-1.83-1.22,0l-7.19,22c-0.16.4,0,.57,0.24,0.57h15.59Z" transform="translate(-28.01 -26.72)"/><path class="cls-1" d="M846,184.31c0.16,6.7,1,8.82,3.19,9.47a17.94,17.94,0,0,0,4.08.49,0.53,0.53,0,0,1,.65.49c0,0.49-.49.65-1.47,0.65-4.65,0-7.92-.25-8.65-0.25s-4.17.25-7.84,0.25c-0.81,0-1.3-.08-1.3-0.65a0.53,0.53,0,0,1,.65-0.49,11.74,11.74,0,0,0,3.35-.49c2-.57,2.45-2.94,2.45-10.37l0.08-46.78c0-3.19.25-4.08,0.9-4.08s2,1.8,2.86,2.61c1.22,1.39,13.39,14.53,26,28,8.09,8.65,17,18.61,19.59,21.31L889.58,143c-0.08-5.31-.65-7.1-3.19-7.76a21.87,21.87,0,0,0-4-.41c-0.57,0-.65-0.25-0.65-0.57,0-.49.65-0.57,1.63-0.57,3.67,0,7.59.25,8.49,0.25s3.59-.25,6.94-0.25c0.9,0,1.47.08,1.47,0.57a0.74,0.74,0,0,1-.9.57,7.18,7.18,0,0,0-2,.25c-2.69.57-3,2.37-3,7.26l-0.16,47.84c0,5.39-.16,5.8-0.73,5.8s-1.63-.9-6-5.23c-0.9-.82-12.65-12.82-21.3-22.13-9.47-10.2-18.7-20.49-21.31-23.43Z" transform="translate(-28.01 -26.72)"/><path class="cls-1" d="M342.12,257.38c0-10.19,0-12-.13-14.11s-0.65-3.27-2.81-3.73a12.61,12.61,0,0,0-2.22-.19,0.46,0.46,0,0,1-.52-0.39c0-.4.33-0.52,1-0.52,2.94,0,6.93.19,7.51,0.19s4.51-.19,6.47-0.19c0.72,0,1,.13,1,0.52a0.46,0.46,0,0,1-.52.39,10.09,10.09,0,0,0-1.63.19c-1.76.26-2.29,1.44-2.42,3.73-0.13,2.09-.13,3.92-0.13,14.11v9.15c0,9.41,2.09,13.46,4.9,16.14,3.2,3,6.14,3.59,9.87,3.59a13.73,13.73,0,0,0,10.26-4.71c3-3.72,3.79-9.28,3.79-16v-8.17c0-10.19,0-12-.13-14.11s-0.65-3.27-2.81-3.73a12.59,12.59,0,0,0-2.22-.19,0.46,0.46,0,0,1-.52-0.39c0-.4.33-0.52,1-0.52,2.94,0,6.53.19,6.93,0.19s3.53-.19,5.49-0.19c0.72,0,1,.13,1,0.52a0.46,0.46,0,0,1-.52.39,10.06,10.06,0,0,0-1.63.19c-1.76.4-2.29,1.44-2.42,3.73-0.13,2.09-.13,3.92-0.13,14.11v7c0,7.06-.78,14.9-6,19.54a19.13,19.13,0,0,1-13.46,4.83c-2.22,0-8.82-.26-13.46-4.64-3.2-3.07-5.69-7.65-5.69-17.18v-9.54Z" transform="translate(-28.01 -26.72)"/><path class="cls-1" d="M416.26,278.94c0.13,5.36.79,7.06,2.55,7.58a14.37,14.37,0,0,0,3.27.39,0.43,0.43,0,0,1,.52.39c0,0.39-.39.52-1.18,0.52-3.73,0-6.34-.19-6.93-0.19s-3.33.19-6.27,0.19c-0.65,0-1-.07-1-0.52a0.42,0.42,0,0,1,.52-0.39,9.4,9.4,0,0,0,2.68-.39c1.63-.46,2-2.35,2-8.3l0.07-37.44c0-2.55.2-3.27,0.72-3.27s1.63,1.44,2.29,2.09c1,1.11,10.71,11.63,20.78,22.41,6.47,6.93,13.59,14.9,15.68,17.05l-0.72-33.19c-0.06-4.25-.52-5.69-2.55-6.21a17.56,17.56,0,0,0-3.2-.33c-0.46,0-.52-0.2-0.52-0.46s0.52-.46,1.31-0.46c2.94,0,6.08.19,6.8,0.19s2.87-.19,5.55-0.19c0.72,0,1.18.07,1.18,0.46a0.59,0.59,0,0,1-.72.46,5.85,5.85,0,0,0-1.57.19c-2.16.46-2.42,1.9-2.42,5.82l-0.13,38.29c0,4.31-.13,4.64-0.59,4.64s-1.31-.72-4.77-4.18c-0.72-.65-10.13-10.26-17.05-17.71-7.58-8.17-15-16.4-17.05-18.75Z" transform="translate(-28.01 -26.72)"/><path class="cls-1" d="M496.21,268.88c0,6.27,0,11.43.33,14.18,0.2,1.9.59,3.33,2.55,3.6a29,29,0,0,0,2.94.26,0.42,0.42,0,0,1,.52.39c0,0.33-.32.52-1,0.52-3.59,0-7.71-.19-8-0.19s-4.44.19-6.4,0.19c-0.72,0-1-.13-1-0.52a0.43,0.43,0,0,1,.52-0.39,10.22,10.22,0,0,0,2-.26c1.31-.26,1.63-1.7,1.89-3.6,0.33-2.74.33-7.9,0.33-14.18v-11.5c0-10.19,0-12-.13-14.11s-0.78-3.33-2.22-3.66a8.72,8.72,0,0,0-2-.26,0.46,0.46,0,0,1-.52-0.39c0-.4.33-0.52,1-0.52,2.16,0,6.27.19,6.6,0.19s4.44-.19,6.4-0.19c0.72,0,1,.13,1,0.52a0.46,0.46,0,0,1-.52.39,10.05,10.05,0,0,0-1.63.19c-1.77.33-2.29,1.44-2.42,3.73-0.13,2.09-.13,3.92-0.13,14.11v11.5Z" transform="translate(-28.01 -26.72)"/><path class="cls-1" d="M548,279.86c3.79-8.76,12.54-31.56,14-36.26a9.37,9.37,0,0,0,.59-2.48,1.62,1.62,0,0,0-.85-1.5,8.3,8.3,0,0,0-2.48-.26c-0.39,0-.72-0.07-0.72-0.39s0.39-.52,1.44-0.52c2.61,0,5.62.19,6.4,0.19,0.39,0,3.2-.19,5.1-0.19,0.72,0,1.11.13,1.11,0.46s-0.26.46-.79,0.46a5.93,5.93,0,0,0-3.13.78c-0.85.59-1.83,1.7-3.59,6.14-0.72,1.83-4,9.67-7.32,17.71-4,9.54-6.93,16.59-8.43,19.79-1.83,3.92-2.09,5-2.74,5s-1.11-.91-2.35-4l-16-40.05c-1.44-3.66-2.42-4.38-4.7-5a10.23,10.23,0,0,0-2.48-.26,0.44,0.44,0,0,1-.52-0.46c0-.39.65-0.46,1.7-0.46,3.14,0,6.86.19,7.64,0.19s3.6-.19,6.08-0.19c1.18,0,1.76.13,1.76,0.46s-0.19.46-.65,0.46a7.66,7.66,0,0,0-2.48.33,1.31,1.31,0,0,0-.85,1.31,25.18,25.18,0,0,0,1.76,5.42Z" transform="translate(-28.01 -26.72)"/><path class="cls-1" d="M593.94,257.38c0-10.19,0-12-.13-14.11s-0.65-3.27-2.81-3.73a12.57,12.57,0,0,0-2.22-.19,0.46,0.46,0,0,1-.52-0.39c0-.4.33-0.52,1-0.52,1.5,0,3.27,0,4.71.07l2.68,0.13c0.46,0,13.46,0,15-.07a17,17,0,0,0,2.81-.32,5.08,5.08,0,0,1,.91-0.33c0.2,0,.26.26,0.26,0.59s-0.33,1.24-.52,3.07c-0.06.66-.2,3.53-0.33,4.32a0.76,0.76,0,0,1-.46.72c-0.39,0-.52-0.33-0.52-0.85a7.06,7.06,0,0,0-.39-2.35c-0.46-1-1.11-1.83-4.64-2.22-1.11-.13-8.23-0.19-8.95-0.19-0.26,0-.39.19-0.39,0.65v18c0,0.46.06,0.65,0.39,0.65,0.85,0,8.88,0,10.38-.13s2.48-.26,3.07-0.92a2,2,0,0,1,1-.85c0.2,0,.33.13,0.33,0.52s-0.33,1.5-.53,3.66c-0.13,1.3-.26,3.72-0.26,4.18s0,1.24-.46,1.24a0.49,0.49,0,0,1-.46-0.59,6.72,6.72,0,0,0-.26-2.16c-0.26-.91-0.85-2-3.4-2.28-1.77-.2-8.23-0.33-9.34-0.33a0.41,0.41,0,0,0-.46.46v5.75c0,2.22-.07,9.8,0,11.17,0.19,4.51,1.17,5.36,7.58,5.36,1.7,0,4.58,0,6.27-.72s2.48-2,2.94-4.71c0.13-.72.26-1,0.59-1s0.39,0.52.39,1a63.55,63.55,0,0,1-.85,6.34c-0.46,1.7-1,1.7-3.53,1.7-4.9,0-8.49-.13-11-0.2s-4.12-.19-5.1-0.19c-0.13,0-1.24,0-2.61.06s-2.81.13-3.79,0.13c-0.72,0-1-.13-1-0.52a0.42,0.42,0,0,1,.52-0.39,10.23,10.23,0,0,0,2-.26c1.31-.26,1.63-1.7,1.89-3.6,0.33-2.74.33-7.9,0.33-14.18v-11.5Z" transform="translate(-28.01 -26.72)"/><path class="cls-1" d="M648.15,257.38c0-10.19,0-12-.13-14.11s-0.66-3.27-2.81-3.73a12.5,12.5,0,0,0-2.22-.19,0.46,0.46,0,0,1-.52-0.39c0-.4.33-0.52,1-0.52,2.94,0,7.06.19,7.38,0.19,0.72,0,5.68-.19,7.71-0.19,4.12,0,8.49.39,12,2.88a11.43,11.43,0,0,1,4.51,8.88c0,4.83-2,9.67-7.9,15.09,5.36,6.86,9.8,12.67,13.59,16.73,3.53,3.73,6.34,4.44,8,4.71a15.86,15.86,0,0,0,2.55.19,0.54,0.54,0,0,1,.59.39c0,0.39-.39.52-1.57,0.52h-4.64c-3.66,0-5.29-.32-7-1.24-2.81-1.5-5.09-4.71-8.82-9.61-2.74-3.59-5.81-8-7.12-9.67a1.06,1.06,0,0,0-.85-0.39l-8-.13a0.44,0.44,0,0,0-.46.52v1.57c0,6.27,0,11.43.33,14.18,0.2,1.9.59,3.33,2.55,3.6a28.91,28.91,0,0,0,2.94.26,0.43,0.43,0,0,1,.52.39c0,0.33-.33.52-1,0.52-3.59,0-7.71-.19-8-0.19-0.06,0-4.18.19-6.14,0.19-0.72,0-1-.13-1-0.52a0.43,0.43,0,0,1,.53-0.39,10.21,10.21,0,0,0,2-.26c1.31-.26,1.63-1.7,1.89-3.6,0.33-2.74.33-7.9,0.33-14.18v-11.5Zm5.23,5.69a0.86,0.86,0,0,0,.46.78c1,0.59,4,1,6.86,1a8.45,8.45,0,0,0,4.9-1.25c2.29-1.56,4-5.09,4-10.06,0-8.16-4.31-13.06-11.3-13.06a19.64,19.64,0,0,0-4.38.39,0.79,0.79,0,0,0-.53.78v21.37Z" transform="translate(-28.01 -26.72)"/><path class="cls-1" d="M706.94,287c-0.91-.46-1-0.71-1-2.48,0-3.27.26-5.88,0.33-6.93,0.06-.72.19-1,0.52-1s0.46,0.2.46,0.72a11.54,11.54,0,0,0,.2,2.42c1,4.83,5.29,6.66,9.67,6.66,6.27,0,9.34-4.51,9.34-8.69,0-4.51-1.89-7.12-7.51-11.76L716,263.45c-6.93-5.69-8.49-9.73-8.49-14.18,0-7,5.23-11.76,13.53-11.76a25.37,25.37,0,0,1,6.07.65,10.64,10.64,0,0,0,2.29.33c0.52,0,.65.13,0.65,0.46s-0.26,2.48-.26,6.93c0,1-.13,1.5-0.46,1.5s-0.46-.33-0.53-0.85a11.54,11.54,0,0,0-.85-3.27c-0.39-.72-2.16-3.46-8.17-3.46-4.51,0-8,2.81-8,7.58,0,3.72,1.7,6.07,8,11l1.83,1.44c7.71,6.08,9.54,10.13,9.54,15.36A13.54,13.54,0,0,1,725.56,286a17.18,17.18,0,0,1-9.87,2.74A19.83,19.83,0,0,1,706.94,287Z" transform="translate(-28.01 -26.72)"/><path class="cls-1" d="M768.21,268.88c0,6.27,0,11.43.32,14.18,0.2,1.9.59,3.33,2.55,3.6a29,29,0,0,0,2.94.26,0.42,0.42,0,0,1,.52.39c0,0.33-.32.52-1,0.52-3.59,0-7.71-.19-8-0.19s-4.44.19-6.4,0.19c-0.72,0-1-.13-1-0.52a0.42,0.42,0,0,1,.52-0.39,10.19,10.19,0,0,0,2-.26c1.31-.26,1.63-1.7,1.9-3.6,0.32-2.74.32-7.9,0.32-14.18v-11.5c0-10.19,0-12-.13-14.11s-0.78-3.33-2.22-3.66a8.72,8.72,0,0,0-2-.26,0.46,0.46,0,0,1-.52-0.39c0-.4.33-0.52,1-0.52,2.16,0,6.27.19,6.6,0.19s4.45-.19,6.4-0.19c0.72,0,1,.13,1,0.52a0.46,0.46,0,0,1-.53.39,10,10,0,0,0-1.63.19c-1.77.33-2.29,1.44-2.42,3.73-0.13,2.09-.13,3.92-0.13,14.11v11.5Z" transform="translate(-28.01 -26.72)"/><path class="cls-1" d="M819.74,268.88c0,6.27,0,11.43.33,14.18,0.2,1.9.59,3.33,2.55,3.6a29,29,0,0,0,2.94.26,0.42,0.42,0,0,1,.52.39c0,0.33-.33.52-1,0.52-3.6,0-7.71-.19-8-0.19s-4.44.19-6.4,0.19c-0.72,0-1-.13-1-0.52a0.43,0.43,0,0,1,.52-0.39,10.23,10.23,0,0,0,2-.26c1.31-.26,1.63-1.7,1.89-3.6,0.33-2.74.33-7.9,0.33-14.18V241.24l-9.67.13c-4.05.07-5.62,0.52-6.67,2.09a11.44,11.44,0,0,0-1.11,2,0.73,0.73,0,0,1-.65.66c-0.2,0-.33-0.2-0.33-0.59,0-.65,1.31-6.27,1.44-6.79a2.21,2.21,0,0,1,.65-1.24,12.37,12.37,0,0,0,2.87.78c1.89,0.2,4.38.32,5.16,0.32h24.5a26.07,26.07,0,0,0,4.64-.32c1-.13,1.57-0.33,1.83-0.33s0.33,0.39.33,0.78c0,2-.2,6.47-0.2,7.18s-0.19.85-.46,0.85-0.46-.2-0.52-1.11L836,245c-0.19-2-1.76-3.46-8-3.59l-8.24-.13v27.64Z" transform="translate(-28.01 -26.72)"/><path class="cls-1" d="M874,270.91a13.9,13.9,0,0,0-1.5-6.86c-0.46-1-9.21-15.42-11.5-18.82a18.23,18.23,0,0,0-4.44-4.83,6.24,6.24,0,0,0-2.81-1,0.55,0.55,0,0,1-.65-0.46c0-.26.26-0.46,0.85-0.46,1.24,0,6.14.19,6.46,0.19s2.94-.19,5.49-0.19c0.72,0,.85.19,0.85,0.46s-0.39.33-1,.59a1.32,1.32,0,0,0-.85,1.17,5.57,5.57,0,0,0,.85,2.55c1,1.89,10.85,18.75,12,20.65,1.24-2.74,9.54-17.05,10.85-19.21a6.4,6.4,0,0,0,1.11-3.33,1.61,1.61,0,0,0-1-1.83c-0.59-.2-1-0.33-1-0.66s0.39-.39,1-0.39c1.7,0,3.79.19,4.31,0.19s5.09-.19,6.34-0.19c0.46,0,.85.13,0.85,0.39s-0.32.52-.85,0.52a6.22,6.22,0,0,0-3,.91,12.51,12.51,0,0,0-3.46,3.33c-2.16,2.61-11.3,18-12.48,20.78a15.61,15.61,0,0,0-1,6.54v5.62c0,1,0,3.79.2,6.53,0.13,1.9.72,3.33,2.68,3.6a29,29,0,0,0,2.94.26,0.42,0.42,0,0,1,.52.39c0,0.33-.33.52-1,0.52-3.6,0-7.71-.19-8-0.19s-4.44.19-6.4,0.19c-0.72,0-1-.13-1-0.52a0.43,0.43,0,0,1,.52-0.39,10.23,10.23,0,0,0,2-.26c1.31-.26,1.89-1.7,2-3.6,0.2-2.74.2-5.49,0.2-6.53v-5.62Z" transform="translate(-28.01 -26.72)"/><rect class="cls-1" x="307.54" y="83.86" width="569.18" height="3"/><rect class="cls-1" x="307.54" y="189.37" width="569.18" height="3"/></svg>
