<?xml version="1.0" encoding="utf-8"?>
<!-- Generator: Adobe Illustrator 21.0.2, SVG Export Plug-In . SVG Version: 6.00 Build 0)  -->
<svg version="1.1" id="Layer_1" xmlns="http://www.w3.org/2000/svg" xmlns:xlink="http://www.w3.org/1999/xlink" x="0px" y="0px"
	 viewBox="0 0 260 260" style="enable-background:new 0 0 260 260;" xml:space="preserve">
<style type="text/css">
	.st0{fill:none;}
	.st1{opacity:4.000000e-02;fill:#FFFFFF;enable-background:new    ;}
</style>
<title>vwu-seal-ftr</title>
<path class="st0" d="M109.3,69.5C76.1,80.7,58.1,117,69.2,150.2s47.5,51.3,80.7,40.1s51.3-47.5,40.1-80.7
	C178.9,76.4,142.6,58.3,109.3,69.5z M148.3,179l-3.4,1.2l-44.1-42.1l11.5-60.6l46,41.4L148.3,179z"/>
<path class="st0" d="M109.3,69.5C76.1,80.7,58.1,117,69.2,150.2s47.5,51.3,80.7,40.1s51.3-47.5,40.1-80.7
	C178.9,76.4,142.6,58.3,109.3,69.5z"/>
<path class="st1" d="M192.9,105.3c0-0.1-0.1-0.1-0.1-0.2c-0.3-0.8-0.6-1.6-1-2.3c-0.2-0.5-0.4-0.9-0.6-1.4c-0.3-0.5-0.5-1.1-0.8-1.6
	c-0.2-0.4-0.4-0.9-0.7-1.3c-0.3-0.5-0.6-1.1-0.8-1.6c-0.3-0.4-0.5-0.8-0.7-1.3c-0.3-0.5-0.6-1-1-1.5c-0.3-0.4-0.5-0.8-0.8-1.2
	c-0.3-0.5-0.7-1-1-1.5c-0.3-0.4-0.5-0.8-0.8-1.2c-0.4-0.5-0.7-1-1.1-1.4c-0.3-0.4-0.6-0.7-0.9-1.1c-0.4-0.5-0.8-1-1.2-1.4
	c-0.3-0.4-0.6-0.7-0.9-1.1c-0.4-0.5-0.8-0.9-1.3-1.4c-0.3-0.3-0.6-0.6-0.9-1c-0.5-0.5-1-0.9-1.4-1.4c-0.3-0.3-0.6-0.6-0.9-0.8
	c-0.6-0.5-1.1-1-1.7-1.5c-0.2-0.2-0.4-0.4-0.7-0.6c-0.8-0.7-1.6-1.3-2.5-2c-0.2-0.2-0.4-0.3-0.5-0.4c-0.7-0.5-1.3-1-2-1.5
	c-0.3-0.2-0.6-0.4-1-0.6c-0.6-0.4-1.1-0.7-1.7-1.1c-0.4-0.2-0.7-0.4-1.1-0.7c-0.5-0.3-1.1-0.6-1.6-1c-0.4-0.2-0.8-0.4-1.2-0.6
	c-0.5-0.3-1.1-0.6-1.6-0.8c-0.4-0.2-0.8-0.4-1.3-0.6c-0.5-0.3-1.1-0.5-1.6-0.7c-0.4-0.2-0.9-0.4-1.3-0.6c-0.5-0.2-1.1-0.4-1.6-0.6
	c-0.5-0.2-0.9-0.3-1.4-0.5c-0.5-0.2-1.1-0.4-1.6-0.6c-0.5-0.2-1-0.3-1.4-0.5c-0.5-0.2-1.1-0.3-1.6-0.5c-0.5-0.2-1-0.3-1.4-0.4
	c-0.5-0.2-1.1-0.3-1.6-0.4c-0.5-0.1-1-0.2-1.4-0.3c-0.6-0.1-1.1-0.2-1.7-0.3c-0.5-0.1-1-0.2-1.5-0.3c-0.6-0.1-1.1-0.2-1.7-0.3
	c-0.5-0.1-1-0.1-1.5-0.2c-0.6-0.1-1.2-0.1-1.7-0.2c-0.5-0.1-1-0.1-1.5-0.1c-0.6-0.1-1.2-0.1-1.8-0.1c-0.5,0-1-0.1-1.5-0.1
	c-0.6,0-1.2,0-1.8,0c-0.5,0-1,0-1.5,0c-0.6,0-1.2,0.1-1.8,0.1c-0.5,0.1-1,0.1-1.5,0.1c-0.6,0.1-1.2,0.1-1.8,0.2
	c-0.5,0.1-1,0.1-1.4,0.2c-0.6,0.1-1.2,0.2-1.9,0.3c-0.5,0.1-1,0.2-1.4,0.2c-0.6,0.1-1.3,0.3-2,0.4c-0.4,0.1-0.8,0.2-1.3,0.3
	c-0.7,0.2-1.4,0.4-2.2,0.5c-0.4,0.1-0.7,0.2-1.1,0.3c-1.1,0.3-2.2,0.6-3.2,1c-1.1,0.4-2.1,0.7-3.2,1.2c-0.4,0.2-0.7,0.3-1,0.4
	c-0.7,0.3-1.4,0.6-2.1,0.8c-0.4,0.2-0.8,0.4-1.2,0.6c-0.6,0.3-1.2,0.6-1.8,0.9c-0.4,0.2-0.8,0.4-1.2,0.7c-0.6,0.3-1.1,0.6-1.6,0.9
	c-0.4,0.3-0.8,0.5-1.2,0.7c-0.5,0.3-1.1,0.6-1.6,1c-0.4,0.3-0.8,0.5-1.2,0.8c-0.5,0.3-1,0.7-1.5,1c-0.4,0.3-0.8,0.6-1.2,0.8
	c-0.5,0.4-1,0.7-1.4,1.1c-0.4,0.3-0.7,0.6-1.1,0.9c-0.5,0.4-0.9,0.7-1.3,1.1c-0.4,0.3-0.7,0.6-1.1,1c-0.4,0.4-0.8,0.8-1.3,1.2
	c-0.4,0.3-0.7,0.7-1.1,1c-0.4,0.4-0.8,0.8-1.2,1.3c-0.3,0.4-0.7,0.7-1,1.1c-0.4,0.4-0.8,0.8-1.2,1.3c-0.3,0.4-0.6,0.7-1,1.1
	c-0.4,0.4-0.7,0.9-1.1,1.4c-0.3,0.4-0.6,0.7-0.9,1.2c-0.4,0.5-0.7,1-1,1.4c-0.3,0.4-0.5,0.8-0.8,1.2c-0.3,0.5-0.6,1-1,1.5
	c-0.3,0.4-0.5,0.8-0.7,1.2c-0.3,0.5-0.6,1-0.9,1.5c-0.2,0.4-0.5,0.8-0.7,1.2c-0.3,0.5-0.6,1.1-0.8,1.6c-0.2,0.4-0.4,0.8-0.6,1.2
	c-0.3,0.5-0.5,1.1-0.8,1.6c-0.2,0.4-0.4,0.8-0.6,1.2c-0.3,0.6-0.5,1.2-0.7,1.8c-0.2,0.4-0.3,0.8-0.5,1.2c-0.2,0.6-0.5,1.3-0.7,1.9
	c-0.1,0.4-0.3,0.7-0.4,1.1c-0.3,0.8-0.5,1.5-0.7,2.3c-0.1,0.2-0.2,0.5-0.2,0.7c-0.3,1-0.5,2.1-0.7,3.1c-0.1,0.3-0.1,0.6-0.2,1
	c-0.2,0.7-0.3,1.4-0.4,2.1c-0.1,0.4-0.1,0.8-0.2,1.3c-0.1,0.6-0.2,1.2-0.3,1.9c-0.1,0.5-0.1,1-0.2,1.4c-0.1,0.6-0.1,1.2-0.2,1.8
	c-0.1,0.5-0.1,1-0.1,1.5c-0.1,0.6-0.1,1.2-0.1,1.8c0,0.5,0,1,0,1.5c0,0.6,0,1.2,0,1.7s0.1,1.1,0.1,1.5c0,0.6,0.1,1.1,0.1,1.7
	c0,0.6,0.1,1.1,0.1,1.6c0.1,0.5,0.1,1.1,0.2,1.7c0.1,0.6,0.1,1.1,0.2,1.6c0.1,0.5,0.2,1.1,0.3,1.7c0.1,0.6,0.2,1.1,0.3,1.6
	c0.1,0.5,0.2,1.1,0.3,1.7c0.1,0.6,0.2,1.1,0.4,1.6c0.2,0.8,0.4,1.6,0.6,2.5v0.1c0.3,1.1,0.6,2.2,1,3.3c0.4,1.1,0.7,2.2,1.2,3.2
	l0.1,0.1c0.3,0.8,0.6,1.5,1,2.3c0.2,0.5,0.4,1,0.7,1.5c0.2,0.5,0.5,1,0.7,1.5c0.3,0.5,0.5,1,0.7,1.4c0.3,0.5,0.5,1,0.8,1.5
	s0.5,1,0.8,1.4c0.3,0.5,0.6,1,0.9,1.4c0.3,0.5,0.6,0.9,0.8,1.3c0.3,0.4,0.6,0.9,1,1.4c0.3,0.5,0.6,0.8,0.9,1.3
	c0.3,0.4,0.7,0.9,1,1.3s0.6,0.8,1,1.2c0.3,0.4,0.7,0.8,1.1,1.3s0.7,0.8,1,1.2c0.4,0.4,0.7,0.8,1.1,1.2c0.4,0.4,0.7,0.7,1.1,1.1
	c0.4,0.4,0.8,0.8,1.2,1.2c0.4,0.4,0.7,0.7,1.1,1c0.4,0.4,0.9,0.8,1.4,1.2c0.4,0.3,0.7,0.6,1.1,0.9c0.8,0.7,1.6,1.3,2.4,2
	c0.4,0.3,0.7,0.5,1.1,0.7c0.5,0.4,1,0.7,1.5,1.1c0.4,0.3,0.8,0.5,1.2,0.8c0.5,0.3,1,0.6,1.4,1c0.4,0.3,0.8,0.5,1.3,0.7
	c0.5,0.3,1,0.6,1.4,0.8c0.5,0.3,0.9,0.5,1.3,0.7c0.4,0.2,1,0.5,1.5,0.7c0.5,0.3,0.9,0.4,1.4,0.6c0.5,0.2,1,0.5,1.5,0.7
	c0.5,0.2,1,0.4,1.4,0.6c0.5,0.2,1,0.4,1.5,0.6c0.5,0.2,1,0.4,1.4,0.5s1,0.4,1.5,0.5s1,0.3,1.4,0.5s1.1,0.3,1.6,0.5
	c0.5,0.2,1,0.3,1.5,0.4c0.5,0.1,1.1,0.3,1.6,0.4c0.5,0.1,1,0.2,1.5,0.3c0.5,0.1,1.1,0.2,1.6,0.3c0.5,0.1,1,0.2,1.5,0.3
	c0.5,0.1,1.1,0.2,1.6,0.3c0.5,0.1,1,0.2,1.5,0.2c0.6,0.1,1.1,0.1,1.7,0.2c0.5,0.1,1,0.1,1.5,0.1c0.6,0.1,1.1,0.1,1.7,0.1
	c0.5,0,1,0.1,1.5,0.1c0.6,0,1.2,0,1.8,0c0.5,0,1,0,1.5,0c0.6,0,1.2-0.1,1.8-0.1c0.5-0.1,1-0.1,1.5-0.1c0.6-0.1,1.2-0.1,1.8-0.2
	c0.5-0.1,1-0.1,1.5-0.2c0.6-0.1,1.2-0.2,1.9-0.3c0.5-0.1,1-0.2,1.4-0.2c0.6-0.1,1.3-0.3,2-0.4c0.4-0.1,0.9-0.2,1.3-0.3
	c0.7-0.2,1.4-0.4,2.2-0.5c0.4-0.1,0.7-0.2,1.1-0.3c1.1-0.3,2.2-0.6,3.2-1c1.1-0.4,2.1-0.7,3.2-1.2c0.4-0.2,0.7-0.3,1.1-0.4
	c0.7-0.3,1.4-0.6,2-0.8c0.4-0.2,0.8-0.4,1.2-0.6c0.6-0.3,1.2-0.6,1.8-0.8c0.4-0.2,0.8-0.5,1.3-0.7c0.5-0.3,1.1-0.6,1.6-0.9
	c0.4-0.3,0.8-0.5,1.3-0.7c0.5-0.3,1-0.6,1.5-1c0.4-0.3,0.8-0.5,1.2-0.8c0.5-0.3,1-0.6,1.4-1c0.4-0.3,0.8-0.6,1.2-0.9
	c0.5-0.4,0.9-0.7,1.4-1.1c0.4-0.3,0.8-0.6,1.2-1c0.4-0.3,0.8-0.7,1.3-1.1c0.4-0.4,0.7-0.7,1.2-1c0.4-0.4,0.8-0.7,1.2-1.1
	c0.4-0.4,0.7-0.7,1.1-1.1c0.4-0.4,0.8-0.8,1.2-1.2c0.4-0.4,0.7-0.7,1.1-1.1c0.4-0.4,0.7-0.8,1.1-1.2c0.4-0.4,0.7-0.8,1-1.2
	c0.3-0.4,0.7-0.8,1-1.3c0.3-0.4,0.6-0.8,1-1.2s0.6-0.8,1-1.3c0.3-0.5,0.6-0.8,0.9-1.3c0.3-0.4,0.6-0.9,0.9-1.3
	c0.3-0.4,0.6-0.8,0.8-1.3c0.3-0.4,0.5-0.9,0.8-1.4c0.3-0.5,0.5-0.9,0.8-1.4c0.3-0.5,0.5-1,0.7-1.4c0.3-0.5,0.5-0.9,0.7-1.4
	s0.5-1,0.7-1.5c0.2-0.5,0.4-1,0.6-1.4c0.2-0.5,0.4-1,0.6-1.5c0.2-0.5,0.4-1,0.6-1.4c0.2-0.5,0.4-1.1,0.6-1.6
	c0.2-0.5,0.3-0.9,0.5-1.4c0.2-0.6,0.4-1.2,0.5-1.8c0.1-0.4,0.3-0.8,0.4-1.2c0.3-1,0.5-2,0.7-3c0.1-0.4,0.2-0.8,0.3-1.3
	c0.1-0.6,0.3-1.2,0.4-1.9c0.1-0.5,0.2-1,0.2-1.4c0.1-0.6,0.2-1.2,0.3-1.8c0.1-0.5,0.1-1,0.2-1.5c0.1-0.6,0.1-1.2,0.2-1.8
	c0.1-0.5,0.1-1,0.1-1.5c0.1-0.6,0.1-1.2,0.1-1.8c0-0.5,0-1,0-1.5c0-0.6,0-1.2,0-1.8c0-0.5-0.1-1-0.1-1.5c0-0.6-0.1-1.2-0.1-1.8
	c-0.1-0.5-0.1-1-0.1-1.5c-0.1-0.6-0.1-1.2-0.2-1.8c-0.1-0.5-0.1-1-0.2-1.5c-0.1-0.6-0.2-1.2-0.3-1.8c-0.1-0.5-0.2-1-0.3-1.5
	c-0.1-0.6-0.2-1.2-0.4-1.8c-0.1-0.5-0.2-1-0.3-1.5c-0.2-0.8-0.4-1.6-0.6-2.5l-0.1-0.2c-0.3-1.1-0.6-2.2-1-3.2
	C193.6,107.4,193.3,106.3,192.9,105.3z M149.9,190.3c-33.3,11.2-69.5-6.8-80.7-40.1C58,116.9,76,80.7,109.3,69.5s69.5,6.8,80.7,40.1
	C201.3,142.9,183.2,179.2,149.9,190.3z"/>
<path class="st0" d="M194.5,110.1L194.5,110.1c-0.2-0.5-0.4-1.1-0.5-1.6c0.4,1.1,0.7,2.1,1,3.2C194.8,111.1,194.7,110.6,194.5,110.1
	z"/>
<path class="st0" d="M67.8,156.3c0.1,0.3,0.3,0.5,0.4,0.8c-0.3-0.8-0.7-1.5-1-2.3C67.3,155.3,67.6,155.8,67.8,156.3z"/>
<path class="st0" d="M192.2,103.6c-0.1-0.3-0.3-0.6-0.4-0.8c0.3,0.8,0.7,1.5,1,2.3C192.6,104.6,192.4,104.1,192.2,103.6z"/>
<path class="st0" d="M195.5,113.4c-0.2-0.5-0.3-1.1-0.4-1.6c0.2,0.8,0.4,1.6,0.6,2.5C195.6,114,195.6,113.7,195.5,113.4z"/>
<path class="st0" d="M193.4,106.8L193.4,106.8c-0.2-0.5-0.4-1-0.6-1.5c0.4,1.1,0.8,2.1,1.2,3.2C193.8,107.9,193.6,107.3,193.4,106.8
	z"/>
<path class="st0" d="M64.5,146.5c0.2,0.5,0.3,1.1,0.4,1.6c-0.2-0.8-0.4-1.6-0.6-2.5C64.4,145.9,64.4,146.3,64.5,146.5z"/>
<path class="st0" d="M65.4,149.9L65.4,149.9c0.2,0.5,0.4,1.1,0.5,1.6c-0.4-1.1-0.7-2.2-1-3.3C65.1,148.8,65.3,149.3,65.4,149.9z"/>
<path class="st0" d="M66.5,153.2L66.5,153.2c0.2,0.5,0.4,1.1,0.6,1.6c-0.4-1.1-0.8-2.1-1.2-3.2C66.1,152,66.3,152.6,66.5,153.2z"/>
<polygon class="st0" points="142.7,47.3 139.5,53.7 143.8,54.3 "/>
<path class="st0" d="M60.8,173.3c-1.8,1.2-2,2.5-0.7,4.4c0.9,1.4,1.3,1.4,2.4,0.6l3.6-2.3l-0.9-1.3
	C63.8,172.6,62.5,172.1,60.8,173.3z"/>
<path class="st0" d="M46.5,140.1l9.4-0.4c1.8-0.1,2.5,0.4,2.7,2l0.8-0.1l-0.2-5l-0.8,0.1c0.1,1.6-0.7,2.1-2.4,2.2l-8.5,0.4l11.7-9
	l-0.1-0.7l-11.2,0.5c-1.8,0.1-2.5-0.4-2.7-2l-0.8,0.1l0.2,5l0.8-0.1c-0.1-1.6,0.7-2.1,2.4-2.2l7.8-0.4L45,138.8l0.2,3.4l0.7-0.1
	C45.9,141.4,46,140.7,46.5,140.1z"/>
<path class="st0" d="M45.5,124.1c0.2-1.5,0.5-1.5,2-1.4l9.2,1.1c1.4,0.2,1.8,0.4,1.6,1.8l-0.1,0.2l0.7,0.1l0.6-5.6l-0.7-0.1
	l-0.1,0.3c-0.2,1.4-0.6,1.5-2,1.3l-9.2-1c-1.4-0.2-1.8-0.4-1.6-1.7l0.1-0.4l-0.7-0.1l-0.6,5.7l0.7,0.1L45.5,124.1z"/>
<path class="st0" d="M48.2,151.6c-0.4-1.4-0.1-1.6,1.4-2l9.1-2.2c1.3-0.3,1.8-0.3,2.1,1.2l0.1,0.2l0.7-0.2l-1.3-5.5l-0.7,0.2
	l0.1,0.3c0.3,1.3,0,1.6-1.4,2l-9,2.2c-1.4,0.3-1.8,0.3-2.1-1.1l-0.1-0.4l-0.7,0.2l1.3,5.5l0.7-0.2L48.2,151.6z"/>
<path class="st0" d="M75.1,192.1c-1,0.6-1.6,0.7-2.4,0.1l-0.4,0.5l3.3,2.7l0.4-0.5c-0.8-0.7-1-1.2-0.5-1.8c0.2-0.2,0.4-0.4,0.7-0.6
	l7.8-4.9l-3.3,9c-0.1,0.3-0.3,0.6-0.4,0.9c-0.3,0.4-0.8,0.2-1.7-0.5l-0.4,0.5l4.1,3.3l0.4-0.5c-1.1-1.1-0.8-1.7-0.3-3.1l4.3-11.7
	l-0.4-0.3L75.1,192.1z"/>
<path class="st0" d="M70.1,187.2l6.8-6.3c1-1,1.4-1.1,2.4,0l0.2,0.2l0.5-0.5l-3.9-4.2l-0.5,0.5l0.2,0.3c0.9,1,0.7,1.4-0.3,2.4
	l-6.8,6.3c-1.1,1-1.4,1.1-2.3,0.1l-0.3-0.3l-0.5,0.5l3.9,4.2l0.5-0.5l-0.2-0.2C68.9,188.4,69,188.1,70.1,187.2z"/>
<path class="st0" d="M58.9,118.5l0.7,0.2l1.1-4l-0.7-0.2l-0.1,0.2c-0.2,0.8-0.7,1.2-1.5,1c-0.3-0.1-0.5-0.2-0.7-0.3l-2-1.2l1.2-4.8
	l2.8-0.2c0.2-0.1,0.5-0.1,0.7,0c0.6,0.2,0.7,0.7,0.5,1.7l-0.1,0.2l0.7,0.2l1.3-5.1l-0.7-0.2c-0.1,0.4-0.3,0.7-0.5,1
	c-0.4,0.3-0.8,0.4-1.3,0.4l-13.2,1l0.1,1.6l10.3,6.5C58.7,116.9,59.1,117.4,58.9,118.5z"/>
<path class="st0" d="M64.4,161.2c0.6-1.4,0.6-3.1,0-4.6c-0.3-0.6-0.6-1.2-1.1-1.8c-0.3-0.4-1-1-1.5-2.3l-0.1-0.3l-3.2,1.3
	c-1.3,0.5-1.5,0.6-2.3-0.8l-0.7,0.3l2.1,5.1l0.7-0.3c-0.6-1.5-0.5-2,0.7-2.4l0.7-0.3c1.6-0.7,3.1-0.1,3.7,1.5
	c1.1,2.5-0.5,4.9-4.7,6.7c-4,1.6-6.7,1-7.7-1.4c-0.6-1.4-0.2-3.1,1.2-5.5l-0.5-0.4l-2.8,2.7l1,1.3c0.1,0.7,0.2,1.5,0.5,2.2
	c1.4,3.3,5.2,4.6,9.4,2.9C62.2,164.4,63.7,163,64.4,161.2z"/>
<path class="st0" d="M73.8,175l0.2,0.3l0.6-0.4l-3.1-4.7l-0.6,0.4l0.2,0.3c0.7,1.1,0.6,1.5-0.5,2.2l-3.8,2.5l-0.8-1.2l3.7-7
	l-1.9-2.8l-0.6,0.4l0.1,0.1c0.7,1.1,0.5,1.8-0.1,3.1l-2.4,4.7c-1.8-1.9-3.4-2.4-5-1.3c-2.1,1.4-2.1,3.6-0.2,6.6l3.1,4.7l0.6-0.4
	l-0.2-0.3c-0.7-1.2-0.6-1.5,0.5-2.2l7.8-5.1C72.6,173.9,73,173.8,73.8,175z"/>
<path class="st1" d="M120.3,55.7l-0.6-0.1c-1.1,2.4-2.7,3.8-5.1,4.3c-1.2,0.3-1.7-0.1-1.9-1.1l-1-4.8l1-0.2c1.8-0.4,2.8,0.1,3.3,1.8
	l0.6-0.2l-1.1-5.4l-0.6,0.2c0.1,1.7-0.6,2.5-2.3,2.9l-1,0.2l-0.8-4.1c-0.3-1.3,0.1-1.7,1.6-2c2.1-0.4,3.4,0.2,5.5,1.9l0.5-0.3
	l-2.1-3l-9.6,2l0.2,0.7l0.3-0.1c1.4-0.3,1.6,0,1.9,1.4l1.9,9.1c0.3,1.4,0.2,1.8-1.2,2.1l-0.3,0.1l0.2,0.7l10.3-2.1L120.3,55.7z"/>
<path class="st0" d="M135.1,58.3L135,59l4.1,0.6l0.1-0.7l-0.2-0.1c-0.9-0.1-1.3-0.6-1.1-1.4c0.1-0.3,0.1-0.5,0.2-0.7l1-2.1l4.9,0.7
	l0.5,2.8c0.1,0.2,0.1,0.5,0.1,0.7c-0.1,0.7-0.6,0.8-1.6,0.6h-0.2l-0.1,0.7l5.2,0.7l0.1-0.7c-0.4-0.1-0.7-0.2-1-0.4
	c-0.3-0.4-0.5-0.8-0.5-1.2l-2.3-13l-1.6,0.3L137,56.6C136.6,58,136.1,58.4,135.1,58.3z"/>
<path class="st0" d="M54.3,91.2c0.5-0.8,1-0.7,2-0.4l12.5,4l0.3-0.4l-7.2-8.4l10.5,3.3l0.3-0.4l-8.2-9.8c-0.7-0.9-1-1.4-0.6-2.3
	l-0.6-0.4l-2.2,3.3l0.6,0.4c0.7-0.8,1.2-1.2,1.7-0.8c0.2,0.2,0.4,0.4,0.6,0.6l4.4,5.1c0.5,0.6,1.1,1.2,1.7,1.8
	c-0.8-0.4-1.7-0.7-2.5-1l-6.4-2.1c-0.3-0.1-0.6-0.2-0.8-0.3c-0.5-0.3-0.3-0.8,0.3-1.8l-0.6-0.4l-3,4.6l0.6,0.4
	c0.7-1.1,1.2-1.3,2.1-1.1l0.8,0.3l4.3,5.2c0.4,0.4,0.9,1,1.6,1.7c-1-0.4-1.9-0.8-2.9-1.1l-6.3-2c-0.3-0.1-0.5-0.2-0.8-0.4
	c-0.3-0.2-0.2-0.7,0.3-1.4l0.2-0.3l-0.6-0.4l-2.7,4.1L54.3,91.2L54.3,91.2z"/>
<path class="st0" d="M153.8,63l0.3-0.7c-1.4-0.6-1.6-1.5-1-3.1l3.1-7.9l3.4,14.4l0.6,0.3l4.1-10.5c0.6-1.6,1.4-2.2,2.9-1.6l0.3-0.7
	l-4.7-1.8l-0.3,0.7c1.4,0.6,1.6,1.5,1,3.1l-2.8,7.2l-3.2-13.2l-3.2-1.2l-0.3,0.7c0.7,0.3,1.3,0.8,1.6,1.5l-3.4,8.8
	c-0.6,1.6-1.4,2.2-2.9,1.6l-0.3,0.7L153.8,63z"/>
<path class="st1" d="M131.7,58.1h-0.4c-1.3,0.1-1.5-0.3-1.6-1.5l-0.2-3.7l2.7-6.1c0.4-0.9,0.6-1.5,1.7-1.7l-0.1-0.7l-4.1,0.3
	l0.1,0.7c1-0.1,1.5,0.2,1.5,0.8c0,0.3-0.1,0.6-0.2,0.8l-2.2,5l-3.1-5.1c-0.2-0.2-0.3-0.5-0.3-0.7c0-0.4,0.4-0.5,1.3-0.6h0.2
	l-0.1-0.7l-4.9,0.3v0.7c1,0,1.2,0.2,1.6,0.8l3.9,6.6l0.2,3.4c0.1,1.3-0.1,1.7-1.4,1.8h-0.4l0.1,0.7l5.7-0.4L131.7,58.1z"/>
<path class="st1" d="M67.5,72.6c1.1-1,1.4-0.8,2.4,0.2l6.3,6.8c1,1.1,1.1,1.4,0.1,2.4L76,82.2l0.5,0.5l7.7-7.1L82.7,72l-0.6,0.3
	c0.3,2.7-0.3,4.6-2.1,6.3c-1,0.8-1.5,0.8-2.2,0.1L74.5,75l0.7-0.7c1.3-1.2,2.4-1.3,3.8-0.2l0.5-0.5l-3.7-4l-0.5,0.5
	c1,1.4,0.8,2.4-0.5,3.7L74,74.4l-2.8-3.1c-0.9-1-0.8-1.5,0.4-2.6c1.6-1.5,3-1.6,5.7-1.2l0.3-0.5l-3.3-1.5l-7.4,6.7l0.5,0.5
	L67.5,72.6z"/>
<path class="st1" d="M92.3,54.2c1.4-0.6,1.6-0.3,2.2,1l3.6,8.7c0.5,1.2,0.4,1.6-0.8,2.1L97,66.2l0.3,0.6l9.3-3.9l-0.2-4l-0.6,0.1
	c-0.6,2.5-1.9,4.2-3.8,5c-1.1,0.5-1.6,0.2-2-0.7l-3.7-8.9c-0.5-1.3-0.6-1.7,0.8-2.2l0.3-0.1L97,51.5l-5.2,2.1l0.3,0.6L92.3,54.2z"/>
<path class="st1" d="M84,65.9c1.3,0.3,2.3-0.2,3.3-0.5c2.4-0.7,3.8-0.9,4.9,0.7c0.8,1.2,0.5,2.9-0.7,3.8l-0.1,0.1
	c-1.3,0.8-3.4,1-6,0l-0.4,0.6l3.3,2.4c0.3-0.7,0.6-1.2,0.9-1.4c0.4-0.2,1.5-0.2,2.9-1.1c1.8-1.2,2.2-3.7,1-5.7
	c-1.2-1.8-3-2.3-5.3-1.5c-1.4,0.4-2.5,0.9-3.5,0.8c-0.7-0.1-1.4-0.5-1.9-1.1c-0.8-1.2-0.5-2.7,0.6-3.4c1.2-0.8,3-0.7,5.6,0.3
	l0.3-0.6l-3.1-2.3c-0.2,0.4-0.5,0.8-0.9,1.1c-0.4,0.3-1.3,0.3-2.2,0.9c-1.8,1.1-2.3,3.4-1.2,5.1c0.1,0.1,0.1,0.1,0.1,0.2
	C82,65,82.9,65.6,84,65.9z"/>
<path class="st1" d="M208.1,131.1c-2.3-0.2-4.2,0.3-5.7,1.5c-1.3,1-2,2.4-2.1,4c-0.1,0.7-0.1,1.4,0.1,2c0.1,0.5,0.4,1.4,0.3,2.7
	l-0.1,0.3l3.4,0.3c1.4,0.1,1.6,0.2,1.6,1.8l0.7,0.1l0.5-5.6l-0.7-0.1c-0.2,1.6-0.5,2-1.8,1.8l-0.8-0.1c-1.8-0.2-2.8-1.4-2.6-3.1
	c0.3-2.8,2.8-4.1,7.3-3.7c4.3,0.4,6.4,2.3,6.2,4.9c-0.2,1.5-1.3,2.9-3.6,4.2l0.3,0.6l3.7-1.1l-0.3-1.6c0.3-0.7,0.5-1.4,0.6-2.2
	C215.5,134.6,212.7,131.6,208.1,131.1z"/>
<path class="st1" d="M190.8,91.7l-0.2-0.3l-0.6,0.3l4.9,8.8l3.9-0.7l-0.1-0.6c-2.5-0.3-4.4-1.4-5.5-3.2c-0.6-1.1-0.4-1.5,0.5-2.1
	l8.4-4.8c1.3-0.7,1.6-0.7,2.3,0.5l0.2,0.3l0.6-0.4l-2.8-4.9l-0.6,0.4l0.2,0.3c0.7,1.3,0.5,1.5-0.7,2.3l-8.2,4.7
	C191.9,92.8,191.4,92.8,190.8,91.7z"/>
<path class="st1" d="M213.5,115c0.2,1.5-0.2,1.6-1.6,1.8l-9.2,0.9c-1.4,0.2-1.8,0-2-1.4l-0.1-0.3l-0.7,0.1l1,10.4l3.8,1l0.2-0.6
	c-2.3-1.3-3.5-3-3.7-5.5c-0.1-1.3,0.2-1.7,1.3-1.8l4.9-0.5l0.1,1c0.2,1.8-0.4,2.7-2.1,3.1l0.1,0.7l5.5-0.5l-0.1-0.7
	c-1.7-0.1-2.4-0.8-2.6-2.7l-0.1-1l4.2-0.4c1.3-0.1,1.6,0.2,1.8,1.9c0.2,2.2-0.5,3.4-2.4,5.3l0.3,0.5l3.2-1.8l-1-9.9l-0.7,0.1V115z"
	/>
<path class="st0" d="M207.9,101.5l-9,2.9c-1.3,0.4-1.6,0.3-2.1-1l-0.1-0.3l-0.7,0.2l3,9.5l4,0.2v-0.6c-2.4-0.8-4-2.2-4.7-4.2
	c-0.4-1.2-0.1-1.6,0.9-1.9l9.2-2.9c1.4-0.4,1.7-0.4,2.2,1l0.1,0.3l0.7-0.2l-1.7-5.4l-0.7,0.2l0.1,0.3
	C209.6,100.9,209.3,101.1,207.9,101.5z"/>
<path class="st0" d="M110.5,204.5c-1.5,0.5-2.3,2.1-1.8,3.6c0.5,1.5,2.1,2.3,3.6,1.8c1.5-0.5,2.3-2.1,1.8-3.6
	C113.6,204.9,112,204.1,110.5,204.5z"/>
<path class="st0" d="M174.1,74.8c1.9,1.5,4.2,1.6,6.8,0.1l-0.2-0.7c-2.1,1-3.8,1-5.3-0.2c-2.1-1.7-2.2-4.9,0.4-8.1
	c2.4-3,5.2-3.7,7.1-2.2c1.2,0.9,1.6,2.7,1.6,5.3l0.6,0.1l1.1-3.6l-1.5-0.7c-0.4-0.6-0.9-1.3-1.5-1.8c-1.2-1-2.9-1.3-4.3-0.9
	c-2,0.5-3.8,1.7-5,3.3C171.1,68.8,171.2,72.5,174.1,74.8z"/>
<path class="st0" d="M190.5,177.7c-1.5,0.5-2.3,2.1-1.8,3.6c0.5,1.5,2.1,2.3,3.6,1.8c1.5-0.5,2.3-2.1,1.8-3.6
	C193.7,178,192.1,177.1,190.5,177.7z"/>
<path class="st0" d="M212.3,149.5c-0.4,1.4-0.7,1.4-2.1,1.1l-8.9-2.7c-1.4-0.4-1.7-0.7-1.3-2l0.1-0.3l-0.7-0.2l-3,10.1l3.2,2.4
	l0.4-0.5c-1.6-2.1-2.1-4.1-1.4-6.5c0.4-1.2,0.8-1.5,1.9-1.2l4.7,1.4l-0.3,1c-0.5,1.8-1.4,2.3-3.1,2.1l-0.2,0.6l5.3,1.5l0.2-0.6
	c-1.5-0.7-1.9-1.7-1.4-3.4l0.3-1l4,1.2c1.3,0.4,1.5,0.8,1,2.4c-0.6,2.1-1.8,3-4.2,3.9l0.1,0.6l3.6-0.4l2.8-9.5l-0.7-0.2L212.3,149.5
	z"/>
<path class="st1" d="M138.4,202.1c-1.8,0.8-3.3,1.4-4.5,1.7l0.1,0.6l0.4-0.1c1.1-0.1,1.8-0.1,2,0.1c0.4,0.3,0.5,0.7,0.6,1.6l0.6,7.6
	c0.1,1.6-0.2,1.8-2.4,2.1l0.1,0.7l7.1-0.6l-0.1-0.7c-2.3,0.1-2.7-0.1-2.8-1.6L138.4,202.1z"/>
<path class="st1" d="M175,201l-6.2-9.7c-1.2,1.6-2.2,2.8-3.2,3.6l0.3,0.5l0.3-0.2c1-0.6,1.5-0.9,1.9-0.9c0.5,0.1,0.8,0.4,1.2,1.1
	l4.1,6.5c0.8,1.3,0.6,1.6-1.2,3l0.4,0.6l5.9-3.8l-0.4-0.6C176.3,202.2,175.8,202.3,175,201z"/>
<path class="st0" d="M195.1,147.9c0.3-1,0.5-2,0.7-3c0.1-0.4,0.2-0.8,0.3-1.3c0.1-0.6,0.3-1.2,0.4-1.9c0.1-0.5,0.2-1,0.2-1.4
	c0.1-0.6,0.2-1.2,0.3-1.8c0.1-0.5,0.1-1,0.2-1.5c0.1-0.6,0.1-1.2,0.2-1.8c0.1-0.5,0.1-1,0.1-1.5c0.1-0.6,0.1-1.2,0.1-1.8
	c0-0.5,0-1,0-1.5c0-0.6,0-1.2,0-1.8c0-0.5-0.1-1-0.1-1.5c0-0.6-0.1-1.2-0.1-1.8c-0.1-0.5-0.1-1-0.1-1.5c-0.1-0.6-0.1-1.2-0.2-1.8
	c-0.1-0.5-0.1-1-0.2-1.5c-0.1-0.6-0.2-1.2-0.3-1.8c-0.1-0.5-0.2-1-0.3-1.5c-0.1-0.6-0.2-1.2-0.4-1.8c-0.1-0.5-0.2-1-0.3-1.5
	c-0.1-0.3-0.1-0.6-0.2-0.9c-0.2-0.5-0.3-1.1-0.4-1.6v-0.1l0,0l-0.1-0.1c-0.2-0.5-0.3-1.1-0.5-1.6l0,0c-0.2-0.5-0.4-1.1-0.5-1.6
	c-0.2-0.5-0.4-1.1-0.6-1.6l0,0c-0.2-0.5-0.4-1-0.6-1.5l-0.1-0.1l0,0l-0.1-0.1c-0.2-0.5-0.4-1-0.6-1.5c-0.1-0.3-0.3-0.6-0.4-0.8
	c-0.2-0.5-0.4-0.9-0.6-1.4c-0.3-0.5-0.5-1.1-0.8-1.6c-0.2-0.4-0.4-0.9-0.7-1.3c-0.3-0.5-0.6-1.1-0.8-1.6c-0.3-0.4-0.5-0.8-0.7-1.3
	c-0.3-0.5-0.6-1-1-1.5c-0.3-0.4-0.5-0.8-0.8-1.2c-0.3-0.5-0.7-1-1-1.5c-0.3-0.4-0.5-0.8-0.8-1.2c-0.4-0.5-0.7-1-1.1-1.4
	c-0.3-0.4-0.6-0.7-0.9-1.1c-0.4-0.5-0.8-1-1.2-1.4c-0.3-0.4-0.6-0.7-0.9-1.1c-0.4-0.5-0.8-0.9-1.3-1.4c-0.3-0.3-0.6-0.6-0.9-1
	c-0.5-0.5-1-0.9-1.4-1.4c-0.3-0.3-0.6-0.6-0.9-0.8c-0.6-0.5-1.1-1-1.7-1.5c-0.2-0.2-0.4-0.4-0.7-0.6c-0.8-0.7-1.6-1.3-2.5-2
	c-0.2-0.2-0.4-0.3-0.5-0.4c-0.7-0.5-1.3-1-2-1.5c-0.3-0.2-0.6-0.4-1-0.6c-0.6-0.4-1.1-0.7-1.7-1.1c-0.4-0.2-0.7-0.4-1.1-0.7
	c-0.5-0.3-1.1-0.6-1.6-1c-0.4-0.2-0.8-0.4-1.2-0.6c-0.5-0.3-1.1-0.6-1.6-0.8c-0.4-0.2-0.8-0.4-1.3-0.6c-0.5-0.3-1.1-0.5-1.6-0.7
	c-0.4-0.2-0.9-0.4-1.3-0.6c-0.5-0.2-1.1-0.4-1.6-0.6c-0.5-0.2-0.9-0.3-1.4-0.5c-0.5-0.2-1.1-0.4-1.6-0.6c-0.5-0.2-1-0.3-1.4-0.5
	c-0.5-0.2-1.1-0.3-1.6-0.5c-0.5-0.2-1-0.3-1.4-0.4c-0.5-0.2-1.1-0.3-1.6-0.4c-0.5-0.1-1-0.2-1.4-0.3c-0.6-0.1-1.1-0.2-1.7-0.3
	c-0.5-0.1-1-0.2-1.5-0.3c-0.6-0.1-1.1-0.2-1.7-0.3c-0.5-0.1-1-0.1-1.5-0.2c-0.6-0.1-1.2-0.1-1.7-0.2c-0.5-0.1-1-0.1-1.5-0.1
	c-0.6-0.1-1.2-0.1-1.8-0.1c-0.5,0-1-0.1-1.5-0.1c-0.6,0-1.2,0-1.8,0c-0.5,0-1,0-1.5,0c-0.6,0-1.2,0.1-1.8,0.1
	c-0.5,0.1-1,0.1-1.5,0.1c-0.6,0.1-1.2,0.1-1.8,0.2c-0.5,0.1-1,0.1-1.4,0.2c-0.6,0.1-1.2,0.2-1.9,0.3c-0.5,0.1-1,0.2-1.4,0.2
	c-0.6,0.1-1.3,0.3-2,0.4c-0.4,0.1-0.8,0.2-1.3,0.3c-0.7,0.2-1.4,0.4-2.2,0.5c-0.4,0.1-0.7,0.2-1.1,0.3c-1.1,0.3-2.2,0.6-3.2,1
	c-1.1,0.4-2.1,0.7-3.2,1.1c-0.4,0.2-0.7,0.3-1,0.4c-0.7,0.3-1.4,0.6-2.1,0.8c-0.4,0.2-0.8,0.4-1.2,0.6c-0.6,0.3-1.2,0.6-1.8,0.9
	c-0.4,0.2-0.8,0.4-1.2,0.7c-0.6,0.3-1.1,0.6-1.6,0.9c-0.4,0.3-0.8,0.5-1.2,0.7c-0.5,0.3-1.1,0.6-1.6,1c-0.4,0.3-0.8,0.5-1.2,0.8
	c-0.5,0.3-1,0.7-1.5,1c-0.4,0.3-0.8,0.6-1.2,0.8c-0.5,0.4-1,0.7-1.4,1.1c-0.4,0.3-0.7,0.6-1.1,0.9c-0.5,0.4-0.9,0.7-1.3,1.1
	c-0.4,0.3-0.7,0.6-1.1,1c-0.4,0.4-0.8,0.8-1.3,1.2c-0.4,0.3-0.7,0.7-1.1,1c-0.4,0.4-0.8,0.8-1.2,1.3c-0.3,0.4-0.7,0.7-1,1.1
	c-0.4,0.4-0.8,0.8-1.2,1.3c-0.3,0.4-0.6,0.7-1,1.1c-0.4,0.4-0.7,0.9-1.1,1.4c-0.3,0.4-0.6,0.7-0.9,1.2c-0.4,0.5-0.7,1-1,1.4
	c-0.3,0.4-0.5,0.8-0.8,1.2c-0.3,0.5-0.6,1-1,1.5c-0.3,0.4-0.5,0.8-0.7,1.2c-0.3,0.5-0.6,1-0.9,1.5c-0.2,0.4-0.5,0.8-0.7,1.2
	c-0.3,0.5-0.6,1.1-0.8,1.6c-0.2,0.4-0.4,0.8-0.6,1.2c-0.3,0.5-0.5,1.1-0.8,1.6c-0.2,0.4-0.4,0.8-0.6,1.2c-0.3,0.6-0.5,1.2-0.7,1.8
	c-0.2,0.4-0.3,0.8-0.5,1.2c-0.2,0.6-0.5,1.3-0.7,1.9c-0.1,0.4-0.3,0.7-0.4,1.1c-0.3,0.8-0.5,1.5-0.7,2.3c-0.1,0.2-0.2,0.5-0.2,0.7
	c-0.3,1-0.5,2.1-0.7,3.1c-0.1,0.3-0.1,0.6-0.2,1c-0.2,0.7-0.3,1.4-0.4,2.1c-0.1,0.4-0.1,0.8-0.2,1.3c-0.1,0.6-0.2,1.2-0.3,1.9
	c-0.1,0.5-0.1,1-0.2,1.4c-0.1,0.6-0.1,1.2-0.2,1.8c-0.1,0.5-0.1,1-0.1,1.5c-0.1,0.6-0.1,1.2-0.1,1.8c0,0.5,0,1,0,1.5
	c0,0.6,0,1.2,0,1.7c0,0.5,0.1,1.1,0.1,1.5c0,0.6,0.1,1.1,0.1,1.7s0.1,1.1,0.1,1.6c0.1,0.5,0.1,1.1,0.2,1.7c0.1,0.6,0.1,1.1,0.2,1.6
	c0.1,0.5,0.2,1.1,0.3,1.7s0.2,1.1,0.3,1.6c0.1,0.5,0.2,1.1,0.3,1.7s0.2,1.1,0.4,1.6c0.1,0.3,0.1,0.6,0.2,0.8
	c0.2,0.5,0.3,1.1,0.4,1.6v0.1l0,0v0.1c0.2,0.5,0.3,1.1,0.5,1.6l0,0c0.2,0.5,0.4,1.1,0.5,1.6c0.2,0.5,0.4,1.1,0.6,1.6l0,0
	c0.2,0.5,0.4,1.1,0.6,1.6v0.1l0,0v0.1c0.2,0.5,0.4,1.1,0.6,1.5c0.1,0.3,0.3,0.5,0.4,0.8c0.2,0.5,0.4,1,0.7,1.5
	c0.2,0.5,0.5,1,0.7,1.5s0.5,1,0.7,1.4c0.3,0.5,0.5,1,0.8,1.5c0.3,0.5,0.5,1,0.8,1.4c0.3,0.5,0.6,1,0.9,1.4c0.3,0.5,0.6,0.9,0.8,1.3
	c0.3,0.4,0.6,0.9,1,1.4c0.3,0.5,0.6,0.8,0.9,1.3s0.7,0.9,1,1.3s0.6,0.8,1,1.2c0.3,0.4,0.7,0.8,1.1,1.3c0.4,0.4,0.7,0.8,1,1.2
	c0.4,0.4,0.7,0.8,1.1,1.2c0.4,0.4,0.7,0.7,1.1,1.1c0.4,0.4,0.8,0.8,1.2,1.2c0.4,0.4,0.7,0.7,1.1,1c0.4,0.4,0.9,0.8,1.4,1.2
	c0.4,0.3,0.7,0.6,1.1,0.9c0.8,0.7,1.6,1.3,2.4,2c0.4,0.3,0.7,0.5,1.1,0.7c0.5,0.4,1,0.7,1.5,1.1c0.4,0.3,0.8,0.5,1.2,0.8
	c0.5,0.3,1,0.6,1.4,1c0.4,0.3,0.8,0.5,1.3,0.7c0.5,0.3,1,0.6,1.4,0.8s0.9,0.5,1.3,0.7c0.4,0.2,1,0.5,1.5,0.7
	c0.5,0.3,0.9,0.4,1.4,0.6c0.5,0.2,1,0.5,1.5,0.7c0.5,0.2,1,0.4,1.4,0.6c0.5,0.2,1,0.4,1.5,0.6c0.5,0.2,1,0.4,1.4,0.5s1,0.4,1.5,0.5
	s1,0.3,1.4,0.5s1.1,0.3,1.6,0.5s1,0.3,1.5,0.4c0.5,0.2,1.1,0.3,1.6,0.4c0.5,0.1,1,0.2,1.5,0.3c0.5,0.1,1.1,0.2,1.6,0.3
	c0.5,0.1,1,0.2,1.5,0.3c0.5,0.1,1.1,0.2,1.6,0.3c0.5,0.1,1,0.2,1.5,0.2c0.6,0.1,1.1,0.1,1.7,0.2c0.5,0.1,1,0.1,1.5,0.1
	c0.6,0.1,1.1,0.1,1.7,0.1c0.5,0,1,0.1,1.5,0.1c0.6,0,1.2,0,1.8,0c0.5,0,1,0,1.5,0c0.6,0,1.2-0.1,1.8-0.1c0.5-0.1,1-0.1,1.5-0.1
	c0.6-0.1,1.2-0.1,1.8-0.2c0.5-0.1,1-0.1,1.5-0.2c0.6-0.1,1.2-0.2,1.9-0.3c0.5-0.1,1-0.2,1.4-0.2c0.6-0.1,1.3-0.3,2-0.4
	c0.4-0.1,0.9-0.2,1.3-0.3c0.7-0.2,1.4-0.4,2.2-0.5c0.4-0.1,0.7-0.2,1.1-0.3c1.1-0.3,2.2-0.6,3.2-1s2.1-0.7,3.2-1.2
	c0.4-0.2,0.7-0.3,1.1-0.4c0.7-0.3,1.4-0.6,2-0.8c0.4-0.2,0.8-0.4,1.2-0.6c0.6-0.3,1.2-0.6,1.8-0.8c0.4-0.2,0.8-0.5,1.3-0.7
	c0.5-0.3,1.1-0.6,1.6-0.9c0.4-0.3,0.8-0.5,1.3-0.7c0.5-0.3,1-0.6,1.5-1c0.4-0.3,0.8-0.5,1.2-0.8c0.5-0.3,1-0.6,1.4-1
	c0.4-0.3,0.8-0.6,1.2-0.9c0.5-0.4,0.9-0.7,1.4-1.1c0.4-0.3,0.8-0.6,1.2-1c0.4-0.3,0.8-0.7,1.3-1.1s0.7-0.7,1.2-1
	c0.4-0.4,0.8-0.7,1.2-1.1c0.4-0.4,0.7-0.7,1.1-1.1c0.4-0.4,0.8-0.8,1.2-1.2c0.4-0.4,0.7-0.7,1.1-1.1c0.4-0.4,0.7-0.8,1.1-1.2
	c0.4-0.4,0.7-0.8,1-1.2s0.7-0.8,1-1.3s0.6-0.8,1-1.2c0.3-0.4,0.6-0.8,1-1.3c0.3-0.5,0.6-0.8,0.9-1.3s0.6-0.9,0.9-1.3
	c0.3-0.4,0.6-0.8,0.8-1.3c0.3-0.4,0.5-0.9,0.8-1.4c0.3-0.5,0.5-0.9,0.8-1.4c0.3-0.5,0.5-1,0.7-1.4c0.3-0.5,0.5-0.9,0.7-1.4
	c0.2-0.5,0.5-1,0.7-1.5c0.2-0.5,0.4-1,0.6-1.4c0.2-0.5,0.4-1,0.6-1.5c0.2-0.5,0.4-1,0.6-1.4c0.2-0.5,0.4-1.1,0.6-1.6
	c0.2-0.5,0.3-0.9,0.5-1.4c0.2-0.6,0.4-1.2,0.5-1.8C194.8,148.6,194.9,148.3,195.1,147.9z"/>
<path class="st1" d="M229.3,112.3l2.6-12.5l-9-9.1l-0.3-12.8l-10.8-6.9l-3.1-12.4l-12.1-4.3l-5.8-11.4l-12.7-1.5l-8.2-9.9l-12.8,1.4
	l-10.2-7.8l-12.1,4.2l-11.6-5.4l-10.9,6.8l-12.5-2.6l-9.1,9l-12.8,0.3l-6.9,10.8l-12.4,3.1l-4.3,12.1l-11.5,5.8l-1.5,12.7l-9.9,8.2
	l1.4,12.8L25.1,113l4.2,12.1l-5.4,11.7l6.8,10.9l-2.6,12.5l9,9.1l0.3,12.8l10.8,6.9l3.1,12.4l12.1,4.3l5.8,11.4l12.7,1.5l8.2,9.9
	l12.8-1.4l10.2,7.8l12.1-4.2l11.7,5.3l10.9-6.8l12.5,2.6l9.1-9l12.8-0.3l6.9-10.8l12.4-3.1l4.3-12.1l11.4-5.8l1.5-12.7l9.9-8.2
	l-1.4-12.8l7.8-10.2l-4.2-12.1l5.3-11.7L229.3,112.3z M159.4,217.4c-48.2,16.2-100.7-9.9-116.8-58s9.9-100.7,58.1-116.9
	s100.7,9.9,116.8,58S207.6,201.2,159.4,217.4z"/>
<path class="st0" d="M100.6,42.5c-48.2,16.2-74.3,68.7-58.1,116.8s68.7,74.3,116.8,58s74.3-68.7,58-116.8S148.8,26.3,100.6,42.5z"/>
<path class="st0" d="M152.3,58.9l3.4-8.8c-0.3-0.7-0.8-1.2-1.6-1.5l0.3-0.7l3.2,1.2l3.2,13.2l2.9-7.3c0.6-1.6,0.5-2.5-1-3.1l0.3-0.7
	l4.7,1.8l-0.3,0.7c-1.5-0.5-2.2-0.1-2.9,1.6l-4.1,10.5l-0.6-0.3l-3.4-14.4l-3.1,7.9c-0.6,1.6-0.5,2.5,1,3.1l-0.3,0.7l-4.7-1.8
	l0.3-0.7C150.9,61,151.7,60.5,152.3,58.9z"/>
<path class="st0" d="M144.2,45.5l2.3,13c0.1,0.5,0.2,0.9,0.5,1.2c0.3,0.2,0.6,0.4,1,0.4l-0.1,0.7l-5.2-0.8l0.1-0.7h0.2
	c1.1,0.2,1.5,0,1.6-0.6c0-0.3,0-0.5-0.1-0.7l-0.5-2.8l-4.9-0.7l-1,2.1c-0.1,0.3-0.2,0.5-0.2,0.7c-0.1,0.8,0.3,1.3,1.1,1.4l0.2,0.1
	l-0.1,0.7l-4.1-0.6l0.1-0.7c1.1,0.1,1.5-0.4,2.1-1.5l5.4-10.9L144.2,45.5z"/>
<path class="st0" d="M56.4,86.8l0.6,0.4l-0.2,0.3c-0.5,0.8-0.6,1.3-0.3,1.4c0.3,0.2,0.5,0.3,0.8,0.4l6.3,2c1,0.3,1.9,0.7,2.9,1.1
	c-0.7-0.7-1.2-1.2-1.6-1.7l-4.3-5.2l-0.8-0.3c-0.8-0.3-1.3,0-2.1,1.1L57,85.8l3-4.6l0.6,0.4c-0.6,1-0.8,1.4-0.3,1.8
	c0.3,0.2,0.6,0.3,0.8,0.3l6.4,2.1c0.9,0.3,1.8,0.6,2.5,1c-0.6-0.5-1.2-1.1-1.7-1.8L64,79.9c-0.2-0.2-0.4-0.4-0.6-0.6
	c-0.6-0.4-1-0.1-1.7,0.8l-0.6-0.4l2.2-3.3l0.6,0.4c-0.4,0.9-0.1,1.4,0.6,2.3l8.2,9.8l-0.3,0.4L61.9,86l7.2,8.4l-0.3,0.4l-12.5-4
	c-1.1-0.3-1.5-0.4-2,0.4l-0.1,0.1l-0.6-0.4L56.4,86.8z"/>
<path class="st0" d="M47.2,108.1l13.2-1c0.5,0,0.9-0.1,1.3-0.4c0.3-0.3,0.4-0.6,0.5-1l0.7,0.2l-1.3,5.1l-0.7-0.2l0.1-0.2
	c0.3-1,0.2-1.5-0.5-1.7c-0.2-0.1-0.5-0.1-0.7,0l-2.8,0.2l-1.2,4.8l2,1.2c0.2,0.2,0.5,0.3,0.7,0.3c0.8,0.2,1.3-0.1,1.5-1l0.1-0.2
	l0.7,0.2l-1.1,4l-0.7-0.2c0.2-1-0.2-1.5-1.3-2.2l-10.3-6.5L47.2,108.1z"/>
<path class="st0" d="M45.4,118.7l0.7,0.1l-0.1,0.4c-0.2,1.3,0.2,1.5,1.6,1.7l9.2,1c1.4,0.2,1.9,0,2-1.3l0.1-0.3l0.7,0.1l-0.6,5.7
	l-0.7-0.1l0.1-0.2c0.2-1.4-0.2-1.6-1.6-1.8l-9.2-1.1c-1.4-0.2-1.8-0.1-2,1.4l-0.1,0.3l-0.7-0.1L45.4,118.7z"/>
<path class="st0" d="M45,138.8l10.7-8.3l-7.8,0.4c-1.8,0.1-2.5,0.6-2.4,2.2l-0.8,0.1l-0.2-5l0.8-0.1c0.1,1.5,0.8,2,2.7,2l11.2-0.5
	l0.1,0.7l-11.7,9l8.5-0.4c1.8-0.1,2.5-0.6,2.4-2.2l0.8-0.1l0.2,5l-0.8,0.1c-0.1-1.5-0.8-2-2.7-2l-9.4,0.4c-0.6,0.6-0.7,1.3-0.7,2.1
	l-0.7,0.1L45,138.8z"/>
<path class="st0" d="M46.2,146.5l0.7-0.2l0.1,0.4c0.3,1.3,0.7,1.4,2.1,1.1l9-2.2c1.4-0.3,1.8-0.6,1.4-2l-0.1-0.3l0.7-0.2l1.3,5.5
	l-0.7,0.2l-0.1-0.2c-0.4-1.4-0.7-1.5-2.1-1.2l-9.1,2.2c-1.4,0.3-1.7,0.5-1.4,2l0.1,0.3l-0.7,0.2L46.2,146.5z"/>
<path class="st0" d="M50.7,162.4c-0.3-0.7-0.4-1.4-0.5-2.2l-1.1-1.3l2.8-2.7l0.5,0.4c-1.3,2.3-1.8,4-1.2,5.5c1,2.4,3.8,3.1,7.7,1.4
	c4.1-1.8,5.7-4.1,4.7-6.7c-0.7-1.6-2.1-2.2-3.7-1.5l-0.7,0.3c-1.2,0.5-1.4,1-0.7,2.4l-0.7,0.3l-2.1-5.1l0.7-0.3
	c0.7,1.4,1,1.4,2.3,0.8l3.1-1.3l0.1,0.3c0.5,1.3,1.3,1.9,1.5,2.3c0.4,0.5,0.8,1.1,1.1,1.8c0.7,1.4,0.7,3.1,0,4.6
	c-0.7,1.8-2.2,3.1-4.3,4C55.9,167,52,165.7,50.7,162.4z"/>
<path class="st0" d="M63.1,182.1l0.2,0.3l-0.6,0.4l-3.1-4.7c-2-3-1.9-5.3,0.2-6.6c1.6-1.1,3.2-0.6,5,1.3l2.4-4.7
	c0.6-1.3,0.8-1.9,0.1-3.1l-0.1-0.1l0.6-0.4l1.9,2.8l-3.8,7l0.8,1.2l3.8-2.5c1.1-0.7,1.3-1.1,0.5-2.2l-0.2-0.3l0.6-0.4l3.1,4.7
	l-0.6,0.4l-0.2-0.3c-0.7-1.2-1.2-1.1-2.4-0.3l-7.8,5.1C62.5,180.6,62.3,181,63.1,182.1z"/>
<path class="st0" d="M69.9,189.5l0.2,0.2l-0.5,0.5l-3.9-4.2l0.5-0.5l0.3,0.3c0.9,1,1.3,0.9,2.3-0.1l6.8-6.3c1.1-1,1.2-1.4,0.3-2.4
	l-0.2-0.3l0.5-0.5l3.9,4.2l-0.5,0.5l-0.2-0.2c-1-1.1-1.4-1-2.4,0l-6.8,6.3C69,188.1,68.9,188.4,69.9,189.5z"/>
<path class="st0" d="M82.4,197.3c-0.5,1.4-0.8,2.1,0.3,3.1l-0.4,0.5l-4.1-3.3l0.4-0.5c0.9,0.6,1.4,0.8,1.7,0.5
	c0.2-0.3,0.3-0.6,0.4-0.9l3.3-9l-7.8,4.9c-0.3,0.2-0.5,0.4-0.7,0.6c-0.5,0.6-0.3,1.1,0.5,1.8l-0.4,0.5l-3.3-2.7l0.4-0.5
	c0.8,0.6,1.4,0.5,2.4-0.1l11.2-6.8l0.4,0.3L82.4,197.3z"/>
<path class="st0" d="M112.4,210c-1.5,0.5-3.1-0.3-3.6-1.8c-0.5-1.5,0.3-3.1,1.8-3.6c1.5-0.5,3.1,0.3,3.6,1.8
	C114.6,207.8,113.9,209.5,112.4,210z"/>
<path class="st0" d="M192.4,183.1c-1.5,0.5-3.1-0.3-3.6-1.8c-0.5-1.5,0.3-3.1,1.8-3.6c1.5-0.5,3.1,0.3,3.6,1.8
	C194.7,180.9,193.9,182.6,192.4,183.1z"/>
<path class="st0" d="M193.7,152.3c-0.2,0.5-0.4,1.1-0.6,1.6c-0.2,0.5-0.4,1-0.6,1.4c-0.2,0.5-0.4,1-0.6,1.5c-0.2,0.5-0.4,1-0.6,1.4
	c-0.2,0.5-0.4,1-0.7,1.5c-0.3,0.5-0.5,0.9-0.7,1.4c-0.2,0.5-0.5,1-0.7,1.4c-0.3,0.5-0.5,0.9-0.8,1.4c-0.3,0.5-0.5,1-0.8,1.4
	c-0.3,0.5-0.5,0.9-0.8,1.3c-0.3,0.4-0.6,0.9-0.9,1.3c-0.3,0.4-0.6,0.8-0.9,1.3c-0.3,0.4-0.6,0.9-1,1.3s-0.6,0.8-1,1.2
	c-0.3,0.4-0.7,0.8-1,1.3c-0.4,0.4-0.7,0.8-1,1.2s-0.7,0.8-1.1,1.2c-0.4,0.4-0.7,0.7-1.1,1.1s-0.7,0.8-1.2,1.2
	c-0.4,0.4-0.7,0.7-1.1,1.1c-0.4,0.4-0.8,0.7-1.2,1.1c-0.4,0.4-0.7,0.7-1.2,1c-0.4,0.3-0.8,0.7-1.3,1.1s-0.8,0.6-1.2,1
	c-0.4,0.4-0.9,0.7-1.4,1.1c-0.4,0.3-0.8,0.6-1.2,0.9c-0.5,0.3-1,0.7-1.4,1c-0.4,0.3-0.8,0.6-1.2,0.8c-0.5,0.3-1,0.6-1.5,1
	c-0.4,0.3-0.8,0.5-1.3,0.7c-0.5,0.3-1.1,0.6-1.6,0.9c-0.4,0.2-0.8,0.5-1.3,0.7c-0.6,0.3-1.2,0.6-1.8,0.8c-0.4,0.2-0.8,0.4-1.2,0.6
	c-0.7,0.3-1.4,0.6-2,0.8c-0.4,0.2-0.7,0.3-1.1,0.4c-1.1,0.4-2.1,0.8-3.2,1.2c-1.1,0.4-2.2,0.7-3.2,1c-0.4,0.1-0.7,0.2-1.1,0.3
	c-0.7,0.2-1.4,0.4-2.2,0.5c-0.4,0.1-0.9,0.2-1.3,0.3c-0.6,0.2-1.3,0.3-2,0.4c-0.5,0.1-1,0.2-1.4,0.2c-0.6,0.1-1.2,0.2-1.9,0.3
	c-0.5,0.1-1,0.1-1.5,0.2c-0.6,0.1-1.2,0.1-1.8,0.2c-0.5,0.1-1,0.1-1.5,0.1c-0.6,0.1-1.2,0.1-1.8,0.1c-0.5,0-1,0-1.5,0
	c-0.6,0-1.2,0-1.8,0c-0.5,0-1-0.1-1.5-0.1c-0.6,0-1.2-0.1-1.7-0.1c-0.5-0.1-1-0.1-1.5-0.1c-0.6-0.1-1.1-0.1-1.7-0.2
	c-0.5-0.1-1-0.1-1.5-0.2c-0.5-0.1-1.1-0.2-1.6-0.3c-0.5-0.1-1-0.2-1.5-0.3c-0.5-0.1-1.1-0.2-1.6-0.3c-0.5-0.1-1-0.2-1.5-0.3
	c-0.5-0.1-1.1-0.3-1.6-0.4c-0.5-0.2-1-0.3-1.5-0.4c-0.5-0.2-1.1-0.3-1.6-0.5c-0.5-0.2-1-0.3-1.4-0.5c-0.5-0.2-1.1-0.4-1.5-0.5
	c-0.5-0.2-1-0.4-1.4-0.5c-0.5-0.2-1-0.4-1.5-0.6c-0.5-0.2-1-0.4-1.4-0.6c-0.5-0.2-1-0.5-1.5-0.7c-0.5-0.2-0.9-0.4-1.4-0.6
	c-0.5-0.2-1-0.5-1.5-0.7c-0.5-0.2-0.9-0.5-1.3-0.7c-0.4-0.3-1-0.6-1.4-0.8c-0.4-0.3-0.8-0.5-1.3-0.7c-0.5-0.3-1-0.6-1.4-1
	c-0.4-0.3-0.8-0.5-1.2-0.8c-0.5-0.4-1-0.7-1.5-1.1c-0.4-0.3-0.7-0.5-1.1-0.7c-0.8-0.6-1.6-1.3-2.4-2c-0.4-0.3-0.7-0.6-1.1-0.9
	c-0.5-0.4-0.9-0.8-1.4-1.2c-0.4-0.3-0.7-0.7-1.1-1c-0.4-0.4-0.8-0.8-1.2-1.2c-0.4-0.4-0.7-0.7-1.1-1.1c-0.4-0.4-0.7-0.8-1.1-1.2
	c-0.4-0.4-0.7-0.8-1-1.2s-0.7-0.8-1.1-1.3c-0.4-0.4-0.6-0.8-1-1.2c-0.3-0.4-0.7-0.9-1-1.3s-0.6-0.8-0.9-1.3s-0.6-0.9-1-1.4
	c-0.3-0.5-0.6-0.9-0.8-1.3c-0.3-0.4-0.6-1-0.9-1.4c-0.3-0.5-0.5-0.9-0.8-1.4s-0.5-1-0.8-1.5c-0.3-0.5-0.5-1-0.7-1.4
	c-0.3-0.5-0.5-1-0.7-1.5c-0.3-0.5-0.5-1-0.7-1.5c-0.1-0.3-0.3-0.5-0.4-0.8c-0.2-0.5-0.4-1-0.6-1.5v-0.1l0,0v-0.1
	c-0.2-0.5-0.4-1.1-0.6-1.6l0,0c-0.2-0.5-0.4-1.1-0.6-1.6c-0.2-0.5-0.4-1.1-0.5-1.6l0,0c-0.2-0.5-0.3-1.1-0.5-1.6v-0.1l0,0v-0.1
	c-0.2-0.5-0.3-1.1-0.4-1.6c-0.1-0.3-0.1-0.6-0.2-0.8c-0.1-0.5-0.3-1.1-0.4-1.6c-0.1-0.6-0.2-1.1-0.3-1.7c-0.1-0.5-0.2-1.1-0.3-1.6
	c-0.1-0.5-0.2-1.1-0.3-1.7c-0.1-0.6-0.2-1.1-0.2-1.6c-0.1-0.5-0.1-1.1-0.2-1.7c-0.1-0.6-0.1-1.1-0.1-1.6c-0.1-0.5-0.1-1.1-0.1-1.7
	c0-0.5-0.1-1.1-0.1-1.5c0-0.6,0-1.2,0-1.7s0-1,0-1.5c0-0.6,0.1-1.2,0.1-1.8c0.1-0.5,0.1-1,0.1-1.5c0.1-0.6,0.1-1.2,0.2-1.8
	c0.1-0.5,0.1-1,0.2-1.4c0.1-0.6,0.2-1.3,0.3-1.9c0.1-0.4,0.1-0.8,0.2-1.3c0.1-0.7,0.3-1.4,0.4-2.1c0.1-0.3,0.1-0.6,0.2-1
	c0.2-1,0.5-2.1,0.8-3.1c0.1-0.2,0.2-0.5,0.2-0.7c0.2-0.8,0.5-1.6,0.7-2.3c0.1-0.4,0.3-0.7,0.4-1.1c0.2-0.6,0.4-1.3,0.7-1.9
	c0.2-0.4,0.3-0.8,0.5-1.2c0.2-0.6,0.5-1.2,0.7-1.8c0.2-0.4,0.4-0.8,0.6-1.2c0.3-0.5,0.5-1.1,0.8-1.6c0.2-0.4,0.4-0.8,0.6-1.2
	c0.3-0.5,0.5-1.1,0.8-1.6c0.2-0.4,0.5-0.8,0.7-1.2c0.3-0.5,0.6-1,0.9-1.5c0.3-0.4,0.5-0.8,0.7-1.2c0.3-0.5,0.6-1,1-1.5
	c0.3-0.4,0.5-0.8,0.8-1.2c0.3-0.5,0.7-1,1-1.4c0.3-0.4,0.6-0.7,0.9-1.2c0.4-0.5,0.7-0.9,1.1-1.4c0.3-0.4,0.6-0.7,1-1.1
	c0.4-0.4,0.7-0.8,1.2-1.3c0.3-0.4,0.6-0.7,1-1.1c0.4-0.4,0.8-0.8,1.2-1.3c0.4-0.4,0.7-0.7,1.1-1c0.4-0.4,0.8-0.8,1.3-1.2
	c0.4-0.3,0.7-0.6,1.1-1c0.4-0.4,0.9-0.7,1.3-1.1c0.4-0.3,0.7-0.6,1.1-0.9c0.5-0.4,1-0.7,1.4-1.1c0.4-0.3,0.8-0.6,1.2-0.8
	c0.5-0.4,1-0.7,1.5-1c0.4-0.3,0.8-0.5,1.2-0.8c0.5-0.3,1.1-0.6,1.6-1c0.4-0.3,0.8-0.5,1.2-0.7c0.5-0.3,1.1-0.6,1.6-0.9
	c0.4-0.2,0.8-0.4,1.2-0.7c0.6-0.3,1.2-0.6,1.8-0.9c0.4-0.2,0.8-0.4,1.2-0.6c0.7-0.3,1.4-0.6,2.1-0.8c0.3-0.2,0.7-0.3,1-0.4
	c1.1-0.4,2.1-0.8,3.2-1.2c1.1-0.4,2.2-0.7,3.2-1c0.4-0.1,0.7-0.2,1.1-0.3c0.7-0.2,1.4-0.4,2.2-0.5c0.4-0.1,0.8-0.2,1.3-0.3
	c0.6-0.2,1.3-0.3,2-0.4c0.5-0.1,1-0.2,1.4-0.2c0.6-0.1,1.2-0.2,1.9-0.3c0.5-0.1,1-0.1,1.4-0.2c0.6-0.1,1.2-0.1,1.8-0.2
	c0.5-0.1,1-0.1,1.5-0.1c0.6-0.1,1.2-0.1,1.8-0.1c0.5,0,1,0,1.5,0c0.6,0,1.2,0,1.8,0c0.5,0,1,0.1,1.5,0.1c0.6,0,1.2,0.1,1.8,0.1
	c0.5,0.1,1,0.1,1.5,0.1c0.6,0.1,1.2,0.1,1.7,0.2c0.5,0.1,1,0.1,1.5,0.2c0.6,0.1,1.1,0.2,1.7,0.3c0.5,0.1,1,0.2,1.5,0.3
	c0.6,0.1,1.1,0.2,1.7,0.3c0.5,0.1,1,0.2,1.4,0.3c0.5,0.1,1.1,0.3,1.6,0.4c0.5,0.1,1,0.3,1.4,0.4c0.5,0.2,1.1,0.3,1.6,0.5
	c0.5,0.2,1,0.3,1.4,0.5c0.5,0.2,1.1,0.4,1.6,0.6c0.5,0.2,0.9,0.3,1.4,0.5c0.5,0.2,1.1,0.4,1.6,0.6c0.4,0.2,0.9,0.4,1.3,0.6
	c0.5,0.2,1.1,0.5,1.6,0.7c0.4,0.2,0.8,0.4,1.3,0.6c0.5,0.3,1.1,0.5,1.6,0.8c0.4,0.2,0.8,0.4,1.2,0.6c0.5,0.3,1.1,0.6,1.6,1
	c0.4,0.2,0.7,0.4,1.1,0.7c0.6,0.4,1.1,0.7,1.7,1.1c0.3,0.2,0.6,0.4,1,0.6c0.7,0.5,1.4,1,2,1.5c0.2,0.1,0.4,0.3,0.5,0.4
	c0.8,0.6,1.6,1.3,2.5,2c0.2,0.2,0.5,0.4,0.7,0.6c0.6,0.5,1.2,1,1.7,1.5c0.3,0.3,0.6,0.6,0.9,0.8c0.5,0.5,1,0.9,1.4,1.4
	c0.3,0.3,0.6,0.6,0.9,1c0.4,0.5,0.8,0.9,1.3,1.4c0.3,0.3,0.6,0.7,0.9,1.1c0.4,0.5,0.8,1,1.2,1.4c0.3,0.4,0.6,0.7,0.9,1.1
	c0.4,0.5,0.7,1,1.1,1.4c0.3,0.4,0.6,0.8,0.8,1.2c0.4,0.5,0.7,1,1,1.5c0.3,0.4,0.5,0.8,0.8,1.2c0.3,0.5,0.6,1,1,1.5
	c0.3,0.4,0.5,0.8,0.7,1.3c0.3,0.5,0.6,1.1,0.8,1.6c0.2,0.4,0.5,0.9,0.7,1.3c0.3,0.5,0.5,1.1,0.8,1.6c0.2,0.5,0.4,0.9,0.6,1.4
	c0.1,0.3,0.3,0.6,0.4,0.8c0.2,0.5,0.4,1,0.6,1.5l0.1,0.1l0,0l0.1,0.1c0.2,0.5,0.4,1,0.6,1.5l0,0c0.2,0.5,0.4,1.1,0.6,1.6
	c0.2,0.5,0.4,1.1,0.5,1.6l0,0c0.2,0.5,0.3,1.1,0.5,1.6l0.1,0.1l0,0v0.1c0.2,0.5,0.3,1.1,0.4,1.6c0.1,0.3,0.1,0.6,0.2,0.9
	c0.1,0.5,0.2,1,0.3,1.5c0.1,0.6,0.3,1.2,0.4,1.8c0.1,0.5,0.2,1,0.3,1.5c0.1,0.6,0.2,1.2,0.3,1.8c0.1,0.5,0.2,1,0.2,1.5
	c0.1,0.6,0.1,1.2,0.2,1.8c0.1,0.5,0.1,1,0.1,1.5c0.1,0.6,0.1,1.2,0.1,1.8c0,0.5,0.1,1,0.1,1.5c0,0.6,0,1.2,0,1.8c0,0.5,0,1,0,1.5
	c0,0.6-0.1,1.2-0.1,1.8c-0.1,0.5-0.1,1-0.1,1.5c-0.1,0.6-0.1,1.2-0.2,1.8c-0.1,0.5-0.1,1-0.2,1.5c-0.1,0.6-0.2,1.2-0.3,1.8
	c-0.1,0.5-0.2,1-0.2,1.4c-0.1,0.6-0.3,1.2-0.4,1.9c-0.1,0.4-0.2,0.8-0.3,1.3c-0.3,1.1-0.5,2.1-0.8,3.1c-0.1,0.4-0.3,0.8-0.4,1.2
	c-0.2,0.6-0.4,1.2-0.5,1.8C194,151.4,193.8,151.8,193.7,152.3z"/>
<path class="st0" d="M210.3,159l-3.6,0.4l-0.1-0.6c2.5-1,3.6-1.9,4.2-3.9c0.5-1.5,0.3-2-1-2.4l-4-1.2l-0.3,1
	c-0.5,1.7-0.1,2.7,1.4,3.4l-0.2,0.6l-5.3-1.5l0.2-0.6c1.8,0.3,2.7-0.3,3.1-2.1l0.3-1l-4.7-1.4c-1-0.3-1.5-0.1-1.9,1.2
	c-0.7,2.4-0.3,4.4,1.4,6.5l-0.4,0.5l-3.2-2.4l3-10.1l0.7,0.2v0.3c-0.4,1.3-0.1,1.6,1.3,2l8.9,2.7c1.4,0.4,1.7,0.4,2.1-1.1l0.1-0.3
	l0.7,0.2L210.3,159z"/>
<path class="st0" d="M209.2,99.5l-0.1-0.3l0.7-0.2l1.7,5.4l-0.7,0.2l-0.1-0.3c-0.4-1.4-0.8-1.4-2.2-1l-9.2,2.9
	c-1,0.3-1.3,0.8-0.9,1.9c0.6,2,2.2,3.4,4.7,4.2v0.6l-4-0.2l-3-9.6l0.7-0.2l0.1,0.3c0.4,1.2,0.8,1.3,2.1,1l9-2.9
	C209.3,101.1,209.6,100.9,209.2,99.5z"/>
<path class="st0" d="M183.2,63c0.6,0.5,1.1,1.1,1.5,1.8l1.5,0.7l-1.1,3.6l-0.6-0.1c0-2.7-0.4-4.3-1.6-5.3c-1.9-1.5-4.7-0.7-7.1,2.2
	c-2.5,3.2-2.5,6.4-0.4,8.1c1.4,1.1,3.1,1.2,5.3,0.2l0.2,0.7c-2.6,1.4-4.8,1.4-6.8-0.1c-2.9-2.2-3-6-0.3-9.4c1.3-1.6,3-2.8,5-3.3
	C180.3,61.7,181.9,62,183.2,63z"/>
<path class="st0" d="M192.8,105.2L192.8,105.2L192.8,105.2c-0.1,0,0,0.1,0,0.1V105.2z"/>
<path class="st0" d="M65,148.2L65,148.2L65,148.2L65,148.2L65,148.2z"/>
<path class="st0" d="M195,111.8L195,111.8l-0.1-0.1L195,111.8L195,111.8z"/>
<path class="st0" d="M67.1,154.7L67.1,154.7L67.1,154.7L67.1,154.7L67.1,154.7z"/>
<polygon class="st0" points="48.8,109.7 54.8,113.5 55.9,109.3 "/>
<path class="st1" d="M45.5,124.1c0.2-1.5,0.5-1.5,2-1.4l9.2,1.1c1.4,0.2,1.8,0.4,1.6,1.8l-0.1,0.2l0.7,0.1l0.6-5.6l-0.7-0.1
	l-0.1,0.3c-0.2,1.4-0.6,1.5-2,1.3l-9.2-1c-1.4-0.2-1.8-0.4-1.6-1.7l0.1-0.4l-0.7-0.1l-0.6,5.7l0.7,0.1L45.5,124.1z"/>
<path class="st1" d="M58.9,118.5l0.7,0.2l1.1-4l-0.7-0.2l-0.1,0.2c-0.2,0.8-0.7,1.2-1.5,1c-0.3-0.1-0.5-0.2-0.7-0.3l-2-1.2l1.2-4.8
	l2.8-0.2c0.2-0.1,0.5-0.1,0.7,0c0.6,0.2,0.7,0.7,0.5,1.7l-0.1,0.2l0.7,0.2l1.3-5.1l-0.7-0.2c-0.1,0.4-0.3,0.7-0.5,1
	c-0.4,0.3-0.8,0.4-1.3,0.4l-13.2,1l0.1,1.6l10.3,6.5C58.7,116.9,59.1,117.4,58.9,118.5z M48.8,109.7l7.1-0.4l-1.1,4.2L48.8,109.7z"
	/>
<path class="st1" d="M64.4,161.2c0.6-1.4,0.6-3.1,0-4.6c-0.3-0.6-0.6-1.2-1.1-1.8c-0.3-0.4-1-1-1.5-2.3l-0.1-0.3l-3.2,1.3
	c-1.3,0.5-1.5,0.6-2.3-0.8l-0.7,0.3l2.1,5.1l0.7-0.3c-0.6-1.5-0.5-2,0.7-2.4l0.7-0.3c1.6-0.7,3.1-0.1,3.7,1.5
	c1.1,2.5-0.5,4.9-4.7,6.7c-4,1.6-6.7,1-7.7-1.4c-0.6-1.4-0.2-3.1,1.2-5.5l-0.5-0.4l-2.8,2.7l1,1.3c0.1,0.7,0.2,1.5,0.5,2.2
	c1.4,3.3,5.2,4.6,9.4,2.9C62.2,164.4,63.7,163,64.4,161.2z"/>
<path class="st1" d="M46.5,140.1l9.4-0.4c1.8-0.1,2.5,0.4,2.7,2l0.8-0.1l-0.2-5l-0.8,0.1c0.1,1.6-0.7,2.1-2.4,2.2l-8.5,0.4l11.7-9
	l-0.1-0.7l-11.2,0.5c-1.8,0.1-2.5-0.4-2.7-2l-0.8,0.1l0.2,5l0.8-0.1c-0.1-1.6,0.7-2.1,2.4-2.2l7.8-0.4L45,138.8l0.2,3.4l0.7-0.1
	C45.9,141.4,46,140.7,46.5,140.1z"/>
<path class="st1" d="M48.2,151.6c-0.4-1.4-0.1-1.6,1.4-2l9.1-2.2c1.3-0.3,1.8-0.3,2.1,1.2l0.1,0.2l0.7-0.2l-1.3-5.5l-0.7,0.2
	l0.1,0.3c0.3,1.3,0,1.6-1.4,2l-9,2.2c-1.4,0.3-1.8,0.3-2.1-1.1l-0.1-0.4l-0.7,0.2l1.3,5.5l0.7-0.2L48.2,151.6z"/>
<path class="st1" d="M135.1,58.3L135,59l4.1,0.6l0.1-0.7l-0.2-0.1c-0.9-0.1-1.3-0.6-1.1-1.4c0.1-0.3,0.1-0.5,0.2-0.7l1-2.1l4.9,0.7
	l0.5,2.8c0.1,0.2,0.1,0.5,0.1,0.7c-0.1,0.7-0.6,0.8-1.6,0.6h-0.2l-0.1,0.7l5.2,0.7l0.1-0.7c-0.4-0.1-0.7-0.2-1-0.4
	c-0.3-0.4-0.5-0.8-0.5-1.2l-2.3-13l-1.6,0.3L137,56.6C136.6,58,136.1,58.4,135.1,58.3z M142.7,47.3l1.2,7l-4.3-0.6L142.7,47.3z"/>
<path class="st1" d="M54.3,91.2c0.5-0.8,1-0.7,2-0.4l12.5,4l0.3-0.4l-7.2-8.4l10.5,3.3l0.3-0.4l-8.2-9.8c-0.7-0.9-1-1.4-0.6-2.3
	l-0.6-0.4l-2.2,3.3l0.6,0.4c0.7-0.8,1.2-1.2,1.7-0.8c0.2,0.2,0.4,0.4,0.6,0.6l4.4,5.1c0.5,0.6,1.1,1.2,1.7,1.8
	c-0.8-0.4-1.7-0.7-2.5-1l-6.4-2.1c-0.3-0.1-0.6-0.2-0.8-0.3c-0.5-0.3-0.3-0.8,0.3-1.8l-0.6-0.4l-3,4.6l0.6,0.4
	c0.7-1.1,1.2-1.3,2.1-1.1l0.8,0.3l4.3,5.2c0.4,0.4,0.9,1,1.6,1.7c-1-0.4-1.9-0.8-2.9-1.1l-6.3-2c-0.3-0.1-0.5-0.2-0.8-0.4
	c-0.3-0.2-0.2-0.7,0.3-1.4l0.2-0.3l-0.6-0.4l-2.7,4.1L54.3,91.2L54.3,91.2z"/>
<path class="st1" d="M70.1,187.2l6.8-6.3c1-1,1.4-1.1,2.4,0l0.2,0.2l0.5-0.5l-3.9-4.2l-0.5,0.5l0.2,0.3c0.9,1,0.7,1.4-0.3,2.4
	l-6.8,6.3c-1.1,1-1.4,1.1-2.3,0.1l-0.3-0.3l-0.5,0.5l3.9,4.2l0.5-0.5l-0.2-0.2C68.9,188.4,69,188.1,70.1,187.2z"/>
<path class="st1" d="M73.8,175l0.2,0.3l0.6-0.4l-3.1-4.7l-0.6,0.4l0.2,0.3c0.7,1.1,0.6,1.5-0.5,2.2l-3.8,2.5l-0.8-1.2l3.7-7
	l-1.9-2.8l-0.6,0.4l0.1,0.1c0.7,1.1,0.5,1.8-0.1,3.1l-2.4,4.7c-1.8-1.9-3.4-2.4-5-1.3c-2.1,1.4-2.1,3.6-0.2,6.6l3.1,4.7l0.6-0.4
	l-0.2-0.3c-0.7-1.2-0.6-1.5,0.5-2.2l7.8-5.1C72.6,173.9,73,173.8,73.8,175z M62.5,178.3c-1.2,0.7-1.5,0.7-2.4-0.6
	c-1.2-1.9-1-3.2,0.7-4.4c1.7-1.1,3-0.7,4.3,1.4L66,176L62.5,178.3z"/>
<path class="st1" d="M174.1,74.8c1.9,1.5,4.2,1.6,6.8,0.1l-0.2-0.7c-2.1,1-3.8,1-5.3-0.2c-2.1-1.7-2.2-4.9,0.4-8.1
	c2.4-3,5.2-3.7,7.1-2.2c1.2,0.9,1.6,2.7,1.6,5.3l0.6,0.1l1.1-3.6l-1.5-0.7c-0.4-0.6-0.9-1.3-1.5-1.8c-1.2-1-2.9-1.3-4.3-0.9
	c-2,0.5-3.8,1.7-5,3.3C171.1,68.8,171.2,72.5,174.1,74.8z"/>
<path class="st1" d="M207.9,101.5l-9,2.9c-1.3,0.4-1.6,0.3-2.1-1l-0.1-0.3l-0.7,0.2l3,9.5l4,0.2v-0.6c-2.4-0.8-4-2.2-4.7-4.2
	c-0.4-1.2-0.1-1.6,0.9-1.9l9.2-2.9c1.4-0.4,1.7-0.4,2.2,1l0.1,0.3l0.7-0.2l-1.7-5.4l-0.7,0.2l0.1,0.3
	C209.6,100.9,209.3,101.1,207.9,101.5z"/>
<path class="st1" d="M153.8,63l0.3-0.7c-1.4-0.6-1.6-1.5-1-3.1l3.1-7.9l3.4,14.4l0.6,0.3l4.1-10.5c0.6-1.6,1.4-2.2,2.9-1.6l0.3-0.7
	l-4.7-1.8l-0.3,0.7c1.4,0.6,1.6,1.5,1,3.1l-2.8,7.2l-3.2-13.2l-3.2-1.2l-0.3,0.7c0.7,0.3,1.3,0.8,1.6,1.5l-3.4,8.8
	c-0.6,1.6-1.4,2.2-2.9,1.6l-0.3,0.7L153.8,63z"/>
<path class="st1" d="M212.3,149.5c-0.4,1.4-0.7,1.4-2.1,1.1l-8.9-2.7c-1.4-0.4-1.7-0.7-1.3-2l0.1-0.3l-0.7-0.2l-3,10.1l3.2,2.4
	l0.4-0.5c-1.6-2.1-2.1-4.1-1.4-6.5c0.4-1.2,0.8-1.5,1.9-1.2l4.7,1.4l-0.3,1c-0.5,1.8-1.4,2.3-3.1,2.1l-0.2,0.6l5.3,1.5l0.2-0.6
	c-1.5-0.7-1.9-1.7-1.4-3.4l0.3-1l4,1.2c1.3,0.4,1.5,0.8,1,2.4c-0.6,2.1-1.8,3-4.2,3.9l0.1,0.6l3.6-0.4l2.8-9.5l-0.7-0.2L212.3,149.5
	z"/>
<path class="st1" d="M75.1,192.1c-1,0.6-1.6,0.7-2.4,0.1l-0.4,0.5l3.3,2.7l0.4-0.5c-0.8-0.7-1-1.2-0.5-1.8c0.2-0.2,0.4-0.4,0.7-0.6
	l7.8-4.9l-3.3,9c-0.1,0.3-0.3,0.6-0.4,0.9c-0.3,0.4-0.8,0.2-1.7-0.5l-0.4,0.5l4.1,3.3l0.4-0.5c-1.1-1.1-0.8-1.7-0.3-3.1l4.3-11.7
	l-0.4-0.3L75.1,192.1z"/>
<path class="st1" d="M147.9,200.6c-2.3,0.5-3.7,2.9-3,5.7c0.6,2.3,2.4,3.6,4.4,3.1c1.2-0.3,2.1-1.1,2.7-2.4l0.1,0.4
	c0.9,3.7-0.1,6.1-1.5,6.4c-0.7,0.2-1-0.1-1.3-0.8c-0.4-0.7-0.7-1-1.3-0.8c-0.6,0.2-1,0.6-0.8,1.2c0.3,1.1,1.6,1.6,3.3,1.2
	c1.4-0.4,2.4-1.3,3-2.9c0.8-2,0.8-3.9,0.3-6.1c-0.3-1.4-1.1-2.8-2.1-3.8C150.4,200.7,149.3,200.3,147.9,200.6z M151.6,205.3l0.1,0.5
	c-0.6,1.4-1.4,2.2-2.3,2.5c-1.3,0.3-2.3-0.6-2.8-2.7c-0.6-2.5-0.1-4.1,1.4-4.4C149.5,200.9,150.9,202.3,151.6,205.3L151.6,205.3z"/>
<path class="st1" d="M161,201.5c-1.1,0.5-1.9,1.4-2.2,2.9l-0.2-0.4c-1.5-3.4-1-6,0.3-6.6c0.6-0.3,1-0.1,1.4,0.5
	c0.5,0.6,0.8,0.8,1.5,0.6c0.6-0.3,0.8-0.7,0.6-1.3c-0.4-1-1.9-1.3-3.4-0.6c-1.3,0.6-2.1,1.7-2.5,3.4c-0.4,2-0.2,4,0.7,5.9
	c1.5,3.5,4.2,5.1,6.7,4c2.2-1,3.1-3.5,2-6.1C164.9,201.6,162.9,200.7,161,201.5z M163.7,209.4c-1.4,0.6-3-0.5-4.2-3.4l-0.2-0.5
	c0.3-1.5,1-2.4,1.8-2.8c1.2-0.5,2.4,0.2,3.2,2.1C165.3,207.2,164.9,208.8,163.7,209.4L163.7,209.4z"/>
<path class="st1" d="M110.5,204.5c-1.5,0.5-2.3,2.1-1.8,3.6c0.5,1.5,2.1,2.3,3.6,1.8c1.5-0.5,2.3-2.1,1.8-3.6
	C113.6,204.9,112,204.1,110.5,204.5z"/>
<path class="st1" d="M190.5,177.7c-1.5,0.5-2.3,2.1-1.8,3.6c0.5,1.5,2.1,2.3,3.6,1.8c1.5-0.5,2.3-2.1,1.8-3.6
	C193.7,178,192.1,177.1,190.5,177.7z"/>
<polygon class="st0" points="141.5,148 136.9,143.5 139.7,125 135.6,126.4 134.2,135.5 125.2,108.9 136.4,105.2 135,101 
	123.8,104.8 119.3,91.2 115.1,92.6 119.6,106.2 108.5,109.9 109.9,114.1 121.1,110.3 130,136.9 123.3,130.5 119.2,131.9 
	132.7,144.9 131.7,151.2 113.5,133.8 109.3,135.2 132.2,157.1 133.5,156.7 134.9,156.2 135.4,152.9 140.1,167 144.3,165.6 
	139.5,151.5 142,153.8 144.7,152.9 149.6,121.7 145.4,123.1 "/>
<path class="st1" d="M112.3,77.5l-11.5,60.7l44.1,42.1l3.4-1.2l9.8-60.3L112.3,77.5z M143.8,171.3l-36.5-35.4l-4.5,1.5l10.4-56.9
	l42.8,38.9l-4.5,1.5L143.8,171.3z"/>
<polygon class="st1" points="133.5,156.7 134.9,156.2 135.4,152.9 140.1,167 144.3,165.6 139.5,151.5 142,153.8 144.7,152.9 
	149.6,121.7 145.4,123.1 141.5,148 136.9,143.5 139.7,125 135.6,126.4 134.2,135.5 125.2,108.9 136.4,105.2 135,101 123.8,104.8 
	119.3,91.2 115.1,92.6 119.6,106.2 108.5,109.9 109.9,114.1 121.1,110.3 130,136.9 123.3,130.5 119.2,131.9 132.7,144.9 
	131.7,151.2 113.5,133.8 109.3,135.2 132.2,157.1 "/>
<path class="st1" d="M195.7,75.1c-1-1.2-2.5-1.9-4-1.9c-2-0.1-3.9,0.6-5.7,2.1c-1.9,1.6-2.8,3.4-2.9,5.5c-0.1,1.4,0.4,2.9,1.4,4
	c1,1.1,2.3,1.8,3.8,1.9c2.1,0.2,4-0.5,5.7-2c1.7-1.5,2.8-3.3,3-5.1C197.1,77.8,196.7,76.3,195.7,75.1z M192.7,83
	c-3.3,2.9-6.2,3.2-7.8,1.3c-1.5-1.8-0.8-4.5,2.4-7.3c3.4-2.9,6.2-3.3,7.9-1.4C196.8,77.5,195.9,80.3,192.7,83L192.7,83z"/>
</svg>
