<?xml version="1.0" encoding="utf-8"?>
<!-- Generator: Adobe Illustrator 21.0.2, SVG Export Plug-In . SVG Version: 6.00 Build 0)  -->
<svg version="1.1" id="Layer_1" xmlns="http://www.w3.org/2000/svg" xmlns:xlink="http://www.w3.org/1999/xlink" x="0px" y="0px"
	 viewBox="0 0 583.2 794.6" style="enable-background:new 0 0 583.2 794.6;" xml:space="preserve">
<style type="text/css">
	.st0{fill:#003764;}
	.st1{fill:#94A0A9;}
	.st2{fill:none;}
	.st3{fill:#94A0A9;stroke:#94A0A9;stroke-width:0.4159;}
</style>
<g>
	<g>
		<g>
			<path class="st0" d="M146.2,369.8c32,50.5,80,89.8,143.7,117.7l3.4,1.5l0.1-0.1l0,0l3.4-1.5c86.4-37.8,143.8-96.7,171.8-176
				C376.4,300.5,265.5,473.3,146.2,369.8z"/>
			<path class="st0" d="M129,30.6h329v213.3c7.5,6.7,15.3,14.1,23.4,22.2c5.1-25.2,7.6-52,7.6-80.6c0,0,0-183.9,0-183.9H293l0,0H98
				v184.2c0.2,21.2,1.6,41.4,4.4,60.7c9.5,5,18.5,8.8,26.6,11.4V30.6z"/>
		</g>
		<rect x="254" y="109.6" class="st0" width="82" height="10"/>
		<rect x="269" y="97.6" class="st1" width="50" height="6"/>
		<rect x="270" y="70.6" class="st1" width="50" height="7"/>
		<polygon class="st0" points="264,65.6 325.4,65.6 294.4,46.5 		"/>
		<path class="st0" d="M62.3,232c60.5,122.4,117.5,119.4,177.7,89.7l8.7-70C200.2,278.4,144.8,295.1,62.3,232z"/>
		<path class="st0" d="M451.4,254.6c-45.1-47.7-80.8-56.1-113.7-48.3l9.7,56.5C380.1,248.8,414.5,242.1,451.4,254.6z"/>
		<g>
			<path class="st1" d="M248.5,251.8l-8.7,70l-1.7,13.9c-40.2,17.9-80.1,24.1-117.2-6.2c63.9,72.7,120.7,68.1,173.2,43.8V291v-66
				V124.6h-29.7L248.5,251.8z"/>
			<path class="st1" d="M349.7,275.7l-2.2-12.8l-9.7-56.5l-14-81.8H315l9.3,85.9l6.5,60.1l8.5,77.8c64.4-36.4,116.3-75.8,179.1-22.1
				C464.7,242.8,407.3,248.8,349.7,275.7z"/>
			<polygon class="st2" points="323.6,123.6 323.7,124.6 329,124.6 329,119.6 264,119.6 264,124.6 264.5,124.6 264.6,123.6 
				294,123.6 294,124.6 315,124.6 314.9,123.6 			"/>
		</g>
	</g>
	<g>
		<path class="st0" d="M42.1,584.7c4.7-10.9,15.6-39.3,17.4-45.1c0.4-1.2,0.7-2.4,0.7-3.1c0-0.7-0.2-1.5-1.1-1.9
			c-1-0.3-2.2-0.3-3.1-0.3c-0.5,0-0.9-0.1-0.9-0.5c0-0.5,0.5-0.6,1.8-0.6c3.3,0,7,0.2,8,0.2c0.5,0,4-0.2,6.3-0.2
			c0.9,0,1.4,0.2,1.4,0.6c0,0.4-0.3,0.6-1,0.6c-0.6,0-2.4,0-3.9,1c-1.1,0.7-2.3,2.1-4.5,7.6c-0.9,2.3-5,12-9.1,22
			c-5,11.9-8.6,20.6-10.5,24.6c-2.3,4.9-2.6,6.2-3.4,6.2c-1,0-1.4-1.1-2.9-5l-19.9-49.8c-1.8-4.6-3-5.5-5.9-6.3
			c-1.2-0.3-2.6-0.3-3.1-0.3c-0.5,0-0.6-0.2-0.6-0.6c0-0.5,0.8-0.6,2.1-0.6c3.9,0,8.5,0.2,9.5,0.2c0.8,0,4.5-0.2,7.6-0.2
			c1.5,0,2.2,0.2,2.2,0.6c0,0.4-0.2,0.6-0.8,0.6c-0.9,0-2.4,0.1-3.1,0.4c-0.9,0.4-1.1,1.1-1.1,1.6c0,1.1,1,3.6,2.2,6.7L42.1,584.7z"
			/>
		<path class="st0" d="M110,571.2c0,8,0,14.6,0.4,18.1c0.3,2.4,0.8,4.2,3.2,4.6c1.2,0.2,3,0.3,3.7,0.3c0.5,0,0.7,0.3,0.7,0.5
			c0,0.4-0.4,0.7-1.3,0.7c-4.6,0-9.8-0.2-10.2-0.2c-0.4,0-5.7,0.2-8.2,0.2c-0.9,0-1.3-0.2-1.3-0.7c0-0.2,0.2-0.5,0.7-0.5
			c0.7,0,1.7-0.2,2.5-0.3c1.7-0.3,2.1-2.2,2.4-4.6c0.4-3.5,0.4-10.1,0.4-18.1v-14.7c0-13,0-15.3-0.2-18c-0.2-2.8-1-4.2-2.8-4.7
			c-0.9-0.3-2-0.3-2.6-0.3c-0.3,0-0.7-0.2-0.7-0.5c0-0.5,0.4-0.7,1.3-0.7c2.7,0,8,0.2,8.4,0.2c0.4,0,5.7-0.2,8.2-0.2
			c0.9,0,1.3,0.2,1.3,0.7c0,0.3-0.3,0.5-0.7,0.5c-0.6,0-1.1,0.1-2.1,0.2c-2.2,0.4-2.9,1.8-3.1,4.8c-0.2,2.7-0.2,5-0.2,18V571.2z"/>
		<path class="st0" d="M156,556.7c0.3-12.7,0.3-15,0.2-17.6c-0.2-2.8-0.8-4.1-3.5-4.6c-0.7-0.2-2-0.2-2.8-0.2
			c-0.3,0-0.6-0.2-0.6-0.5c0-0.5,0.4-0.6,1.3-0.6c3.7,0,8.8,0.2,9.2,0.2c0.9,0,7.1-0.2,9.6-0.2c5.1,0,10.6,0.5,14.9,3.6
			c2,1.5,5.6,5.4,5.6,11.1c0,6-2.5,12-9.8,18.8c6.7,8.5,12.2,15.8,16.9,20.8c4.4,4.6,7.9,5.5,9.9,5.9c1.5,0.2,2.7,0.2,3.2,0.2
			c0.4,0,0.7,0.2,0.7,0.5c0,0.5-0.5,0.6-2,0.7H203c-4.6-0.1-6.6-0.5-8.7-1.6c-3.5-1.9-6.3-5.9-11-11.9c-3.4-4.5-7.2-9.9-8.9-12
			c-0.3-0.3-0.6-0.5-1.1-0.4h-10c-0.4-0.2-0.6,0-0.4,0.4v2c-0.2,7.8-0.2,14.2,0.2,17.6c0.2,2.4,0.7,4.1,3.2,4.5
			c1.1,0.2,2.9,0.3,3.7,0.3c0.5,0,0.7,0.2,0.7,0.5c0,0.4-0.4,0.6-1.3,0.6c-4.5,0-9.6-0.2-10-0.2c-0.1,0-5.2,0.2-7.6,0.2
			c-0.9,0-1.3-0.2-1.3-0.6c0-0.2,0.2-0.5,0.6-0.5c0.7,0,1.7-0.2,2.4-0.3c1.6-0.3,2-2.1,2.4-4.5c0.4-3.4,0.4-9.8,0.1-17.6V556.7z
			 M163,563.8c0,0.4,0.2,0.7,0.6,1c1.2,0.7,5,1.3,8.5,1.3c2,0,4.2-0.2,6.1-1.5c2.8-2,5-6.3,5-12.5c0-10.2-5.4-16.3-14.1-16.3
			c-2.4,0-4.6,0.2-5.4,0.5c-0.4,0.2-0.7,0.5-0.7,1V563.8z"/>
		<path class="st0" d="M275,574.1c0-6.8-0.4-7.7-3.7-8.6c-0.7-0.2-2.1-0.3-2.8-0.3c-0.3,0-0.7-0.2-0.7-0.5c0-0.5,0.4-0.7,1.3-0.7
			c3.8,0,9,0.3,9.4,0.3c0.4,0,5.7-0.3,8.2-0.3c0.9,0,1.3,0.2,1.3,0.7c0,0.3-0.3,0.5-0.7,0.5c-0.6,0-1.1,0.1-2.1,0.3
			c-2.3,0.4-2.9,1.8-3.1,4.8c-0.2,2.7-0.2,5.2-0.2,8.7v9.3c0,3.7-0.1,3.9-1.1,4.5c-5.3,2.8-12.8,3.8-17.7,3.8
			c-6.3,0-18.2-0.8-27.4-8.9c-5.1-4.4-9.9-13.3-9.9-23.8c0-13.3,6.5-22.7,13.9-27.4c7.5-4.7,15.7-5.2,22.2-5.2
			c5.2,0,11.2,1.1,12.7,1.4c1.8,0.4,4.7,0.7,6.8,0.8c0.8,0.1,1,0.4,1,0.8c0,1.2-0.6,3.5-0.6,11.8c0,1.3-0.2,1.7-0.8,1.7
			c-0.4,0-0.5-0.5-0.6-1.2c-0.1-1.2-0.5-3.5-1.8-5.5c-2.1-3.2-8.8-6.7-19.6-6.7c-5.3,0-11.5,0.5-17.8,5.5
			c-4.8,3.8-8.2,11.4-8.2,21.2c0,11.8,5.9,20.2,8.8,23.1c6.6,6.4,14.2,8.9,21.8,8.9c3,0,7.3-0.5,9.5-1.7c1.1-0.6,1.7-1.5,1.7-2.9
			V574.1z"/>
		<path class="st0" d="M332,571.2c0,8,0,14.6,0.4,18.1c0.3,2.4,0.7,4.3,3.3,4.6c1.2,0.2,3,0.3,3.8,0.3c0.5,0,0.7,0.3,0.7,0.5
			c0,0.4-0.4,0.7-1.3,0.7c-4.6,0-9.8-0.2-10.3-0.2c-0.4,0-5.7,0.2-8.2,0.2c-0.9,0-1.3-0.2-1.3-0.7c0-0.2,0.2-0.5,0.7-0.5
			c0.7,0,1.8-0.2,2.5-0.3c1.7-0.3,2.1-2.2,2.4-4.6c0.4-3.5,0.4-10.1,0.4-18.1v-14.7c0-13,0-15.4-0.2-18c-0.2-2.8-1-4.2-2.8-4.7
			c-0.9-0.3-2-0.3-2.6-0.3c-0.3,0-0.7-0.2-0.7-0.5c0-0.5,0.4-0.7,1.3-0.7c2.8,0,8,0.2,8.4,0.2c0.4,0,5.7-0.2,8.2-0.2
			c0.9,0,1.3,0.2,1.3,0.7c0,0.3-0.3,0.5-0.7,0.5c-0.6,0-1.1,0.1-2.1,0.2c-2.2,0.4-2.9,1.8-3.1,4.8c-0.2,2.7-0.2,5-0.2,18V571.2z"/>
		<path class="st0" d="M380.9,583.5c0.2,6.7,1,8.8,3.2,9.4c1.5,0.4,3.3,0.5,4.1,0.5c0.4,0,0.6,0.2,0.6,0.5c0,0.5-0.5,0.6-1.5,0.6
			c-4.6,0-7.9-0.2-8.6-0.2c-0.7,0-4.1,0.2-7.8,0.2c-0.8,0-1.3-0.1-1.3-0.6c0-0.3,0.2-0.5,0.6-0.5c0.6,0,2.1-0.1,3.3-0.5
			c2-0.6,2.4-2.9,2.4-10.3l0.1-46.5c0-3.2,0.2-4.1,0.9-4.1s2,1.8,2.8,2.6c1.2,1.4,13.3,14.4,25.8,27.8c8,8.6,16.9,18.5,19.5,21.2
			l-0.9-41.2c-0.1-5.3-0.6-7.1-3.2-7.7c-1.5-0.3-3.3-0.4-4-0.4c-0.6,0-0.6-0.2-0.6-0.6c0-0.5,0.6-0.6,1.6-0.6c3.7,0,7.6,0.2,8.4,0.2
			c0.9,0,3.6-0.2,6.9-0.2c0.9,0,1.5,0.1,1.5,0.6c0,0.3-0.3,0.6-0.9,0.6c-0.4,0-1,0-1.9,0.2c-2.7,0.6-3,2.4-3,7.2l-0.2,47.6
			c0,5.4-0.2,5.8-0.7,5.8c-0.6,0-1.6-0.9-5.9-5.2c-0.9-0.8-12.6-12.7-21.2-22c-9.4-10.1-18.6-20.4-21.2-23.3L380.9,583.5z"/>
		<path class="st0" d="M480,571.2c0,8,0,14.6,0.4,18.1c0.3,2.4,0.7,4.2,3.3,4.6c1.2,0.2,3,0.3,3.8,0.3c0.5,0,0.7,0.3,0.7,0.5
			c0,0.4-0.4,0.7-1.3,0.7c-4.6,0-9.8-0.2-10.2-0.2c-0.4,0-5.7,0.2-8.2,0.2c-0.9,0-1.3-0.2-1.3-0.7c0-0.2,0.2-0.5,0.7-0.5
			c0.7,0,1.7-0.2,2.5-0.3c1.7-0.3,2.1-2.2,2.4-4.6c0.4-3.5,0.4-10.1,0.4-18.1v-14.7c0-13,0-15.3-0.2-18c-0.2-2.8-1-4.2-2.8-4.7
			c-0.9-0.3-2-0.3-2.6-0.3c-0.3,0-0.7-0.2-0.7-0.5c0-0.5,0.4-0.7,1.3-0.7c2.8,0,8,0.2,8.4,0.2c0.4,0,5.7-0.2,8.2-0.2
			c0.9,0,1.3,0.2,1.3,0.7c0,0.3-0.3,0.5-0.7,0.5c-0.6,0-1.1,0.1-2.1,0.2c-2.3,0.4-2.9,1.8-3.1,4.8c-0.2,2.7-0.2,5-0.2,18V571.2z"/>
		<path class="st0" d="M538.5,535c1-2.7,1.3-3.2,1.8-3.2c0.5,0,0.8,0.4,1.8,3c1.2,3.1,14.1,36.9,19.1,49.4c2.9,7.3,5.3,8.6,7,9.1
			c1.2,0.4,2.4,0.5,3.3,0.5c0.5,0,0.8,0.1,0.8,0.5c0,0.5-0.7,0.7-1.6,0.7c-1.2,0-7.2,0-12.8-0.2c-1.6-0.1-2.5-0.1-2.5-0.6
			c0-0.3,0.2-0.5,0.6-0.6c0.5-0.2,1-0.9,0.5-2.2l-7.6-20.1c-0.2-0.3-0.3-0.5-0.7-0.5h-17.6c-0.4,0-0.7,0.2-0.8,0.7l-4.9,14.5
			c-0.7,2-1.1,4-1.1,5.5c0,1.6,1.7,2.4,3.1,2.4h0.8c0.6,0,0.8,0.2,0.8,0.5c0,0.5-0.5,0.7-1.2,0.7c-2,0-5.5-0.2-6.4-0.2
			c-0.9,0-5.4,0.2-9.3,0.2c-1.1,0-1.6-0.2-1.6-0.7c0-0.3,0.3-0.5,0.7-0.5c0.6,0,1.7-0.1,2.4-0.2c3.8-0.5,5.4-3.6,6.9-7.7L538.5,535z
			 M547,567.6c0.4,0,0.4-0.2,0.3-0.6l-7.7-21.9c-0.4-1.2-0.8-1.2-1.2,0l-7.2,21.9c-0.2,0.4,0,0.6,0.3,0.6H547z"/>
		<path class="st0" d="M73.3,688.6h0.3c2.2-7.7,9.9-31.8,12.8-42.4c0.8-3.1,0.9-4.2,0.9-5.3c0-1.5-0.9-2.5-4.7-2.5
			c-0.4,0-0.7-0.3-0.7-0.6c0-0.4,0.4-0.6,1.4-0.6c4.2,0,7.7,0.3,8.5,0.3c0.6,0,4.2-0.3,6.7-0.3c0.7,0,1.2,0.2,1.2,0.5
			c0,0.4-0.3,0.7-0.7,0.7c-0.3,0-1.9,0.1-2.8,0.4c-2.5,0.9-3.8,4.4-5.4,9c-3.7,10.6-12.1,37-15.3,46.3c-2.2,6.2-2.6,7.1-3.5,7.1
			c-0.8,0-1.3-1.1-2.5-4.3L53,650.6h0.2c-2.9,7.7-13.9,37.3-16.8,44.8c-1.3,3.4-1.7,4.3-2.7,4.3c-0.8,0-1.2-0.9-2.8-6.4l-14.3-47.8
			c-1.3-4.3-2.3-5.5-4.4-6.3c-1-0.4-3.1-0.5-3.6-0.5c-0.4,0-0.7-0.1-0.7-0.6c0-0.4,0.5-0.6,1.3-0.6c4.2,0,8.6,0.2,9.5,0.2
			c0.7,0,4.3-0.2,8.3-0.2c1.1,0,1.4,0.2,1.4,0.6c0,0.5-0.4,0.6-0.8,0.6c-0.6,0-2.2,0-3.1,0.5c-0.5,0.2-1,0.9-1,1.9
			c0,1,0.7,3.9,1.5,7.4c1.2,5.2,9.6,34.7,10.8,39h0.2l17.2-46c1.2-3.3,1.5-3.7,2-3.7c0.6,0,1.1,1.1,2,3.8L73.3,688.6z"/>
		<path class="st0" d="M126,661c0-13,0-15.3-0.2-18c-0.2-2.8-0.8-4.2-3.6-4.8c-0.7-0.2-2.1-0.2-2.8-0.2c-0.3,0-0.7-0.2-0.7-0.5
			c0-0.5,0.4-0.7,1.3-0.7c1.9,0,4.2,0,6,0.1l3.4,0.2c0.6,0,17.2,0,19.1-0.1c1.6-0.1,2.9-0.3,3.6-0.4c0.4-0.1,0.8-0.4,1.2-0.4
			c0.2,0,0.3,0.3,0.3,0.8c0,0.6-0.4,1.6-0.7,3.9c-0.1,0.8-0.2,4.5-0.4,5.5c-0.1,0.4-0.3,0.9-0.6,0.9c-0.5,0-0.7-0.4-0.7-1.1
			c0-0.6-0.1-2-0.5-3c-0.6-1.3-1.4-2.3-5.9-2.8c-1.4-0.2-10.5-0.3-11.4-0.3c-0.3,0-0.5,0.3-0.5,0.8v23c0,0.6,0.1,0.8,0.5,0.8
			c1.1,0,11.3,0,13.3-0.2c2-0.2,3.2-0.3,3.9-1.2c0.6-0.7,0.9-1.1,1.2-1.1c0.2,0,0.4,0.2,0.4,0.7c0,0.5-0.4,1.9-0.7,4.7
			c-0.2,1.7-0.3,4.8-0.3,5.3c0,0.7,0,1.6-0.6,1.6c-0.4,0-0.6-0.3-0.6-0.7c0-0.8,0-1.7-0.3-2.7c-0.3-1.2-1.1-2.6-4.3-2.9
			c-2.3-0.3-10.5-0.4-11.9-0.4c-0.4,0-0.6,0.3-0.6,0.6v7.3c0,2.8-0.1,12.5,0,14.3c0.3,5.8,1.5,6.8,9.7,6.8c2.2,0,5.8,0,8-0.9
			c2.2-0.9,3.2-2.6,3.8-6c0.2-0.9,0.3-1.3,0.7-1.3c0.5,0,0.5,0.7,0.5,1.3c0,0.7-0.7,6.3-1.1,8.1c-0.6,2.2-1.2,2.2-4.5,2.2
			c-6.3,0-10.8-0.2-14.1-0.3c-3.3-0.2-5.3-0.3-6.5-0.3c-0.2,0-1.6,0-3.3,0.1c-1.7,0-3.6,0.2-4.8,0.2c-0.9,0-1.3-0.2-1.3-0.7
			c0-0.3,0.2-0.5,0.7-0.5c0.8,0,1.8-0.2,2.5-0.3c1.7-0.3,2.1-2.2,2.4-4.6c0.4-3.5,0.4-10.1,0.4-18.1V661z"/>
		<path class="st0" d="M183.5,698c-1.1-0.6-1.2-0.9-1.2-3.1c0-4.1,0.3-7.3,0.4-8.6c0.1-0.9,0.2-1.3,0.6-1.3c0.5,0,0.6,0.2,0.6,0.9
			c0,0.7,0,1.9,0.2,3c1.2,6,6.6,8.3,12,8.3c7.8,0,11.6-5.6,11.6-10.8c0-5.6-2.4-8.9-9.3-14.6l-3.7-3c-8.6-7.1-10.6-12.1-10.6-17.6
			c0-8.7,6.5-14.6,16.8-14.6c3.2,0,5.5,0.3,7.6,0.8c1.5,0.3,2.2,0.4,2.8,0.4c0.7,0,0.8,0.2,0.8,0.6c0,0.4-0.3,3.1-0.3,8.6
			c0,1.3-0.2,1.9-0.6,1.9c-0.5,0-0.6-0.4-0.7-1.1c-0.1-1-0.6-3.2-1.1-4.1c-0.5-0.9-2.7-4.3-10.2-4.3c-5.6,0-10,3.5-10,9.4
			c0,4.6,2.1,7.6,9.9,13.7l2.3,1.8c9.6,7.6,11.9,12.6,11.9,19.1c0,3.3-1.3,9.5-6.9,13.5c-3.5,2.4-7.9,3.4-12.3,3.4
			C190.6,700.2,186.9,699.7,183.5,698z"/>
		<path class="st0" d="M255,675.9c0,12.3,0.3,17.6,1.8,19.1c1.3,1.3,3.5,1.9,10,1.9c4.4,0,8.1-0.1,10.1-2.5c1.1-1.3,1.9-3.4,2.2-5
			c0.1-0.7,0.2-1.1,0.7-1.1c0.4,0,0.5,0.3,0.5,1.2c0,0.9-0.6,5.9-1.3,8.3c-0.6,1.9-0.8,2.3-5.3,2.3c-6,0-10.3-0.2-13.8-0.3
			c-3.5-0.2-6.1-0.3-8.5-0.3c-0.3,0-1.8,0.1-3.4,0.1c-1.7,0.1-3.5,0.2-4.8,0.2c-0.9,0-1.3-0.2-1.3-0.7c0-0.3,0.2-0.5,0.7-0.5
			c0.7,0,1.8-0.2,2.5-0.3c1.7-0.3,2.1-2.2,2.4-4.6c0.4-3.5,0.4-10.1,0.4-18.1V661c0-13,0-15.3-0.2-18c-0.2-2.8-0.8-4.2-3.6-4.8
			c-0.7-0.2-2.1-0.2-2.8-0.2c-0.3,0-0.7-0.2-0.7-0.5c0-0.5,0.4-0.7,1.3-0.7c3.8,0,9,0.3,9.4,0.3c0.4,0,6.5-0.3,9-0.3
			c0.9,0,1.3,0.2,1.3,0.7c0,0.3-0.3,0.5-0.7,0.5c-0.6,0-1.7,0.1-2.7,0.2c-2.4,0.4-3.1,1.8-3.3,4.8c-0.2,2.7-0.2,5-0.2,18V675.9z"/>
		<path class="st0" d="M314,661.9c0-13,0-15.3-0.2-18c-0.2-2.8-0.8-4.2-3.6-4.8c-0.7-0.2-2.1-0.3-2.8-0.3c-0.3,0-0.7-0.2-0.7-0.5
			c0-0.5,0.4-0.7,1.3-0.7c1.9,0,4.2,0,6,0.1l3.4,0.2c0.6,0,17.2,0,19.1-0.1c1.6-0.1,2.9-0.3,3.6-0.4c0.4-0.1,0.7-0.4,1.2-0.4
			c0.3,0,0.3,0.3,0.3,0.7c0,0.6-0.4,1.6-0.7,3.9c-0.1,0.8-0.3,4.5-0.4,5.5c-0.1,0.4-0.3,0.9-0.6,0.9c-0.5,0-0.7-0.4-0.7-1.1
			c0-0.6-0.1-2-0.5-3c-0.6-1.3-1.4-2.3-5.9-2.8c-1.4-0.2-10.5-0.3-11.4-0.3c-0.3,0-0.5,0.3-0.5,0.8v23c0,0.6,0.1,0.8,0.5,0.8
			c1.1,0,11.3,0,13.3-0.2c2-0.2,3.2-0.3,3.9-1.2c0.6-0.7,0.9-1.1,1.3-1.1c0.2,0,0.4,0.2,0.4,0.7c0,0.5-0.4,1.9-0.7,4.7
			c-0.2,1.7-0.3,4.8-0.3,5.3c0,0.7,0,1.6-0.6,1.6c-0.4,0-0.6-0.3-0.6-0.8c0-0.8,0-1.7-0.3-2.8c-0.3-1.2-1.1-2.6-4.3-2.9
			c-2.2-0.3-10.5-0.4-11.9-0.4c-0.4,0-0.6,0.3-0.6,0.6v7.3c0,2.8-0.1,12.5,0,14.3c0.2,5.8,1.5,6.8,9.7,6.8c2.2,0,5.8,0,8-0.9
			c2.2-0.9,3.2-2.6,3.8-6c0.2-0.9,0.3-1.2,0.8-1.2c0.5,0,0.5,0.7,0.5,1.2c0,0.7-0.7,6.3-1.1,8.1c-0.6,2.2-1.2,2.2-4.5,2.2
			c-6.2,0-10.8-0.2-14.1-0.3c-3.3-0.2-5.3-0.3-6.5-0.3c-0.2,0-1.6,0-3.3,0.1c-1.7,0-3.6,0.2-4.8,0.2c-0.9,0-1.3-0.2-1.3-0.7
			c0-0.2,0.2-0.5,0.7-0.5c0.7,0,1.7-0.2,2.5-0.3c1.7-0.3,2.1-2.2,2.4-4.6c0.4-3.5,0.4-10.1,0.4-18.1V661.9z"/>
		<path class="st0" d="M386,678.3c0-4.5-0.8-6.3-1.9-8.7c-0.6-1.3-11.8-19.7-14.7-24c-2.1-3.1-4.2-5.2-5.7-6.2
			c-1.2-0.8-2.8-1.3-3.6-1.3c-0.4,0-0.8-0.2-0.8-0.6c0-0.3,0.3-0.6,1.1-0.6c1.6,0,7.8,0.3,8.2,0.3c0.6,0,3.8-0.3,7-0.3
			c0.9,0,1.1,0.3,1.1,0.6c0,0.3-0.5,0.4-1.3,0.7c-0.7,0.3-1.1,0.8-1.1,1.5c0,1,0.4,2,1.1,3.2c1.3,2.4,13.8,23.9,15.3,26.3
			c1.6-3.5,12.2-21.8,13.8-24.5c1.1-1.8,1.4-3.2,1.4-4.3c0-1.2-0.3-2.1-1.3-2.3c-0.8-0.3-1.3-0.4-1.3-0.8c0-0.3,0.5-0.5,1.3-0.5
			c2.2,0,4.8,0.3,5.5,0.3c0.5,0,6.5-0.3,8.1-0.3c0.6,0,1.1,0.2,1.1,0.5c0,0.4-0.4,0.7-1.1,0.7c-0.9,0-2.5,0.3-3.8,1.2
			c-1.7,1-2.6,2-4.4,4.3c-2.7,3.3-14.4,22.9-15.9,26.5c-1.2,3-1.2,5.6-1.2,8.3v7.2c0,1.3,0,4.8,0.3,8.3c0.2,2.4,0.9,4.3,3.4,4.6
			c1.2,0.2,3,0.3,3.8,0.3c0.5,0,0.7,0.2,0.7,0.5c0,0.4-0.4,0.7-1.3,0.7c-4.6,0-9.8-0.3-10.2-0.3c-0.4,0-5.7,0.3-8.2,0.3
			c-0.9,0-1.3-0.2-1.3-0.7c0-0.3,0.2-0.5,0.7-0.5c0.7,0,1.8-0.2,2.5-0.3c1.7-0.3,2.4-2.2,2.6-4.6c0.3-3.5,0.3-7,0.3-8.3V678.3z"/>
		<path class="st0" d="M454.3,640c1-2.7,1.3-3.2,1.8-3.2c0.5,0,0.8,0.4,1.8,3c1.2,3.1,14.1,36.9,19.1,49.4c3,7.3,5.3,8.6,7,9.1
			c1.2,0.4,2.5,0.5,3.3,0.5c0.5,0,0.8,0.1,0.8,0.5c0,0.5-0.7,0.7-1.6,0.7c-1.2,0-7.2,0-12.9-0.2c-1.6-0.1-2.4-0.1-2.4-0.6
			c0-0.3,0.2-0.5,0.6-0.6c0.5-0.2,1-0.9,0.5-2.2l-7.6-20.1c-0.2-0.3-0.3-0.5-0.7-0.5h-17.6c-0.4,0-0.7,0.2-0.8,0.7l-4.9,14.5
			c-0.7,2-1.1,4-1.1,5.5c0,1.6,1.7,2.4,3.1,2.4h0.8c0.6,0,0.8,0.2,0.8,0.5c0,0.5-0.5,0.7-1.2,0.7c-2,0-5.5-0.2-6.4-0.2
			c-0.9,0-5.4,0.2-9.3,0.2c-1.1,0-1.6-0.2-1.6-0.7c0-0.3,0.3-0.5,0.7-0.5c0.6,0,1.7-0.1,2.4-0.2c3.8-0.5,5.4-3.6,6.9-7.7L454.3,640z
			 M462.7,672.6c0.4,0,0.4-0.2,0.3-0.6l-7.7-21.9c-0.4-1.2-0.8-1.2-1.2,0l-7.2,21.9c-0.2,0.4,0,0.6,0.2,0.6H462.7z"/>
		<path class="st0" d="M516.9,688.9c0.2,6.7,1,8.8,3.2,9.4c1.5,0.4,3.3,0.5,4.1,0.5c0.4,0,0.6,0.2,0.6,0.5c0,0.5-0.5,0.7-1.5,0.7
			c-4.6,0-7.9-0.2-8.6-0.2c-0.7,0-4.1,0.2-7.8,0.2c-0.8,0-1.3-0.1-1.3-0.7c0-0.3,0.3-0.5,0.7-0.5c0.6,0,2.1-0.1,3.3-0.5
			c2-0.6,2.4-2.9,2.4-10.3l0.1-46.5c0-3.2,0.2-4.1,0.9-4.1c0.6,0,2,1.8,2.8,2.6c1.2,1.4,13.3,14.4,25.8,27.8
			c8,8.6,16.9,18.5,19.5,21.2l-0.9-41.2c-0.1-5.3-0.6-7.1-3.2-7.7c-1.5-0.3-3.3-0.4-4-0.4c-0.6,0-0.7-0.2-0.7-0.6
			c0-0.5,0.7-0.6,1.6-0.6c3.7,0,7.6,0.2,8.4,0.2c0.9,0,3.6-0.2,6.9-0.2c0.9,0,1.5,0.1,1.5,0.6c0,0.3-0.3,0.6-0.9,0.6
			c-0.4,0-1,0-1.9,0.3c-2.7,0.6-3,2.4-3,7.2l-0.2,47.6c0,5.4-0.2,5.8-0.7,5.8c-0.6,0-1.6-0.9-5.9-5.2c-0.9-0.8-12.6-12.7-21.2-22
			c-9.4-10.1-18.6-20.4-21.2-23.3L516.9,688.9z"/>
		<path class="st0" d="M15,762.2c0-10.8,0-12.7-0.1-14.9c-0.1-2.3-0.7-3.4-3-3.9c-0.6-0.1-1.7-0.2-2.3-0.2c-0.3,0-0.6-0.1-0.6-0.4
			c0-0.4,0.3-0.5,1.1-0.5c3.1,0,7.3,0.2,7.9,0.2c0.6,0,4.8-0.2,6.8-0.2c0.8,0,1.1,0.1,1.1,0.5c0,0.3-0.3,0.4-0.6,0.4
			c-0.5,0-0.9,0.1-1.7,0.2c-1.9,0.3-2.4,1.5-2.5,3.9c-0.1,2.2-0.1,4.1-0.1,14.9v8.4c0,9.5,2.1,13.5,4.9,16.2c3.2,3,6.2,3.6,9.9,3.6
			c4,0,8-1.9,10.3-4.7c3-3.7,3.8-9.3,3.8-16.1v-8.2c0-9.9,0-11.7-0.1-13.7c-0.1-2.2-0.6-3.2-2.7-3.6c-0.5-0.1-1.6-0.2-2.2-0.2
			c-0.3,0-0.5-0.1-0.5-0.4c0-0.4,0.3-0.5,1-0.5c2.9,0,6.4,0.2,6.7,0.2c0.4,0,3.4-0.2,5.3-0.2c0.7,0,1,0.1,1,0.5
			c0,0.3-0.3,0.4-0.5,0.4c-0.4,0-0.8,0.1-1.6,0.2c-1.7,0.4-2.2,1.4-2.4,3.6c-0.1,2-0.1,3.8-0.1,13.7v7c0,7.1-0.8,15-6.1,19.7
			c-4.7,4.2-9.7,4.9-13.6,4.9c-2.2,0-8.9-0.3-13.6-4.7c-3.2-3.1-5.7-7.7-5.7-17.4V762.2z"/>
		<path class="st0" d="M89.9,782.9c0.1,5.3,0.8,6.9,2.5,7.5c1.2,0.3,2.6,0.4,3.2,0.4c0.3,0,0.5,0.1,0.5,0.4c0,0.4-0.4,0.5-1.2,0.5
			c-3.7,0-6.2-0.2-6.8-0.2c-0.6,0-3.3,0.2-6.2,0.2c-0.6,0-1-0.1-1-0.5c0-0.3,0.2-0.4,0.5-0.4c0.5,0,1.7-0.1,2.6-0.4
			c1.6-0.5,1.9-2.3,1.9-8.2l0.1-36.9c0-2.5,0.2-3.2,0.7-3.2c0.5,0,1.6,1.4,2.3,2.1c1,1.1,10.5,11.5,20.5,22.1
			c6.4,6.8,13.4,14.7,15.4,16.8l-0.7-32.7c-0.1-4.2-0.5-5.6-2.5-6.1c-1.2-0.3-2.6-0.3-3.2-0.3c-0.4,0-0.5-0.2-0.5-0.5
			c0-0.4,0.5-0.4,1.3-0.4c2.9,0,6,0.2,6.7,0.2c0.7,0,2.8-0.2,5.5-0.2c0.7,0,1.2,0.1,1.2,0.4c0,0.3-0.3,0.5-0.7,0.5
			c-0.3,0-0.8,0-1.5,0.2c-2.1,0.5-2.4,1.9-2.4,5.7l-0.1,37.7c0,4.2-0.1,4.6-0.6,4.6c-0.5,0-1.3-0.7-4.7-4.1
			c-0.7-0.6-10-10.1-16.8-17.4c-7.5-8-14.7-16.1-16.8-18.5L89.9,782.9z"/>
		<path class="st0" d="M169,773.1c0,6.2,0,11.4,0.3,14.1c0.2,1.9,0.5,3.3,2.3,3.6c0.8,0.1,2.1,0.3,2.7,0.3c0.4,0,0.5,0.2,0.5,0.4
			c0,0.3-0.3,0.5-0.9,0.5c-3.3,0-7-0.2-7.3-0.2c-0.3,0-4,0.2-5.8,0.2c-0.7,0-1-0.1-1-0.5c0-0.2,0.1-0.4,0.5-0.4
			c0.5,0,1.3-0.1,1.8-0.3c1.2-0.3,1.5-1.7,1.7-3.6c0.3-2.7,0.3-7.9,0.3-14.1v-11.4c0-10.2,0-12-0.1-14.1c-0.1-2.2-0.7-3.3-2-3.6
			c-0.7-0.2-1.4-0.3-1.8-0.3c-0.2,0-0.5-0.1-0.5-0.4c0-0.4,0.3-0.5,1-0.5c2,0,5.7,0.2,6,0.2c0.3,0,4-0.2,5.8-0.2c0.7,0,1,0.1,1,0.5
			c0,0.3-0.2,0.4-0.5,0.4c-0.4,0-0.8,0.1-1.5,0.2c-1.6,0.3-2.1,1.4-2.2,3.7c-0.1,2.1-0.1,3.9-0.1,14.1V773.1z"/>
		<path class="st0" d="M220.5,784c3.8-8.7,12.5-31.4,13.9-36.1c0.3-1,0.6-1.9,0.6-2.5c0-0.5-0.2-1.2-0.8-1.5
			c-0.8-0.3-1.8-0.3-2.5-0.3c-0.4,0-0.7-0.1-0.7-0.4c0-0.4,0.4-0.5,1.4-0.5c2.6,0,5.6,0.2,6.4,0.2c0.4,0,3.2-0.2,5.1-0.2
			c0.7,0,1.1,0.1,1.1,0.5c0,0.3-0.3,0.5-0.8,0.5c-0.5,0-1.9,0-3.1,0.8c-0.8,0.6-1.8,1.7-3.6,6.1c-0.7,1.8-4,9.6-7.3,17.6
			c-4,9.5-6.9,16.5-8.4,19.7c-1.8,3.9-2.1,4.9-2.7,4.9c-0.8,0-1.1-0.9-2.3-4l-15.9-39.9c-1.4-3.6-2.4-4.3-4.7-5
			c-1-0.3-2.1-0.3-2.5-0.3c-0.4,0-0.5-0.2-0.5-0.5c0-0.4,0.6-0.5,1.7-0.5c3.1,0,6.8,0.2,7.6,0.2c0.7,0,3.6-0.2,6-0.2
			c1.2,0,1.8,0.1,1.8,0.5c0,0.3-0.2,0.5-0.6,0.5c-0.7,0-1.9,0.1-2.5,0.3c-0.7,0.3-0.8,0.8-0.8,1.3c0,0.8,0.8,2.9,1.8,5.4L220.5,784z
			"/>
		<path class="st0" d="M266,761.6c0-10.2,0-12-0.1-14.1c-0.1-2.2-0.6-3.2-2.6-3.7c-0.5-0.1-1.5-0.2-2-0.2c-0.2,0-0.5-0.1-0.5-0.4
			c0-0.4,0.3-0.5,1-0.5c1.4,0,3,0,4.3,0.1l2.4,0.1c0.4,0,12.3,0,13.6-0.1c1.1-0.1,2.1-0.2,2.6-0.3c0.3-0.1,0.5-0.3,0.8-0.3
			c0.2,0,0.2,0.3,0.2,0.6c0,0.5-0.3,1.2-0.5,3.1c-0.1,0.7-0.2,3.5-0.3,4.3c-0.1,0.3-0.2,0.7-0.4,0.7c-0.4,0-0.5-0.3-0.5-0.8
			c0-0.5-0.1-1.6-0.4-2.3c-0.4-1-1-1.8-4.2-2.2c-1-0.1-7.5-0.2-8.2-0.2c-0.2,0-0.4,0.2-0.4,0.6v18c0,0.5,0.1,0.6,0.4,0.6
			c0.8,0,8.1,0,9.5-0.1c1.4-0.1,2.3-0.3,2.8-0.9c0.4-0.5,0.7-0.8,0.9-0.8c0.2,0,0.3,0.1,0.3,0.5c0,0.4-0.3,1.5-0.5,3.6
			c-0.1,1.3-0.2,3.7-0.2,4.2c0,0.5,0,1.2-0.4,1.2c-0.3,0-0.4-0.3-0.4-0.6c0-0.7,0-1.3-0.2-2.2c-0.2-0.9-0.8-2-3.1-2.3
			c-1.6-0.2-7.5-0.3-8.5-0.3c-0.3,0-0.4,0.2-0.4,0.5v5.7c0,2.2-0.1,9.8,0,11.1c0.2,4.5,1.1,5.3,6.9,5.3c1.5,0,4.2,0,5.7-0.7
			c1.5-0.7,2.3-2,2.7-4.7c0.1-0.7,0.2-1,0.5-1c0.4,0,0.4,0.5,0.4,1c0,0.5-0.5,4.9-0.8,6.3c-0.4,1.7-0.9,1.7-3.2,1.7
			c-4.5,0-7.7-0.1-10.1-0.2c-2.3-0.1-3.8-0.2-4.6-0.2c-0.1,0-1.1,0-2.4,0.1c-1.2,0-2.6,0.1-3.5,0.1c-0.7,0-1-0.1-1-0.5
			c0-0.2,0.1-0.4,0.5-0.4c0.5,0,1.2-0.1,1.8-0.3c1.2-0.3,1.5-1.7,1.7-3.6c0.3-2.7,0.3-7.9,0.3-14.1V761.6z"/>
		<path class="st0" d="M320,761.1c0-10.2,0-12.1-0.1-14.2c-0.1-2.2-0.6-3.3-2.7-3.7c-0.5-0.1-1.6-0.2-2.1-0.2
			c-0.2,0-0.5-0.1-0.5-0.4c0-0.4,0.3-0.5,1-0.5c2.8,0,6.8,0.2,7.1,0.2c0.7,0,5.4-0.2,7.4-0.2c3.9,0,8.1,0.4,11.4,2.9
			c1.6,1.2,4.3,4.4,4.3,8.9c0,4.9-1.9,9.7-7.6,15.2c5.1,6.9,9.4,12.7,13,16.8c3.4,3.7,6.1,4.5,7.6,4.7c1.2,0.2,2.1,0.2,2.4,0.2
			c0.3,0,0.6,0.2,0.6,0.4c0,0.4-0.4,0.5-1.5,0.5h-4.4c-3.5,0-5.1-0.3-6.7-1.2c-2.7-1.5-4.9-4.7-8.4-9.7c-2.6-3.6-5.6-8-6.8-9.7
			c-0.2-0.3-0.4-0.4-0.8-0.4l-7.7-0.1c-0.3,0-0.4,0.2-0.4,0.5v1.6c0,6.3,0,11.5,0.3,14.2c0.2,1.9,0.6,3.4,2.4,3.6
			c0.9,0.1,2.2,0.3,2.8,0.3c0.4,0,0.5,0.2,0.5,0.4c0,0.3-0.3,0.5-1,0.5c-3.4,0-7.4-0.2-7.7-0.2c-0.1,0-4,0.2-5.9,0.2
			c-0.7,0-1-0.1-1-0.5c0-0.2,0.1-0.4,0.5-0.4c0.6,0,1.3-0.1,1.9-0.3c1.2-0.3,1.6-1.7,1.8-3.6c0.3-2.8,0.3-7.9,0.3-14.2V761.1z
			 M325,767.3c0,0.3,0.1,0.6,0.5,0.8c1,0.6,4,1,6.8,1c1.6,0,3.4-0.2,4.9-1.2c2.3-1.6,4-5.1,4-10c0-8.1-4.3-13-11.3-13
			c-2,0-3.7,0.2-4.4,0.4c-0.3,0.1-0.5,0.4-0.5,0.8V767.3z"/>
		<path class="st0" d="M378.7,791.1c-0.9-0.5-1-0.7-1-2.5c0-3.2,0.3-5.8,0.3-6.9c0.1-0.7,0.2-1,0.5-1c0.4,0,0.5,0.2,0.5,0.7
			c0,0.6,0,1.5,0.2,2.4c1,4.8,5.3,6.6,9.6,6.6c6.2,0,9.3-4.5,9.3-8.6c0-4.5-1.9-7.1-7.5-11.7l-2.9-2.4c-6.9-5.7-8.5-9.7-8.5-14.1
			c0-7,5.2-11.7,13.5-11.7c2.5,0,4.4,0.3,6,0.6c1.2,0.3,1.8,0.3,2.3,0.3c0.5,0,0.7,0.1,0.7,0.5c0,0.3-0.3,2.5-0.3,6.9
			c0,1-0.1,1.5-0.5,1.5c-0.4,0-0.5-0.3-0.5-0.8c-0.1-0.8-0.5-2.5-0.8-3.3c-0.4-0.7-2.2-3.4-8.1-3.4c-4.5,0-8,2.8-8,7.5
			c0,3.7,1.7,6.1,7.9,10.9l1.8,1.4c7.7,6,9.5,10.1,9.5,15.3c0,2.7-1,7.6-5.5,10.8c-2.8,2-6.3,2.7-9.8,2.7
			C384.4,792.8,381.4,792.4,378.7,791.1z"/>
		<path class="st0" d="M439,773.1c0,6.2,0,11.4,0.3,14.1c0.2,1.9,0.5,3.3,2.3,3.6c0.8,0.1,2.1,0.3,2.7,0.3c0.4,0,0.5,0.2,0.5,0.4
			c0,0.3-0.3,0.5-1,0.5c-3.3,0-7-0.2-7.3-0.2s-4,0.2-5.8,0.2c-0.7,0-1-0.1-1-0.5c0-0.2,0.1-0.4,0.5-0.4c0.5,0,1.2-0.1,1.8-0.3
			c1.2-0.3,1.5-1.7,1.7-3.6c0.3-2.7,0.3-7.9,0.3-14.1v-11.4c0-10.2,0-12-0.1-14.1c-0.1-2.2-0.7-3.3-2-3.6c-0.7-0.2-1.4-0.3-1.8-0.3
			c-0.2,0-0.5-0.1-0.5-0.4c0-0.4,0.3-0.5,1-0.5c2,0,5.7,0.2,6,0.2s4-0.2,5.8-0.2c0.7,0,1,0.1,1,0.5c0,0.3-0.2,0.4-0.5,0.4
			c-0.4,0-0.8,0.1-1.5,0.2c-1.6,0.3-2.1,1.4-2.2,3.7c-0.1,2.1-0.1,3.9-0.1,14.1V773.1z"/>
		<path class="st0" d="M491,773.1c0,6.2,0,11.4,0.4,14.1c0.2,1.9,0.6,3.3,2.5,3.6c0.9,0.1,2.3,0.3,2.9,0.3c0.4,0,0.5,0.2,0.5,0.4
			c0,0.3-0.3,0.5-1,0.5c-3.6,0-7.7-0.2-8-0.2c-0.3,0-4.4,0.2-6.4,0.2c-0.7,0-1-0.1-1-0.5c0-0.2,0.1-0.4,0.5-0.4c0.6,0,1.4-0.1,2-0.3
			c1.3-0.3,1.6-1.7,1.9-3.6c0.3-2.7,0.8-14.1,0.8-14.1v-27.4h-10.1c-4,0.1-5.6,0.6-6.6,2.1c-0.7,1.1-0.9,1.6-1.1,2
			c-0.2,0.5-0.4,0.6-0.6,0.6c-0.2,0-0.3-0.2-0.3-0.6c0-0.6,1.3-6.2,1.4-6.8c0.1-0.4,0.4-1.2,0.6-1.2c0.5,0,1.1,0.6,2.9,0.8
			c1.9,0.2,5.1,0,5.1,0h24.4c0,0,3.6,0.2,4.6,0c1-0.1,1.6-0.3,1.8-0.3c0.3,0,0.3,0.4,0.3,0.8c0,1.9-0.2,6.4-0.2,7.2
			c0,0.6-0.2,0.8-0.5,0.8c-0.3,0-0.5-0.2-0.5-1.1l-0.1-0.7c-0.2-2-1.8-3.4-8-3.6H491V773.1z"/>
		<path class="st0" d="M545,775.1c0.1-3.5-0.6-4.9-1.4-6.8c-0.5-1-9.2-15.3-11.5-18.7c-1.6-2.4-3.2-4-4.4-4.8c-1-0.7-2.2-1-2.8-1
			c-0.3,0-0.7-0.1-0.7-0.5c0-0.3,0.3-0.5,0.8-0.5c1.2,0,6.1,0.2,6.4,0.2c0.5,0,2.9-0.2,5.5-0.2c0.7,0,0.8,0.2,0.8,0.5
			c0,0.3-0.4,0.3-1,0.6c-0.5,0.3-0.8,0.6-0.8,1.2c0,0.8,0.3,1.6,0.8,2.5c1,1.9,10.8,18.7,12,20.6c1.2-2.7,9.5-17,10.8-19.1
			c0.8-1.4,1.1-2.5,1.1-3.3c0-0.9-0.3-1.6-1-1.8c-0.6-0.2-1-0.3-1-0.7c0-0.3,0.4-0.4,1-0.4c1.7,0,3.8,0.2,4.3,0.2
			c0.4,0,5.1-0.2,6.3-0.2c0.4,0,0.8,0.1,0.8,0.4c0,0.3-0.3,0.5-0.8,0.5c-0.7,0-1.9,0.3-3,0.9c-1.3,0.8-2,1.6-3.4,3.3
			c-2.1,2.6-11.2,17.9-12.4,20.7c-1,2.3-1,4.4-1.5,6.5v5.6c0.5,1,0.5,3.8,0.7,6.5c0.1,1.9,0.7,3.3,2.7,3.6c0.9,0.1,2.3,0.3,2.9,0.3
			c0.4,0,0.5,0.2,0.5,0.4c0,0.3-0.3,0.5-1,0.5c-3.6,0-7.7-0.2-8-0.2c-0.3,0-4.4,0.2-6.4,0.2c-0.7,0-1-0.1-1-0.5
			c0-0.2,0.1-0.4,0.5-0.4c0.6,0,1.4-0.1,2-0.3c1.3-0.3,1.9-1.7,2-3.6c0.2-2.7,0.2-5.5,0.1-6.5V775.1z"/>
		<line class="st3" x1="9" y1="616.6" x2="576" y2="616.6"/>
		<line class="st3" x1="9" y1="721.6" x2="576" y2="721.6"/>
	</g>
</g>
</svg>
